{
.appVersion = "1230";
DisplayStrings = (
"Ð/Hbar",
"Ð",
"Æ",
"/aogonek",
"/florin",
"",
"/estimated",
"/whiteCircle",
"/zero.lf/one.lf/two.lf/three.lf/four.lf/five.lf/six.lf/seven.lf/eight.lf/nine.lf/zero.mini/one.mini/two.mini/three.mini/four.mini/five.mini/six.mini/seven.mini/eight.mini/nine.mini"
);
copyright = "Copyright 2019 The Bebas Neue Project Authors (https://github.com/dharmatype/Bebas-Neue)";
customParameters = (
{
name = description;
value = "Designed by Ryoichi Tsunekawa from Dharma Type in 2010.";
},
{
name = license;
value = "This Font Software is licensed under the SIL Open Font License, Version 1.1. This license is available with a FAQ at: http://scripts.sil.org/OFL";
},
{
name = licenseURL;
value = "http://scripts.sil.org/OFL";
},
{
name = vendorID;
value = DHRM;
},
{
name = panose;
value = (
2,
11,
6,
6,
2,
2,
2,
5,
2,
1
);
},
{
name = glyphOrder;
value = (
.notdef,
space
);
},
{
name = fsType;
value = (
);
},
{
name = trademark;
value = "Bebas Neue is a trademark of Dharma Type.";
},
{
name = note;
value = "Add “Scale to UPM 2048” in Instance before Export for TTF, If necessary.";
}
);
date = "2018-02-06 01:43:02 +0000";
designer = "Ryoichi Tsunekawa";
designerURL = "http://dharmatype.com";
familyName = "Bebas Neue";
featurePrefixes = (
{
automatic = 1;
code = "languagesystem DFLT dflt;\012languagesystem latn dflt;\012languagesystem latn NLD;\012languagesystem latn CAT;\012languagesystem latn ROM;\012languagesystem latn MOL;\012languagesystem latn KAZ;\012languagesystem latn TAT;\012languagesystem latn TRK;\012languagesystem latn CRT;\012languagesystem latn AZE;\012";
name = Languagesystems;
}
);
features = (
{
automatic = 1;
code = "feature ccmp;\012feature locl;\012feature pnum;\012feature subs;\012feature sups;\012feature numr;\012feature dnom;\012feature frac;\012feature ordn;\012feature tnum;\012feature case;\012";
name = aalt;
},
{
automatic = 1;

glyphs = (
{
color = 0;
glyphname = .notdef;
lastChange = "2018-02-07 01:03:05 +0000";
layers = (
{
background = {
paths = (
{
closed = 1;
nodes = (
"684 0 LINE",
"684 700 LINE",
"54 700 LINE",
"54 0 LINE"
);
},
{
closed = 1;
nodes = (
"282 150 LINE",
"282 262 LINE",
"168 262 LINE",
"168 150 LINE"
);
},
{
closed = 1;
nodes = (
"184 246 LINE",
"266 246 LINE",
"266 166 LINE",
"184 166 LINE"
);
},
{
closed = 1;
nodes = (
"250 182 LINE",
"250 230 LINE",
"200 230 LINE",
"200 182 LINE"
);
},
{
closed = 1;
nodes = (
"200 310 LINE",
"217 310 LINE",
"217 294 LINE",
"200 294 LINE"
);
},
{
closed = 1;
nodes = (
"184 326 LINE",
"184 358 LINE",
"168 358 LINE",
"168 326 LINE"
);
},
{
closed = 1;
nodes = (
"330 198 LINE",
"346 198 LINE",
"346 214 LINE",
"362 214 LINE",
"362 182 LINE",
"346 182 LINE",
"346 166 LINE",
"330 166 LINE"
);
},
{
closed = 1;
nodes = (
"378 182 LINE",
"394 182 LINE",
"394 166 LINE",
"378 166 LINE"
);
},
{
closed = 1;
nodes = (
"362 246 LINE",
"362 262 LINE",
"346 262 LINE",
"346 246 LINE"
);
},
{
closed = 1;
nodes = (
"378 214 LINE",
"394 214 LINE",
"394 246 LINE",
"378 246 LINE",
"378 230 LINE",
"330 230 LINE",
"330 262 LINE",
"314 262 LINE",
"314 294 LINE",
"330 294 LINE",
"330 278 LINE",
"346 278 LINE",
"346 294 LINE",
"378 294 LINE",
"378 262 LINE",
"394 262 LINE",
"394 278 LINE",
"410 278 LINE",
"410 262 LINE",
"426 262 LINE",
"426 246 LINE",
"410 246 LINE",
"410 198 LINE",
"378 198 LINE"
);
},
{
closed = 1;
nodes = (
"330 310 LINE",
"346 310 LINE",
"346 294 LINE",
"330 294 LINE"
);
},
{
closed = 1;
nodes = (
"426 214 LINE",
"442 214 LINE",
"442 198 LINE",
"426 198 LINE"
);
},
{
closed = 1;
nodes = (
"266 406 LINE",
"282 406 LINE",
"282 390 LINE",
"266 390 LINE"
);
},
{
closed = 1;
nodes = (
"458 214 LINE",
"490 214 LINE",
"490 182 LINE",
"458 182 LINE"
);
},
{
closed = 1;
nodes = (
"378 310 LINE",
"394 310 LINE",
"394 294 LINE",
"378 294 LINE"
);
},
{
closed = 1;
nodes = (
"152 566 LINE",
"586 566 LINE",
"586 134 LINE",
"152 134 LINE"
);
},
{
closed = 1;
nodes = (
"282 438 LINE",
"282 550 LINE",
"168 550 LINE",
"168 438 LINE"
);
},
{
closed = 1;
nodes = (
"346 150 LINE",
"346 166 LINE",
"378 166 LINE",
"378 150 LINE",
"410 150 LINE",
"410 182 LINE",
"426 182 LINE",
"426 150 LINE",
"442 150 LINE",
"442 166 LINE",
"458 166 LINE",
"458 150 LINE",
"474 150 LINE",
"474 166 LINE",
"506 166 LINE",
"506 150 LINE",
"522 150 LINE",
"522 166 LINE",
"506 166 LINE",
"506 198 LINE",
"538 198 LINE",
"538 182 LINE",
"570 182 LINE",
"570 198 LINE",
"554 198 LINE",
"554 214 LINE",
"570 214 LINE",
"570 278 LINE",
"554 278 LINE",
"554 294 LINE",
"538 294 LINE",
"538 278 LINE",
"522 278 LINE",
"522 262 LINE",
"506 262 LINE",
"506 294 LINE",
"490 294 LINE",
"490 310 LINE",
"538 310 LINE",
"538 326 LINE",
"554 326 LINE",
"554 310 LINE",
"570 310 LINE",
"570 358 LINE",
"554 358 LINE",
"554 342 LINE",
"538 342 LINE",
"538 326 LINE",
"490 326 LINE",
"490 358 LINE",
"522 358 LINE",
"522 374 LINE",
"538 374 LINE",
"538 390 LINE",
"554 390 LINE",
"554 374 LINE",
"570 374 LINE",
"570 422 LINE",
"538 422 LINE",
"538 390 LINE",
"522 390 LINE",
"522 406 LINE",
"506 406 LINE",
"506 422 LINE",
"442 422 LINE",
"442 406 LINE",
"426 406 LINE",
"426 422 LINE",
"410 422 LINE",
"410 454 LINE",
"394 454 LINE",
"394 470 LINE",
"410 470 LINE",
"410 502 LINE",
"426 502 LINE",
"426 518 LINE",
"442 518 LINE",
"442 550 LINE",
"426 550 LINE",
"426 518 LINE",
"410 518 LINE",
"410 550 LINE",
"394 550 LINE",
"394 534 LINE",
"378 534 LINE",
"378 550 LINE",
"346 550 LINE",
"346 534 LINE",
"314 534 LINE",
"314 550 LINE",
"298 550 LINE",
"298 518 LINE",
"330 518 LINE",
"330 486 LINE",
"298 486 LINE",
"298 406 LINE",
"282 406 LINE",
"282 422 LINE",
"250 422 LINE",
"250 406 LINE",
"234 406 LINE",
"234 390 LINE",
"266 390 LINE",
"266 374 LINE",
"250 374 LINE",
"250 358 LINE",
"234 358 LINE",
"234 374 LINE",
"217 374 LINE",
"217 390 LINE",
"200 390 LINE",
"200 406 LINE",
"217 406 LINE",
"217 422 LINE",
"168 422 LINE",
"168 390 LINE",
"184 390 LINE",
"184 374 LINE",
"217 374 LINE",
"217 358 LINE",
"234 358 LINE",
"234 342 LINE",
"217 342 LINE",
"217 326 LINE",
"200 326 LINE",
"200 310 LINE",
"168 310 LINE",
"168 294 LINE",
"200 294 LINE",
"200 278 LINE",
"217 278 LINE",
"217 294 LINE",
"234 294 LINE",
"234 278 LINE",
"250 278 LINE",
"250 310 LINE",
"282 310 LINE",
"282 294 LINE",
"266 294 LINE",
"266 278 LINE",
"298 278 LINE",
"298 262 LINE",
"314 262 LINE",
"314 246 LINE",
"298 246 LINE",
"298 230 LINE",
"330 230 LINE",
"330 198 LINE",
"298 198 LINE",
"298 150 LINE"
);
},
{
closed = 1;
nodes = (
"184 534 LINE",
"266 534 LINE",
"266 454 LINE",
"184 454 LINE"
);
},
{
closed = 1;
nodes = (
"250 470 LINE",
"250 518 LINE",
"200 518 LINE",
"200 470 LINE"
);
},
{
closed = 1;
nodes = (
"298 326 LINE",
"250 326 LINE",
"250 310 LINE",
"234 310 LINE",
"234 342 LINE",
"298 342 LINE",
"298 358 LINE",
"266 358 LINE",
"266 374 LINE",
"298 374 LINE",
"298 406 LINE",
"314 406 LINE",
"314 390 LINE",
"346 390 LINE",
"346 374 LINE",
"362 374 LINE",
"362 390 LINE",
"346 390 LINE",
"346 422 LINE",
"378 422 LINE",
"378 454 LINE",
"394 454 LINE",
"394 422 LINE",
"410 422 LINE",
"410 374 LINE",
"394 374 LINE",
"394 358 LINE",
"410 358 LINE",
"410 374 LINE",
"426 374 LINE",
"426 390 LINE",
"442 390 LINE",
"442 358 LINE",
"458 358 LINE",
"458 342 LINE",
"410 342 LINE",
"410 310 LINE",
"394 310 LINE",
"394 342 LINE",
"378 342 LINE",
"378 358 LINE",
"346 358 LINE",
"346 342 LINE",
"362 342 LINE",
"362 310 LINE",
"346 310 LINE",
"346 326 LINE",
"330 326 LINE",
"330 374 LINE",
"314 374 LINE",
"314 326 LINE",
"330 326 LINE",
"330 310 LINE",
"314 310 LINE",
"314 294 LINE",
"298 294 LINE"
);
},
{
closed = 1;
nodes = (
"410 310 LINE",
"426 310 LINE",
"426 294 LINE",
"410 294 LINE"
);
},
{
closed = 1;
nodes = (
"442 278 LINE",
"490 278 LINE",
"490 230 LINE",
"442 230 LINE"
);
},
{
closed = 1;
nodes = (
"474 246 LINE",
"474 262 LINE",
"458 262 LINE",
"458 246 LINE"
);
},
{
closed = 1;
nodes = (
"570 150 LINE",
"570 166 LINE",
"554 166 LINE",
"554 150 LINE"
);
},
{
closed = 1;
nodes = (
"442 310 LINE",
"458 310 LINE",
"458 294 LINE",
"442 294 LINE"
);
},
{
closed = 1;
nodes = (
"314 470 LINE",
"346 470 LINE",
"346 454 LINE",
"330 454 LINE",
"330 422 LINE",
"314 422 LINE"
);
},
{
closed = 1;
nodes = (
"522 230 LINE",
"506 230 LINE",
"506 246 LINE",
"522 246 LINE",
"522 262 LINE",
"538 262 LINE",
"538 278 LINE",
"554 278 LINE",
"554 246 LINE",
"538 246 LINE",
"538 230 LINE",
"554 230 LINE",
"554 214 LINE",
"522 214 LINE"
);
},
{
closed = 1;
nodes = (
"394 390 LINE",
"394 406 LINE",
"378 406 LINE",
"378 390 LINE"
);
},
{
closed = 1;
nodes = (
"346 454 LINE",
"362 454 LINE",
"362 438 LINE",
"346 438 LINE"
);
},
{
closed = 1;
nodes = (
"362 486 LINE",
"346 486 LINE",
"346 502 LINE",
"378 502 LINE",
"378 454 LINE",
"362 454 LINE"
);
},
{
closed = 1;
nodes = (
"458 374 LINE",
"490 374 LINE",
"490 358 LINE",
"458 358 LINE"
);
},
{
closed = 1;
nodes = (
"442 406 LINE",
"458 406 LINE",
"458 390 LINE",
"442 390 LINE"
);
},
{
closed = 1;
nodes = (
"346 534 LINE",
"362 534 LINE",
"362 518 LINE",
"346 518 LINE"
);
},
{
closed = 1;
nodes = (
"442 438 LINE",
"442 454 LINE",
"426 454 LINE",
"426 438 LINE"
);
},
{
closed = 1;
nodes = (
"490 406 LINE",
"506 406 LINE",
"506 390 LINE",
"490 390 LINE"
);
},
{
closed = 1;
nodes = (
"570 438 LINE",
"570 550 LINE",
"458 550 LINE",
"458 438 LINE"
);
},
{
closed = 1;
nodes = (
"474 534 LINE",
"554 534 LINE",
"554 454 LINE",
"474 454 LINE"
);
},
{
closed = 1;
nodes = (
"538 470 LINE",
"538 518 LINE",
"490 518 LINE",
"490 470 LINE"
);
}
);
};
hints = (
{
horizontal = 1;
origin = "{0, 3}";
target = "{1, 2}";
type = Stem;
},
{
horizontal = 1;
origin = "{0, 2}";
target = "{4, 0}";
type = Stem;
},
{
origin = "{0, 3}";
target = "{2, 2}";
type = Stem;
},
{
origin = "{3, 2}";
target = "{0, 0}";
type = Stem;
}
);
layerId = "26058A5B-27B8-4A86-A50F-6474302A7C9F";
paths = (
{
closed = 1;
nodes = (
"684 0 LINE",
"684 700 LINE",
"54 700 LINE",
"54 0 LINE"
);
},
{
closed = 1;
nodes = (
"369 313 LINE",
"601 50 LINE",
"137 50 LINE"
);
},
{
closed = 1;
nodes = (
"104 613 LINE",
"336 350 LINE",
"104 87 LINE"
);
},
{
closed = 1;
nodes = (
"402 350 LINE",
"634 613 LINE",
"634 87 LINE"
);
},
{
closed = 1;
nodes = (
"137 650 LINE",
"601 650 LINE",
"369 387 LINE"
);
}
);
width = 738;
}
);
note = .notdef;
},
{
color = 0;
glyphname = A;
lastChange = "2018-02-05 23:42:27 +0000";
layers = (
{
anchors = (
{
name = bottom;
position = "{201, 0}";
},
{
name = ogonek;
position = "{389, 0}";
},
{
name = top;
position = "{201, 700}";
}
);
background = {
anchors = (
{
name = bottom;
position = "{201, 0}";
},
{
name = ogonek;
position = "{389, 0}";
},
{
name = top;
position = "{201, 700}";
}
);
paths = (
{
closed = 1;
nodes = (
"114 0 LINE",
"134 137 LINE",
"259 137 LINE",
"259 139 LINE",
"279 0 LINE",
"389 0 LINE",
"275 700 LINE",
"126 700 LINE",
"12 0 LINE"
);
},
{
closed = 1;
nodes = (
"195 578 LINE",
"197 578 LINE",
"246 232 LINE",
"147 232 LINE"
);
}
);
};
layerId = "26058A5B-27B8-4A86-A50F-6474302A7C9F";
paths = (
{
closed = 1;
nodes = (
"114 0 LINE",
"134 137 LINE",
"259 137 LINE",
"259 139 LINE",
"279 0 LINE",
"389 0 LINE",
"275 700 LINE",
"126 700 LINE",
"12 0 LINE"
);
},
{
closed = 1;
nodes = (
"195 578 LINE",
"197 578 LINE",
"246 232 LINE",
"147 232 LINE"
);
}
);
width = 401;
}
);
leftKerningGroup = A;
note = A;
rightKerningGroup = A;
unicode = 0041;
},
{
color = 0;
glyphname = AE;
lastChange = "2018-02-06 00:12:11 +0000";
layers = (
{
anchors = (
{
name = bottom;
position = "{288, 0}";
},
{
name = top;
position = "{288, 700}";
}
);
background = {
anchors = (
{
name = bottom;
position = "{288, 0}";
},
{
name = top;
position = "{288, 700}";
}
);
paths = (
{
closed = 1;
nodes = (
"115 0 LINE",
"150 137 LINE",
"258 137 LINE",
"258 0 LINE",
"558 0 LINE",
"558 100 LINE",
"368 100 LINE",
"368 315 LINE",
"519 315 LINE",
"519 415 LINE",
"368 415 LINE",
"368 600 LINE",
"558 600 LINE",
"558 700 LINE",
"197 700 LINE",
"10 0 LINE"
);
},
{
closed = 1;
nodes = (
"256 565 LINE",
"258 565 LINE",
"258 232 LINE",
"174 232 LINE"
);
}
);
};
layerId = "26058A5B-27B8-4A86-A50F-6474302A7C9F";
paths = (
{
closed = 1;
nodes = (
"115 0 LINE",
"150 137 LINE",
"258 137 LINE",
"258 0 LINE",
"558 0 LINE",
"558 100 LINE",
"368 100 LINE",
"368 315 LINE",
"519 315 LINE",
"519 415 LINE",
"368 415 LINE",
"368 600 LINE",
"558 600 LINE",
"558 700 LINE",
"197 700 LINE",
"10 0 LINE"
);
},
{
closed = 1;
nodes = (
"256 565 LINE",
"258 565 LINE",
"258 232 LINE",
"174 232 LINE"
);
}
);
width = 580;
}
);
leftKerningGroup = AE;
note = AE;
rightKerningGroup = E;
rightMetricsKey = E;
unicode = 00C6;
},
{
color = 0;
glyphname = B;
lastChange = "2018-02-06 00:21:35 +0000";
layers = (
{
anchors = (
{
name = bottom;
position = "{202, 0}";
},
{
name = top;
position = "{191, 700}";
}
);
background = {
anchors = (
{
name = bottom;
position = "{202, 0}";
},
{
name = top;
position = "{191, 700}";
}
);
paths = (
{
closed = 1;
nodes = (
"214 0 LINE SMOOTH",
"324 0 OFFCURVE",
"381 58 OFFCURVE",
"381 166 CURVE SMOOTH",
"381 223 LINE SMOOTH",
"381 297 OFFCURVE",
"358 349 OFFCURVE",
"299 372 CURVE",
"299 374 LINE",
"348 397 OFFCURVE",
"370 442 OFFCURVE",
"370 514 CURVE SMOOTH",
"370 539 LINE SMOOTH",
"370 647 OFFCURVE",
"321 700 OFFCURVE",
"207 700 CURVE SMOOTH",
"41 700 LINE",
"41 0 LINE"
);
},
{
closed = 1;
nodes = (
"151 315 LINE",
"200 315 LINE SMOOTH",
"250 315 OFFCURVE",
"271 295 OFFCURVE",
"271 230 CURVE SMOOTH",
"271 169 LINE SMOOTH",
"271 117 OFFCURVE",
"251 100 OFFCURVE",
"214 100 CURVE SMOOTH",
"151 100 LINE"
);
},
{
closed = 1;
nodes = (
"151 600 LINE",
"204 600 LINE SMOOTH",
"243 600 OFFCURVE",
"260 578 OFFCURVE",
"260 528 CURVE SMOOTH",
"260 489 LINE SMOOTH",
"260 433 OFFCURVE",
"235 415 OFFCURVE",
"194 415 CURVE SMOOTH",
"151 415 LINE"
);
}
);
};
layerId = "26058A5B-27B8-4A86-A50F-6474302A7C9F";
paths = (
{
closed = 1;
nodes = (
"214 0 LINE SMOOTH",
"324 0 OFFCURVE",
"381 58 OFFCURVE",
"381 166 CURVE SMOOTH",
"381 226 LINE SMOOTH",
"381 300 OFFCURVE",
"358 352 OFFCURVE",
"299 372 CURVE",
"299 374 LINE",
"348 394 OFFCURVE",
"370 439 OFFCURVE",
"370 511 CURVE SMOOTH",
"370 539 LINE SMOOTH",
"370 647 OFFCURVE",
"321 700 OFFCURVE",
"207 700 CURVE SMOOTH",
"41 700 LINE",
"41 0 LINE"
);
},
{
closed = 1;
nodes = (
"151 315 LINE",
"200 315 LINE SMOOTH",
"250 315 OFFCURVE",
"271 295 OFFCURVE",
"271 230 CURVE SMOOTH",
"271 169 LINE SMOOTH",
"271 117 OFFCURVE",
"251 100 OFFCURVE",
"214 100 CURVE SMOOTH",
"151 100 LINE"
);
},
{
closed = 1;
nodes = (
"151 600 LINE",
"204 600 LINE SMOOTH",
"243 600 OFFCURVE",
"260 578 OFFCURVE",
"260 528 CURVE SMOOTH",
"260 489 LINE SMOOTH",
"260 433 OFFCURVE",
"235 415 OFFCURVE",
"194 415 CURVE SMOOTH",
"151 415 LINE"
);
}
);
width = 404;
}
);
note = B;
rightKerningGroup = B;
unicode = 0042;
},
{
color = 0;
glyphname = C;
lastChange = "2018-02-05 23:42:36 +0000";
layers = (
{
anchors = (
{
name = bottom;
position = "{197, 0}";
},
{
name = top;
position = "{193, 700}";
}
);
background = {
anchors = (
{
name = bottom;
position = "{197, 0}";
},
{
name = top;
position = "{193, 700}";
}
);
paths = (
{
closed = 1;
nodes = (
"302 -10 OFFCURVE",
"358 54 OFFCURVE",
"358 162 CURVE SMOOTH",
"358 261 LINE",
"254 261 LINE",
"254 154 LINE SMOOTH",
"254 108 OFFCURVE",
"232 90 OFFCURVE",
"199 90 CURVE SMOOTH",
"166 90 OFFCURVE",
"144 108 OFFCURVE",
"144 154 CURVE SMOOTH",
"144 545 LINE SMOOTH",
"144 591 OFFCURVE",
"166 610 OFFCURVE",
"199 610 CURVE SMOOTH",
"232 610 OFFCURVE",
"254 591 OFFCURVE",
"254 545 CURVE SMOOTH",
"254 464 LINE",
"358 464 LINE",
"358 538 LINE SMOOTH",
"358 646 OFFCURVE",
"302 710 OFFCURVE",
"196 710 CURVE SMOOTH",
"90 710 OFFCURVE",
"34 646 OFFCURVE",
"34 538 CURVE SMOOTH",
"34 162 LINE SMOOTH",
"34 54 OFFCURVE",
"90 -10 OFFCURVE",
"196 -10 CURVE SMOOTH"
);
}
);
};
layerId = "26058A5B-27B8-4A86-A50F-6474302A7C9F";
paths = (
{
closed = 1;
nodes = (
"302 -10 OFFCURVE",
"358 54 OFFCURVE",
"358 162 CURVE SMOOTH",
"358 261 LINE",
"254 261 LINE",
"254 154 LINE SMOOTH",
"254 108 OFFCURVE",
"232 90 OFFCURVE",
"199 90 CURVE SMOOTH",
"166 90 OFFCURVE",
"144 108 OFFCURVE",
"144 154 CURVE SMOOTH",
"144 545 LINE SMOOTH",
"144 591 OFFCURVE",
"166 610 OFFCURVE",
"199 610 CURVE SMOOTH",
"232 610 OFFCURVE",
"254 591 OFFCURVE",
"254 545 CURVE SMOOTH",
"254 464 LINE",
"358 464 LINE",
"358 538 LINE SMOOTH",
"358 646 OFFCURVE",
"302 710 OFFCURVE",
"196 710 CURVE SMOOTH",
"90 710 OFFCURVE",
"34 646 OFFCURVE",
"34 538 CURVE SMOOTH",
"34 162 LINE SMOOTH",
"34 54 OFFCURVE",
"90 -10 OFFCURVE",
"196 -10 CURVE SMOOTH"
);
}
);
width = 383;
}
);
leftKerningGroup = O;
note = C;
rightKerningGroup = C;
unicode = 0043;
},
{
color = 0;
glyphname = D;
lastChange = "2018-02-06 00:19:54 +0000";
layers = (
{
anchors = (
{
name = bottom;
position = "{204, 0}";
},
{
name = center;
position = "{101, 360}";
},
{
name = top;
position = "{195, 700}";
}
);
background = {
anchors = (
{
name = bottom;
position = "{204, 0}";
},
{
name = center;
position = "{101, 360}";
},
{
name = top;
position = "{195, 700}";
}
);
paths = (
{
closed = 1;
nodes = (
"211 0 LINE SMOOTH",
"321 0 OFFCURVE",
"375 61 OFFCURVE",
"375 173 CURVE SMOOTH",
"375 527 LINE SMOOTH",
"375 639 OFFCURVE",
"321 700 OFFCURVE",
"211 700 CURVE SMOOTH",
"41 700 LINE",
"41 0 LINE"
);
},
{
closed = 1;
nodes = (
"151 600 LINE",
"209 600 LINE SMOOTH",
"244 600 OFFCURVE",
"265 582 OFFCURVE",
"265 532 CURVE SMOOTH",
"265 168 LINE SMOOTH",
"265 118 OFFCURVE",
"244 100 OFFCURVE",
"209 100 CURVE SMOOTH",
"151 100 LINE"
);
}
);
};
layerId = "26058A5B-27B8-4A86-A50F-6474302A7C9F";
paths = (
{
closed = 1;
nodes = (
"209 0 LINE SMOOTH",
"319 0 OFFCURVE",
"373 61 OFFCURVE",
"373 173 CURVE SMOOTH",
"373 527 LINE SMOOTH",
"373 639 OFFCURVE",
"319 700 OFFCURVE",
"209 700 CURVE SMOOTH",
"41 700 LINE",
"41 0 LINE"
);
},
{
closed = 1;
nodes = (
"151 600 LINE",
"207 600 LINE SMOOTH",
"242 600 OFFCURVE",
"263 582 OFFCURVE",
"263 532 CURVE SMOOTH",
"263 168 LINE SMOOTH",
"263 118 OFFCURVE",
"242 100 OFFCURVE",
"207 100 CURVE SMOOTH",
"151 100 LINE"
);
}
);
width = 406;
}
);
note = D;
rightKerningGroup = O;
unicode = 0044;
},
{
color = 0;
glyphname = E;
lastChange = "2018-02-06 00:12:17 +0000";
layers = (
{
anchors = (
{
name = bottom;
position = "{180, 0}";
},
{
name = ogonek;
position = "{341, 0}";
},
{
name = top;
position = "{191, 700}";
},
{
name = topleft;
position = "{21, 700}";
}
);
background = {
anchors = (
{
name = bottom;
position = "{180, 0}";
},
{
name = ogonek;
position = "{341, 0}";
},
{
name = top;
position = "{191, 700}";
},
{
name = topleft;
position = "{21, 700}";
}
);
paths = (
{
closed = 1;
nodes = (
"341 0 LINE",
"341 100 LINE",
"151 100 LINE",
"151 315 LINE",
"302 315 LINE",
"302 415 LINE",
"151 415 LINE",
"151 600 LINE",
"341 600 LINE",
"341 700 LINE",
"41 700 LINE",
"41 0 LINE"
);
}
);
};
layerId = "26058A5B-27B8-4A86-A50F-6474302A7C9F";
paths = (
{
closed = 1;
nodes = (
"341 0 LINE",
"341 100 LINE",
"151 100 LINE",
"151 315 LINE",
"302 315 LINE",
"302 415 LINE",
"151 415 LINE",
"151 600 LINE",
"341 600 LINE",
"341 700 LINE",
"41 700 LINE",
"41 0 LINE"
);
}
);
width = 363;
}
);
note = E;
rightKerningGroup = E;
unicode = 0045;
},
{
color = 0;
glyphname = F;
lastChange = "2018-02-06 00:12:20 +0000";
layers = (
{
anchors = (
{
name = bottom;
position = "{172, 0}";
},
{
name = top;
position = "{183, 700}";
}
);
background = {
anchors = (
{
name = bottom;
position = "{172, 0}";
},
{
name = top;
position = "{183, 700}";
}
);
paths = (
{
closed = 1;
nodes = (
"151 0 LINE",
"151 304 LINE",
"293 304 LINE",
"293 404 LINE",
"151 404 LINE",
"151 600 LINE",
"332 600 LINE",
"332 700 LINE",
"41 700 LINE",
"41 0 LINE"
);
}
);
};
layerId = "26058A5B-27B8-4A86-A50F-6474302A7C9F";
paths = (
{
closed = 1;
nodes = (
"151 0 LINE",
"151 305 LINE",
"293 305 LINE",
"293 405 LINE",
"151 405 LINE",
"151 600 LINE",
"332 600 LINE",
"332 700 LINE",
"41 700 LINE",
"41 0 LINE"
);
}
);
width = 344;
}
);
note = F;
rightKerningGroup = F;
unicode = 0046;
},
{
color = 0;
glyphname = G;
lastChange = "2018-02-05 23:43:01 +0000";
layers = (
{
anchors = (
{
name = bottom;
position = "{196, 0}";
},
{
name = top;
position = "{197, 700}";
}
);
background = {
anchors = (
{
name = bottom;
position = "{196, 0}";
},
{
name = top;
position = "{197, 700}";
}
);
paths = (
{
closed = 1;
nodes = (
"305 -10 OFFCURVE",
"361 54 OFFCURVE",
"361 166 CURVE SMOOTH",
"361 395 LINE",
"202 395 LINE",
"202 295 LINE",
"257 295 LINE",
"257 158 LINE SMOOTH",
"257 108 OFFCURVE",
"235 90 OFFCURVE",
"200 90 CURVE SMOOTH",
"165 90 OFFCURVE",
"143 108 OFFCURVE",
"143 158 CURVE SMOOTH",
"143 541 LINE SMOOTH",
"143 591 OFFCURVE",
"165 610 OFFCURVE",
"200 610 CURVE SMOOTH",
"235 610 OFFCURVE",
"257 591 OFFCURVE",
"257 541 CURVE SMOOTH",
"257 474 LINE",
"361 474 LINE",
"361 534 LINE SMOOTH",
"361 646 OFFCURVE",
"305 710 OFFCURVE",
"197 710 CURVE SMOOTH",
"89 710 OFFCURVE",
"33 646 OFFCURVE",
"33 534 CURVE SMOOTH",
"33 166 LINE SMOOTH",
"33 54 OFFCURVE",
"89 -10 OFFCURVE",
"197 -10 CURVE SMOOTH"
);
}
);
};
layerId = "26058A5B-27B8-4A86-A50F-6474302A7C9F";
paths = (
{
closed = 1;
nodes = (
"305 -10 OFFCURVE",
"361 54 OFFCURVE",
"361 166 CURVE SMOOTH",
"361 395 LINE",
"202 395 LINE",
"202 295 LINE",
"257 295 LINE",
"257 158 LINE SMOOTH",
"257 108 OFFCURVE",
"235 90 OFFCURVE",
"200 90 CURVE SMOOTH",
"165 90 OFFCURVE",
"143 108 OFFCURVE",
"143 158 CURVE SMOOTH",
"143 541 LINE SMOOTH",
"143 591 OFFCURVE",
"165 610 OFFCURVE",
"200 610 CURVE SMOOTH",
"235 610 OFFCURVE",
"257 591 OFFCURVE",
"257 541 CURVE SMOOTH",
"257 474 LINE",
"361 474 LINE",
"361 534 LINE SMOOTH",
"361 646 OFFCURVE",
"305 710 OFFCURVE",
"197 710 CURVE SMOOTH",
"89 710 OFFCURVE",
"33 646 OFFCURVE",
"33 534 CURVE SMOOTH",
"33 166 LINE SMOOTH",
"33 54 OFFCURVE",
"89 -10 OFFCURVE",
"197 -10 CURVE SMOOTH"
);
}
);
width = 391;
}
);
leftKerningGroup = O;
note = G;
rightKerningGroup = G;
unicode = 0047;
},
{
color = 0;
glyphname = H;
lastChange = "2018-02-06 00:12:25 +0000";
layers = (
{
anchors = (
{
name = bottom;
position = "{210, 0}";
},
{
name = center;
position = "{210, 542}";
},
{
name = top;
position = "{210, 700}";
},
{
name = topleft;
position = "{21, 700}";
}
);
background = {
anchors = (
{
name = bottom;
position = "{210, 0}";
},
{
name = center;
position = "{210, 542}";
},
{
name = top;
position = "{210, 700}";
},
{
name = topleft;
position = "{21, 700}";
}
);
paths = (
{
closed = 1;
nodes = (
"151 0 LINE",
"151 315 LINE",
"268 315 LINE",
"268 0 LINE",
"378 0 LINE",
"378 700 LINE",
"268 700 LINE",
"268 415 LINE",
"151 415 LINE",
"151 700 LINE",
"41 700 LINE",
"41 0 LINE"
);
}
);
};
guideLines = (
{
position = "{283, 452}";
}
);
layerId = "26058A5B-27B8-4A86-A50F-6474302A7C9F";
paths = (
{
closed = 1;
nodes = (
"151 0 LINE",
"151 315 LINE",
"269 315 LINE",
"269 0 LINE",
"379 0 LINE",
"379 700 LINE",
"269 700 LINE",
"269 415 LINE",
"151 415 LINE",
"151 700 LINE",
"41 700 LINE",
"41 0 LINE"
);
}
);
width = 420;
}
);
note = H;
unicode = 0048;
},
{
color = 0;
glyphname = I;
lastChange = "2018-02-05 23:43:08 +0000";
layers = (
{
anchors = (
{
name = bottom;
position = "{96, 0}";
},
{
name = ogonek;
position = "{173, 0}";
},
{
name = top;
position = "{96, 700}";
},
{
name = topleft;
position = "{21, 700}";
}
);
background = {
anchors = (
{
name = bottom;
position = "{96, 0}";
},
{
name = ogonek;
position = "{173, 0}";
},
{
name = top;
position = "{96, 700}";
},
{
name = topleft;
position = "{21, 700}";
}
);
paths = (
{
closed = 1;
nodes = (
"151 0 LINE",
"151 700 LINE",
"41 700 LINE",
"41 0 LINE"
);
}
);
};
layerId = "26058A5B-27B8-4A86-A50F-6474302A7C9F";
paths = (
{
closed = 1;
nodes = (
"151 0 LINE",
"151 700 LINE",
"41 700 LINE",
"41 0 LINE"
);
}
);
width = 192;
}
);
note = I;
unicode = 0049;
},
{
color = 0;
glyphname = J;
lastChange = "2018-02-05 23:45:42 +0000";
layers = (
{
anchors = (
{
name = bottom;
position = "{135, 0}";
},
{
name = top;
position = "{157, 700}";
}
);
background = {
anchors = (
{
name = bottom;
position = "{135, 0}";
},
{
name = top;
position = "{157, 700}";
}
);
paths = (
{
closed = 1;
nodes = (
"175 -4 OFFCURVE",
"227 51 OFFCURVE",
"227 166 CURVE SMOOTH",
"227 700 LINE",
"117 700 LINE",
"117 163 LINE SMOOTH",
"117 117 OFFCURVE",
"96 96 OFFCURVE",
"52 96 CURVE SMOOTH",
"40 96 OFFCURVE",
"28 97 OFFCURVE",
"16 100 CURVE",
"16 0 LINE",
"32 -3 OFFCURVE",
"47 -4 OFFCURVE",
"67 -4 CURVE SMOOTH"
);
}
);
};
layerId = "26058A5B-27B8-4A86-A50F-6474302A7C9F";
paths = (
{
closed = 1;
nodes = (
"175 -4 OFFCURVE",
"227 51 OFFCURVE",
"227 166 CURVE SMOOTH",
"227 700 LINE",
"117 700 LINE",
"117 163 LINE SMOOTH",
"117 117 OFFCURVE",
"96 96 OFFCURVE",
"52 96 CURVE SMOOTH",
"40 96 OFFCURVE",
"28 97 OFFCURVE",
"16 100 CURVE",
"16 0 LINE",
"32 -3 OFFCURVE",
"47 -4 OFFCURVE",
"67 -4 CURVE SMOOTH"
);
}
);
width = 265;
}
);
leftKerningGroup = J;
note = J;
rightKerningGroup = J;
unicode = 004A;
},
{
color = 0;
glyphname = K;
lastChange = "2018-02-05 23:45:46 +0000";
layers = (
{
anchors = (
{
name = bottom;
position = "{217, 0}";
},
{
name = top;
position = "{207, 700}";
}
);
background = {
anchors = (
{
name = bottom;
position = "{217, 0}";
},
{
name = top;
position = "{207, 700}";
}
);
paths = (
{
closed = 1;
nodes = (
"151 0 LINE",
"151 223 LINE",
"195 312 LINE",
"288 0 LINE",
"403 0 LINE",
"270 443 LINE",
"401 700 LINE",
"291 700 LINE",
"151 405 LINE",
"151 700 LINE",
"41 700 LINE",
"41 0 LINE"
);
}
);
};
guideLines = (
{
angle = 62.4509;
position = "{263, 435}";
}
);
layerId = "26058A5B-27B8-4A86-A50F-6474302A7C9F";
paths = (
{
closed = 1;
nodes = (
"151 0 LINE",
"151 223 LINE",
"195 312 LINE",
"288 0 LINE",
"403 0 LINE",
"270 443 LINE",
"401 700 LINE",
"291 700 LINE",
"151 405 LINE",
"151 700 LINE",
"41 700 LINE",
"41 0 LINE"
);
}
);
width = 414;
}
);
note = K;
rightKerningGroup = K;
unicode = 004B;
},
{
color = 0;
glyphname = L;
lastChange = "2018-02-05 23:45:48 +0000";
layers = (
{
anchors = (
{
name = bottom;
position = "{187, 0}";
},
{
name = center;
position = "{172, 350}";
},
{
name = top;
position = "{106, 700}";
},
{
name = topright;
position = "{260, 700}";
}
);
background = {
anchors = (
{
name = bottom;
position = "{187, 0}";
},
{
name = center;
position = "{172, 350}";
},
{
name = top;
position = "{106, 700}";
},
{
name = topright;
position = "{260, 700}";
}
);
paths = (
{
closed = 1;
nodes = (
"332 0 LINE",
"332 100 LINE",
"151 100 LINE",
"151 700 LINE",
"41 700 LINE",
"41 0 LINE"
);
}
);
};
layerId = "26058A5B-27B8-4A86-A50F-6474302A7C9F";
paths = (
{
closed = 1;
nodes = (
"332 0 LINE",
"332 100 LINE",
"151 100 LINE",
"151 700 LINE",
"41 700 LINE",
"41 0 LINE"
);
}
);
width = 344;
}
);
note = L;
rightKerningGroup = L;
unicode = 004C;
},
{
color = 5;
glyphname = Ldot;
lastChange = "2018-02-05 23:46:41 +0000";
layers = (
{
background = {
components = (
{
name = L;
}
);
paths = (
{
closed = 1;
nodes = (
"316 297 LINE",
"316 403 LINE",
"210 403 LINE",
"210 297 LINE"
);
}
);
};
components = (
{
name = L;
}
);
layerId = "26058A5B-27B8-4A86-A50F-6474302A7C9F";
paths = (
{
closed = 1;
nodes = (
"320 297 LINE",
"320 403 LINE",
"214 403 LINE",
"214 297 LINE"
);
}
);
width = 343;
}
);
note = Ldot;
rightKerningGroup = Ldot;
unicode = 013F;
},
{
color = 5;
glyphname = Lslash;
lastChange = "2018-02-05 23:46:45 +0000";
layers = (
{
background = {
components = (
{
name = L;
transform = "{1, 0, 0, 1, 20, 0}";
}
);
paths = (
{
closed = 1;
nodes = (
"290 405 LINE",
"290 525 LINE",
"10 225 LINE",
"10 105 LINE"
);
}
);
};
components = (
{
name = L;
transform = "{1, 0, 0, 1, 20, 0}";
}
);
layerId = "26058A5B-27B8-4A86-A50F-6474302A7C9F";
paths = (
{
closed = 1;
nodes = (
"290 405 LINE",
"290 525 LINE",
"10 225 LINE",
"10 105 LINE"
);
}
);
width = 364;
}
);
note = Lslash;
rightKerningGroup = L;
rightMetricsKey = L;
unicode = 0141;
},
{
color = 0;
glyphname = M;
lastChange = "2018-02-05 23:46:48 +0000";
layers = (
{
anchors = (
{
name = bottom;
position = "{269, 0}";
},
{
name = top;
position = "{269, 700}";
}
);
background = {
anchors = (
{
name = bottom;
position = "{269, 0}";
},
{
name = top;
position = "{269, 700}";
}
);
paths = (
{
closed = 1;
nodes = (
"137 0 LINE",
"137 530 LINE",
"139 530 LINE",
"219 0 LINE",
"311 0 LINE",
"391 530 LINE",
"393 530 LINE",
"393 0 LINE",
"497 0 LINE",
"497 700 LINE",
"340 700 LINE",
"270 199 LINE",
"268 199 LINE",
"198 700 LINE",
"41 700 LINE",
"41 0 LINE"
);
}
);
};
layerId = "26058A5B-27B8-4A86-A50F-6474302A7C9F";
paths = (
{
closed = 1;
nodes = (
"137 0 LINE",
"137 530 LINE",
"139 530 LINE",
"219 0 LINE",
"311 0 LINE",
"391 530 LINE",
"393 530 LINE",
"393 0 LINE",
"497 0 LINE",
"497 700 LINE",
"340 700 LINE",
"270 199 LINE",
"268 199 LINE",
"198 700 LINE",
"41 700 LINE",
"41 0 LINE"
);
}
);
width = 538;
}
);
note = M;
unicode = 004D;
},
{
color = 0;
glyphname = N;
lastChange = "2018-02-05 23:46:51 +0000";
layers = (
{
anchors = (
{
name = bottom;
position = "{214, 0}";
},
{
name = top;
position = "{214, 700}";
}
);
background = {
anchors = (
{
name = bottom;
position = "{214, 0}";
},
{
name = top;
position = "{214, 700}";
}
);
paths = (
{
closed = 1;
nodes = (
"139 0 LINE",
"139 511 LINE",
"141 511 LINE",
"273 0 LINE",
"386 0 LINE",
"386 700 LINE",
"288 700 LINE",
"288 281 LINE",
"286 281 LINE",
"179 700 LINE",
"41 700 LINE",
"41 0 LINE"
);
}
);
};
layerId = "26058A5B-27B8-4A86-A50F-6474302A7C9F";
paths = (
{
closed = 1;
nodes = (
"139 0 LINE",
"139 511 LINE",
"141 511 LINE",
"273 0 LINE",
"386 0 LINE",
"386 700 LINE",
"288 700 LINE",
"288 281 LINE",
"286 281 LINE",
"179 700 LINE",
"41 700 LINE",
"41 0 LINE"
);
}
);
width = 427;
}
);
note = N;
unicode = 004E;
},
{
color = 0;
glyphname = Eng;
lastChange = "2018-02-05 23:46:55 +0000";
layers = (
{
anchors = (
{
name = bottom;
position = "{214, 0}";
},
{
name = top;
position = "{214, 700}";
}
);
background = {
anchors = (
{
name = bottom;
position = "{214, 0}";
},
{
name = top;
position = "{214, 700}";
}
);
paths = (
{
closed = 1;
nodes = (
"334 -170 OFFCURVE",
"386 -115 OFFCURVE",
"386 -2 CURVE SMOOTH",
"386 700 LINE",
"288 700 LINE",
"288 304 LINE",
"286 304 LINE",
"179 700 LINE",
"41 700 LINE",
"41 0 LINE",
"139 0 LINE",
"139 523 LINE",
"141 523 LINE",
"270 46 LINE SMOOTH",
"278 18 OFFCURVE",
"280 4 OFFCURVE",
"280 -18 CURVE SMOOTH",
"280 -61 OFFCURVE",
"254 -75 OFFCURVE",
"228 -75 CURVE SMOOTH",
"213 -75 OFFCURVE",
"201 -74 OFFCURVE",
"189 -71 CURVE",
"189 -166 LINE",
"205 -169 OFFCURVE",
"220 -170 OFFCURVE",
"238 -170 CURVE SMOOTH"
);
}
);
};
layerId = "26058A5B-27B8-4A86-A50F-6474302A7C9F";
paths = (
{
closed = 1;
nodes = (
"334 -170 OFFCURVE",
"386 -115 OFFCURVE",
"386 -2 CURVE SMOOTH",
"386 700 LINE",
"288 700 LINE",
"288 304 LINE",
"286 304 LINE",
"179 700 LINE",
"41 700 LINE",
"41 0 LINE",
"139 0 LINE",
"139 523 LINE",
"141 523 LINE",
"270 46 LINE SMOOTH",
"278 18 OFFCURVE",
"280 4 OFFCURVE",
"280 -18 CURVE SMOOTH",
"280 -61 OFFCURVE",
"254 -75 OFFCURVE",
"228 -75 CURVE SMOOTH",
"213 -75 OFFCURVE",
"201 -74 OFFCURVE",
"189 -71 CURVE",
"189 -166 LINE",
"205 -169 OFFCURVE",
"220 -170 OFFCURVE",
"238 -170 CURVE SMOOTH"
);
}
);
width = 427;
}
);
unicode = 014A;
},
{
color = 0;
glyphname = O;
lastChange = "2018-02-05 23:46:58 +0000";
layers = (
{
anchors = (
{
name = bottom;
position = "{200, 0}";
},
{
name = center;
position = "{200, 350}";
},
{
name = ogonek;
position = "{359, 10}";
},
{
name = top;
position = "{200, 700}";
},
{
name = topleft;
position = "{21, 700}";
},
{
name = topright;
position = "{379, 700}";
}
);
background = {
anchors = (
{
name = bottom;
position = "{200, 0}";
},
{
name = center;
position = "{200, 350}";
},
{
name = ogonek;
position = "{359, 10}";
},
{
name = top;
position = "{200, 700}";
},
{
name = topleft;
position = "{21, 700}";
},
{
name = topright;
position = "{379, 700}";
}
);
paths = (
{
closed = 1;
nodes = (
"308 -10 OFFCURVE",
"367 54 OFFCURVE",
"367 166 CURVE SMOOTH",
"367 534 LINE SMOOTH",
"367 646 OFFCURVE",
"308 710 OFFCURVE",
"200 710 CURVE SMOOTH",
"92 710 OFFCURVE",
"33 646 OFFCURVE",
"33 534 CURVE SMOOTH",
"33 166 LINE SMOOTH",
"33 54 OFFCURVE",
"92 -10 OFFCURVE",
"200 -10 CURVE SMOOTH"
);
},
{
closed = 1;
nodes = (
"165 90 OFFCURVE",
"143 109 OFFCURVE",
"143 159 CURVE SMOOTH",
"143 541 LINE SMOOTH",
"143 591 OFFCURVE",
"165 610 OFFCURVE",
"200 610 CURVE SMOOTH",
"235 610 OFFCURVE",
"257 591 OFFCURVE",
"257 541 CURVE SMOOTH",
"257 159 LINE SMOOTH",
"257 109 OFFCURVE",
"235 90 OFFCURVE",
"200 90 CURVE SMOOTH"
);
}
);
};
layerId = "26058A5B-27B8-4A86-A50F-6474302A7C9F";
paths = (
{
closed = 1;
nodes = (
"308 -10 OFFCURVE",
"367 54 OFFCURVE",
"367 166 CURVE SMOOTH",
"367 534 LINE SMOOTH",
"367 646 OFFCURVE",
"308 710 OFFCURVE",
"200 710 CURVE SMOOTH",
"92 710 OFFCURVE",
"33 646 OFFCURVE",
"33 534 CURVE SMOOTH",
"33 166 LINE SMOOTH",
"33 54 OFFCURVE",
"92 -10 OFFCURVE",
"200 -10 CURVE SMOOTH"
);
},
{
closed = 1;
nodes = (
"165 90 OFFCURVE",
"143 109 OFFCURVE",
"143 159 CURVE SMOOTH",
"143 541 LINE SMOOTH",
"143 591 OFFCURVE",
"165 610 OFFCURVE",
"200 610 CURVE SMOOTH",
"235 610 OFFCURVE",
"257 591 OFFCURVE",
"257 541 CURVE SMOOTH",
"257 159 LINE SMOOTH",
"257 109 OFFCURVE",
"235 90 OFFCURVE",
"200 90 CURVE SMOOTH"
);
}
);
width = 400;
}
);
leftKerningGroup = O;
note = O;
rightKerningGroup = O;
unicode = 004F;
},
{
color = 0;
glyphname = OE;
lastChange = "2018-02-06 04:25:06 +0000";
layers = (
{
background = {
paths = (
{
closed = 1;
nodes = (
"555 0 LINE",
"555 100 LINE",
"365 100 LINE",
"365 315 LINE",
"516 315 LINE",
"516 415 LINE",
"365 415 LINE",
"365 600 LINE",
"555 600 LINE",
"555 700 LINE",
"195 700 LINE SMOOTH",
"85 700 OFFCURVE",
"31 639 OFFCURVE",
"31 527 CURVE SMOOTH",
"31 173 LINE SMOOTH",
"31 61 OFFCURVE",
"85 0 OFFCURVE",
"195 0 CURVE SMOOTH"
);
},
{
closed = 1;
nodes = (
"162 100 OFFCURVE",
"141 118 OFFCURVE",
"141 168 CURVE SMOOTH",
"141 532 LINE SMOOTH",
"141 582 OFFCURVE",
"162 600 OFFCURVE",
"197 600 CURVE SMOOTH",
"255 600 LINE",
"255 100 LINE",
"197 100 LINE SMOOTH"
);
}
);
};
layerId = "26058A5B-27B8-4A86-A50F-6474302A7C9F";
paths = (
{
closed = 1;
nodes = (
"555 0 LINE",
"555 100 LINE",
"365 100 LINE",
"365 315 LINE",
"516 315 LINE",
"516 415 LINE",
"365 415 LINE",
"365 600 LINE",
"555 600 LINE",
"555 700 LINE",
"197 700 LINE SMOOTH",
"87 700 OFFCURVE",
"33 639 OFFCURVE",
"33 527 CURVE SMOOTH",
"33 173 LINE SMOOTH",
"33 61 OFFCURVE",
"87 0 OFFCURVE",
"197 0 CURVE SMOOTH"
);
},
{
closed = 1;
nodes = (
"164 100 OFFCURVE",
"143 118 OFFCURVE",
"143 168 CURVE SMOOTH",
"143 532 LINE SMOOTH",
"143 582 OFFCURVE",
"164 600 OFFCURVE",
"199 600 CURVE SMOOTH",
"255 600 LINE",
"255 100 LINE",
"199 100 LINE SMOOTH"
);
}
);
width = 577;
}
);
leftKerningGroup = O;
note = OE;
rightKerningGroup = E;
rightMetricsKey = E;
unicode = 0152;
},
{
color = 0;
glyphname = P;
lastChange = "2018-02-06 00:21:41 +0000";
layers = (
{
anchors = (
{
name = bottom;
position = "{193, 0}";
},
{
name = top;
position = "{191, 700}";
}
);
background = {
anchors = (
{
name = bottom;
position = "{193, 0}";
},
{
name = top;
position = "{191, 700}";
}
);
paths = (
{
closed = 1;
nodes = (
"151 0 LINE",
"151 278 LINE",
"203 278 LINE SMOOTH",
"313 278 OFFCURVE",
"367 339 OFFCURVE",
"367 451 CURVE SMOOTH",
"367 527 LINE SMOOTH",
"367 639 OFFCURVE",
"313 700 OFFCURVE",
"203 700 CURVE SMOOTH",
"41 700 LINE",
"41 0 LINE"
);
},
{
closed = 1;
nodes = (
"151 600 LINE",
"203 600 LINE SMOOTH",
"238 600 OFFCURVE",
"257 584 OFFCURVE",
"257 534 CURVE SMOOTH",
"257 444 LINE SMOOTH",
"257 394 OFFCURVE",
"238 378 OFFCURVE",
"203 378 CURVE SMOOTH",
"151 378 LINE"
);
}
);
};
layerId = "26058A5B-27B8-4A86-A50F-6474302A7C9F";
paths = (
{
closed = 1;
nodes = (
"151 0 LINE",
"151 285 LINE",
"203 285 LINE SMOOTH",
"313 285 OFFCURVE",
"367 346 OFFCURVE",
"367 458 CURVE SMOOTH",
"367 527 LINE SMOOTH",
"367 639 OFFCURVE",
"313 700 OFFCURVE",
"203 700 CURVE SMOOTH",
"41 700 LINE",
"41 0 LINE"
);
},
{
closed = 1;
nodes = (
"151 600 LINE",
"203 600 LINE SMOOTH",
"238 600 OFFCURVE",
"257 584 OFFCURVE",
"257 534 CURVE SMOOTH",
"257 451 LINE SMOOTH",
"257 401 OFFCURVE",
"238 385 OFFCURVE",
"203 385 CURVE SMOOTH",
"151 385 LINE"
);
}
);
width = 386;
}
);
note = P;
rightKerningGroup = P;
unicode = 0050;
},
{
color = 0;
glyphname = Thorn;
lastChange = "2018-02-06 00:21:49 +0000";
layers = (
{
background = {
paths = (
{
closed = 1;
nodes = (
"151 0 LINE",
"151 183 LINE",
"203 183 LINE SMOOTH",
"313 183 OFFCURVE",
"367 244 OFFCURVE",
"367 356 CURVE SMOOTH",
"367 432 LINE SMOOTH",
"367 544 OFFCURVE",
"313 605 OFFCURVE",
"203 605 CURVE SMOOTH",
"151 605 LINE",
"151 700 LINE",
"41 700 LINE",
"41 0 LINE"
);
},
{
closed = 1;
nodes = (
"151 505 LINE",
"203 505 LINE SMOOTH",
"238 505 OFFCURVE",
"257 489 OFFCURVE",
"257 439 CURVE SMOOTH",
"257 349 LINE SMOOTH",
"257 299 OFFCURVE",
"238 283 OFFCURVE",
"203 283 CURVE SMOOTH",
"151 283 LINE"
);
}
);
};
layerId = "26058A5B-27B8-4A86-A50F-6474302A7C9F";
paths = (
{
closed = 1;
nodes = (
"151 0 LINE",
"151 186 LINE",
"203 186 LINE SMOOTH",
"313 186 OFFCURVE",
"367 247 OFFCURVE",
"367 359 CURVE SMOOTH",
"367 428 LINE SMOOTH",
"367 540 OFFCURVE",
"313 601 OFFCURVE",
"203 601 CURVE SMOOTH",
"151 601 LINE",
"151 700 LINE",
"41 700 LINE",
"41 0 LINE"
);
},
{
closed = 1;
nodes = (
"151 501 LINE",
"203 501 LINE SMOOTH",
"238 501 OFFCURVE",
"257 485 OFFCURVE",
"257 435 CURVE SMOOTH",
"257 352 LINE SMOOTH",
"257 302 OFFCURVE",
"238 286 OFFCURVE",
"203 286 CURVE SMOOTH",
"151 286 LINE"
);
}
);
width = 386;
}
);
note = Thorn;
unicode = 00DE;
},
{
color = 0;
glyphname = Q;
lastChange = "2018-02-05 23:47:14 +0000";
layers = (
{
background = {
paths = (
{
closed = 1;
nodes = (
"394 -65 LINE",
"394 35 LINE",
"377 35 LINE SMOOTH",
"357 35 OFFCURVE",
"344 37 OFFCURVE",
"336 51 CURVE",
"356 80 OFFCURVE",
"367 118 OFFCURVE",
"367 166 CURVE SMOOTH",
"367 534 LINE SMOOTH",
"367 646 OFFCURVE",
"308 710 OFFCURVE",
"200 710 CURVE SMOOTH",
"92 710 OFFCURVE",
"33 646 OFFCURVE",
"33 534 CURVE SMOOTH",
"33 166 LINE SMOOTH",
"33 54 OFFCURVE",
"92 -10 OFFCURVE",
"200 -10 CURVE SMOOTH",
"227 -10 OFFCURVE",
"252 -6 OFFCURVE",
"273 2 CURVE",
"286 -50 OFFCURVE",
"324 -65 OFFCURVE",
"365 -65 CURVE SMOOTH"
);
},
{
closed = 1;
nodes = (
"165 90 OFFCURVE",
"143 109 OFFCURVE",
"143 159 CURVE SMOOTH",
"143 541 LINE SMOOTH",
"143 591 OFFCURVE",
"165 610 OFFCURVE",
"200 610 CURVE SMOOTH",
"235 610 OFFCURVE",
"257 591 OFFCURVE",
"257 541 CURVE SMOOTH",
"257 159 LINE SMOOTH",
"257 109 OFFCURVE",
"235 90 OFFCURVE",
"200 90 CURVE SMOOTH"
);
}
);
};
layerId = "26058A5B-27B8-4A86-A50F-6474302A7C9F";
paths = (
{
closed = 1;
nodes = (
"394 -65 LINE",
"394 35 LINE",
"377 35 LINE SMOOTH",
"357 35 OFFCURVE",
"344 37 OFFCURVE",
"336 51 CURVE",
"356 80 OFFCURVE",
"367 118 OFFCURVE",
"367 166 CURVE SMOOTH",
"367 534 LINE SMOOTH",
"367 646 OFFCURVE",
"308 710 OFFCURVE",
"200 710 CURVE SMOOTH",
"92 710 OFFCURVE",
"33 646 OFFCURVE",
"33 534 CURVE SMOOTH",
"33 166 LINE SMOOTH",
"33 54 OFFCURVE",
"92 -10 OFFCURVE",
"200 -10 CURVE SMOOTH",
"227 -10 OFFCURVE",
"252 -6 OFFCURVE",
"273 2 CURVE",
"286 -50 OFFCURVE",
"324 -65 OFFCURVE",
"365 -65 CURVE SMOOTH"
);
},
{
closed = 1;
nodes = (
"165 90 OFFCURVE",
"143 109 OFFCURVE",
"143 159 CURVE SMOOTH",
"143 541 LINE SMOOTH",
"143 591 OFFCURVE",
"165 610 OFFCURVE",
"200 610 CURVE SMOOTH",
"235 610 OFFCURVE",
"257 591 OFFCURVE",
"257 541 CURVE SMOOTH",
"257 159 LINE SMOOTH",
"257 109 OFFCURVE",
"235 90 OFFCURVE",
"200 90 CURVE SMOOTH"
);
}
);
width = 400;
}
);
leftKerningGroup = O;
note = Q;
rightKerningGroup = O;
unicode = 0051;
},
{
color = 0;
glyphname = R;
lastChange = "2018-02-05 23:47:16 +0000";
layers = (
{
anchors = (
{
name = bottom;
position = "{203, 0}";
},
{
name = top;
position = "{193, 700}";
}
);
background = {
paths = (
{
closed = 1;
nodes = (
"383 0 LINE",
"372 26 OFFCURVE",
"371 51 OFFCURVE",
"371 85 CURVE SMOOTH",
"371 193 LINE SMOOTH",
"371 266 OFFCURVE",
"353 318 OFFCURVE",
"298 341 CURVE",
"298 343 LINE",
"347 366 OFFCURVE",
"370 412 OFFCURVE",
"370 484 CURVE SMOOTH",
"370 539 LINE SMOOTH",
"370 647 OFFCURVE",
"321 700 OFFCURVE",
"207 700 CURVE SMOOTH",
"41 700 LINE",
"41 0 LINE",
"151 0 LINE",
"151 285 LINE",
"189 285 LINE SMOOTH",
"239 285 OFFCURVE",
"261 261 OFFCURVE",
"261 196 CURVE SMOOTH",
"261 86 LINE SMOOTH",
"261 29 OFFCURVE",
"265 18 OFFCURVE",
"271 0 CURVE"
);
},
{
closed = 1;
nodes = (
"204 600 LINE SMOOTH",
"243 600 OFFCURVE",
"260 578 OFFCURVE",
"260 528 CURVE SMOOTH",
"260 459 LINE SMOOTH",
"260 403 OFFCURVE",
"235 385 OFFCURVE",
"194 385 CURVE SMOOTH",
"151 385 LINE",
"151 600 LINE"
);
}
);
};
layerId = "26058A5B-27B8-4A86-A50F-6474302A7C9F";
paths = (
{
closed = 1;
nodes = (
"151 0 LINE",
"151 300 LINE",
"189 300 LINE SMOOTH",
"239 300 OFFCURVE",
"258 279 OFFCURVE",
"258 214 CURVE SMOOTH",
"258 86 LINE SMOOTH",
"258 29 OFFCURVE",
"262 18 OFFCURVE",
"268 0 CURVE",
"380 0 LINE",
"369 26 OFFCURVE",
"368 51 OFFCURVE",
"368 85 CURVE SMOOTH",
"368 208 LINE SMOOTH",
"368 287 OFFCURVE",
"350 339 OFFCURVE",
"295 356 CURVE",
"295 358 LINE",
"344 378 OFFCURVE",
"367 424 OFFCURVE",
"367 496 CURVE SMOOTH",
"367 539 LINE SMOOTH",
"367 647 OFFCURVE",
"318 700 OFFCURVE",
"204 700 CURVE SMOOTH",
"41 700 LINE",
"41 0 LINE"
);
},
{
closed = 1;
nodes = (
"151 600 LINE",
"201 600 LINE SMOOTH",
"240 600 OFFCURVE",
"257 578 OFFCURVE",
"257 528 CURVE SMOOTH",
"257 474 LINE SMOOTH",
"257 418 OFFCURVE",
"232 400 OFFCURVE",
"191 400 CURVE SMOOTH",
"151 400 LINE"
);
}
);
width = 403;
}
);
note = R;
rightKerningGroup = R;
unicode = 0052;
},
{
color = 0;
glyphname = S;
lastChange = "2018-02-05 23:47:19 +0000";
layers = (
{
anchors = (
{
name = bottom;
position = "{186, 0}";
},
{
name = top;
position = "{186, 700}";
}
);
background = {
anchors = (
{
name = bottom;
position = "{186, 0}";
},
{
name = top;
position = "{186, 700}";
}
);
paths = (
{
closed = 1;
nodes = (
"292 -10 OFFCURVE",
"350 54 OFFCURVE",
"350 168 CURVE SMOOTH",
"350 255 OFFCURVE",
"321 311 OFFCURVE",
"229 392 CURVE SMOOTH",
"157 455 OFFCURVE",
"134 492 OFFCURVE",
"134 543 CURVE SMOOTH",
"134 591 OFFCURVE",
"154 610 OFFCURVE",
"189 610 CURVE SMOOTH",
"224 610 OFFCURVE",
"244 591 OFFCURVE",
"244 541 CURVE SMOOTH",
"244 505 LINE",
"348 505 LINE",
"348 534 LINE SMOOTH",
"348 646 OFFCURVE",
"295 710 OFFCURVE",
"188 710 CURVE SMOOTH",
"81 710 OFFCURVE",
"24 646 OFFCURVE",
"24 536 CURVE SMOOTH",
"24 456 OFFCURVE",
"54 399 OFFCURVE",
"146 318 CURVE SMOOTH",
"218 255 OFFCURVE",
"240 218 OFFCURVE",
"240 160 CURVE SMOOTH",
"240 108 OFFCURVE",
"218 90 OFFCURVE",
"183 90 CURVE SMOOTH",
"148 90 OFFCURVE",
"126 108 OFFCURVE",
"126 158 CURVE SMOOTH",
"126 206 LINE",
"22 206 LINE",
"22 166 LINE SMOOTH",
"22 54 OFFCURVE",
"76 -10 OFFCURVE",
"184 -10 CURVE SMOOTH"
);
}
);
};
layerId = "26058A5B-27B8-4A86-A50F-6474302A7C9F";
paths = (
{
closed = 1;
nodes = (
"292 -10 OFFCURVE",
"350 54 OFFCURVE",
"350 168 CURVE SMOOTH",
"350 255 OFFCURVE",
"321 311 OFFCURVE",
"229 392 CURVE SMOOTH",
"157 455 OFFCURVE",
"134 492 OFFCURVE",
"134 543 CURVE SMOOTH",
"134 591 OFFCURVE",
"154 610 OFFCURVE",
"189 610 CURVE SMOOTH",
"224 610 OFFCURVE",
"244 591 OFFCURVE",
"244 541 CURVE SMOOTH",
"244 505 LINE",
"348 505 LINE",
"348 534 LINE SMOOTH",
"348 646 OFFCURVE",
"295 710 OFFCURVE",
"188 710 CURVE SMOOTH",
"81 710 OFFCURVE",
"24 646 OFFCURVE",
"24 536 CURVE SMOOTH",
"24 456 OFFCURVE",
"54 399 OFFCURVE",
"146 318 CURVE SMOOTH",
"218 255 OFFCURVE",
"240 218 OFFCURVE",
"240 160 CURVE SMOOTH",
"240 108 OFFCURVE",
"218 90 OFFCURVE",
"183 90 CURVE SMOOTH",
"148 90 OFFCURVE",
"126 108 OFFCURVE",
"126 158 CURVE SMOOTH",
"126 206 LINE",
"22 206 LINE",
"22 166 LINE SMOOTH",
"22 54 OFFCURVE",
"76 -10 OFFCURVE",
"184 -10 CURVE SMOOTH"
);
}
);
width = 372;
}
);
leftKerningGroup = S;
note = S;
rightKerningGroup = S;
unicode = 0053;
},
{
color = 0;
glyphname = Germandbls;
lastChange = "2018-02-06 00:22:59 +0000";
layers = (
{
background = {
paths = (
{
closed = 1;
nodes = (
"151 0 LINE",
"151 600 LINE",
"265 600 LINE",
"192 408 LINE",
"192 315 LINE",
"219 315 LINE SMOOTH",
"254 315 OFFCURVE",
"273 299 OFFCURVE",
"273 249 CURVE SMOOTH",
"273 166 LINE SMOOTH",
"273 116 OFFCURVE",
"254 100 OFFCURVE",
"219 100 CURVE SMOOTH",
"192 100 LINE",
"192 0 LINE",
"219 0 LINE SMOOTH",
"329 0 OFFCURVE",
"383 61 OFFCURVE",
"383 173 CURVE SMOOTH",
"383 242 LINE SMOOTH",
"383 328 OFFCURVE",
"357 384 OFFCURVE",
"296 403 CURVE",
"373 602 LINE",
"373 700 LINE",
"41 700 LINE",
"41 0 LINE"
);
}
);
};
layerId = "26058A5B-27B8-4A86-A50F-6474302A7C9F";
paths = (
{
closed = 1;
nodes = (
"151 0 LINE",
"151 600 LINE",
"267 600 LINE",
"194 418 LINE",
"194 325 LINE",
"221 325 LINE SMOOTH",
"256 325 OFFCURVE",
"275 309 OFFCURVE",
"275 259 CURVE SMOOTH",
"275 166 LINE SMOOTH",
"275 116 OFFCURVE",
"256 100 OFFCURVE",
"221 100 CURVE SMOOTH",
"194 100 LINE",
"194 0 LINE",
"221 0 LINE SMOOTH",
"331 0 OFFCURVE",
"385 61 OFFCURVE",
"385 173 CURVE SMOOTH",
"385 252 LINE SMOOTH",
"385 338 OFFCURVE",
"359 394 OFFCURVE",
"298 413 CURVE",
"375 602 LINE",
"375 700 LINE",
"41 700 LINE",
"41 0 LINE"
);
}
);
width = 407;
}
);
rightKerningGroup = Germandbls;
unicode = 1E9E;
},
{
color = 0;
glyphname = T;
lastChange = "2018-02-05 23:47:25 +0000";
layers = (
{
anchors = (
{
name = bottom;
position = "{182, 0}";
},
{
name = center;
position = "{182, 350}";
},
{
name = top;
position = "{182, 700}";
}
);
background = {
anchors = (
{
name = bottom;
position = "{182, 0}";
},
{
name = center;
position = "{182, 350}";
},
{
name = top;
position = "{182, 700}";
}
);
paths = (
{
closed = 1;
nodes = (
"237 0 LINE",
"237 600 LINE",
"352 600 LINE",
"352 700 LINE",
"12 700 LINE",
"12 600 LINE",
"127 600 LINE",
"127 0 LINE"
);
}
);
};
layerId = "26058A5B-27B8-4A86-A50F-6474302A7C9F";
paths = (
{
closed = 1;
nodes = (
"237 0 LINE",
"237 600 LINE",
"352 600 LINE",
"352 700 LINE",
"12 700 LINE",
"12 600 LINE",
"127 600 LINE",
"127 0 LINE"
);
}
);
width = 364;
}
);
leftKerningGroup = T;
note = T;
rightKerningGroup = T;
unicode = 0054;
},
{
color = 5;
glyphname = Tbar;
lastChange = "2018-02-05 23:47:36 +0000";
layers = (
{
background = {
components = (
{
name = T;
}
);
paths = (
{
closed = 1;
nodes = (
"309 315 LINE",
"309 415 LINE",
"47 415 LINE",
"47 315 LINE"
);
}
);
};
components = (
{
name = T;
}
);
layerId = "26058A5B-27B8-4A86-A50F-6474302A7C9F";
paths = (
{
closed = 1;
nodes = (
"313 315 LINE",
"313 415 LINE",
"51 415 LINE",
"51 315 LINE"
);
}
);
width = 364;
}
);
leftKerningGroup = T;
note = Tbar;
rightKerningGroup = T;
unicode = 0166;
},
{
color = 0;
glyphname = U;
lastChange = "2018-02-05 23:47:43 +0000";
layers = (
{
anchors = (
{
name = bottom;
position = "{201, 0}";
},
{
name = ogonek;
position = "{297, 0}";
},
{
name = top;
position = "{201, 700}";
},
{
name = topright;
position = "{381, 700}";
}
);
background = {
anchors = (
{
name = bottom;
position = "{201, 0}";
},
{
name = ogonek;
position = "{297, 0}";
},
{
name = top;
position = "{201, 700}";
},
{
name = topright;
position = "{381, 700}";
}
);
paths = (
{
closed = 1;
nodes = (
"309 -10 OFFCURVE",
"365 54 OFFCURVE",
"365 166 CURVE SMOOTH",
"365 700 LINE",
"259 700 LINE",
"259 158 LINE SMOOTH",
"259 108 OFFCURVE",
"238 90 OFFCURVE",
"203 90 CURVE SMOOTH",
"168 90 OFFCURVE",
"147 108 OFFCURVE",
"147 158 CURVE SMOOTH",
"147 700 LINE",
"37 700 LINE",
"37 166 LINE SMOOTH",
"37 54 OFFCURVE",
"93 -10 OFFCURVE",
"201 -10 CURVE SMOOTH"
);
}
);
};
layerId = "26058A5B-27B8-4A86-A50F-6474302A7C9F";
paths = (
{
closed = 1;
nodes = (
"309 -10 OFFCURVE",
"365 54 OFFCURVE",
"365 166 CURVE SMOOTH",
"365 700 LINE",
"259 700 LINE",
"259 158 LINE SMOOTH",
"259 108 OFFCURVE",
"238 90 OFFCURVE",
"203 90 CURVE SMOOTH",
"168 90 OFFCURVE",
"147 108 OFFCURVE",
"147 158 CURVE SMOOTH",
"147 700 LINE",
"37 700 LINE",
"37 166 LINE SMOOTH",
"37 54 OFFCURVE",
"93 -10 OFFCURVE",
"201 -10 CURVE SMOOTH"
);
}
);
width = 402;
}
);
leftKerningGroup = U;
note = U;
rightKerningGroup = U;
unicode = 0055;
},
{
color = 0;
glyphname = V;
lastChange = "2018-02-05 23:47:48 +0000";
layers = (
{
anchors = (
{
name = bottom;
position = "{191, 0}";
},
{
name = top;
position = "{191, 700}";
}
);
background = {
anchors = (
{
name = bottom;
position = "{191, 0}";
},
{
name = top;
position = "{191, 700}";
}
);
paths = (
{
closed = 1;
nodes = (
"264 0 LINE",
"370 700 LINE",
"269 700 LINE",
"197 157 LINE",
"195 157 LINE",
"123 700 LINE",
"12 700 LINE",
"118 0 LINE"
);
}
);
};
layerId = "26058A5B-27B8-4A86-A50F-6474302A7C9F";
paths = (
{
closed = 1;
nodes = (
"264 0 LINE",
"370 700 LINE",
"269 700 LINE",
"197 157 LINE",
"195 157 LINE",
"123 700 LINE",
"12 700 LINE",
"118 0 LINE"
);
}
);
width = 382;
}
);
leftKerningGroup = V;
note = V;
rightKerningGroup = V;
unicode = 0056;
},
{
color = 0;
glyphname = W;
lastChange = "2018-02-05 23:47:50 +0000";
layers = (
{
anchors = (
{
name = bottom;
position = "{279, 0}";
},
{
name = top;
position = "{279, 700}";
}
);
background = {
anchors = (
{
name = bottom;
position = "{279, 0}";
},
{
name = top;
position = "{279, 700}";
}
);
paths = (
{
closed = 1;
nodes = (
"232 0 LINE",
"282 472 LINE",
"284 472 LINE",
"334 0 LINE",
"471 0 LINE",
"542 700 LINE",
"447 700 LINE",
"398 162 LINE",
"396 162 LINE",
"344 700 LINE",
"224 700 LINE",
"172 162 LINE",
"170 162 LINE",
"121 700 LINE",
"15 700 LINE",
"86 0 LINE"
);
}
);
};
layerId = "26058A5B-27B8-4A86-A50F-6474302A7C9F";
paths = (
{
closed = 1;
nodes = (
"232 0 LINE",
"282 472 LINE",
"284 472 LINE",
"334 0 LINE",
"471 0 LINE",
"542 700 LINE",
"447 700 LINE",
"398 162 LINE",
"396 162 LINE",
"344 700 LINE",
"224 700 LINE",
"172 162 LINE",
"170 162 LINE",
"121 700 LINE",
"15 700 LINE",
"86 0 LINE"
);
}
);
width = 557;
}
);
leftKerningGroup = W;
note = W;
rightKerningGroup = W;
unicode = 0057;
},
{
color = 0;
glyphname = X;
lastChange = "2018-02-05 23:47:52 +0000";
layers = (
{
anchors = (
{
name = bottom;
position = "{203, 0}";
},
{
name = top;
position = "{203, 700}";
}
);
background = {
anchors = (
{
name = bottom;
position = "{203, 0}";
},
{
name = top;
position = "{203, 700}";
}
);
paths = (
{
closed = 1;
nodes = (
"115 0 LINE",
"197 244 LINE",
"199 244 LINE",
"279 0 LINE",
"395 0 LINE",
"268 358 LINE",
"389 700 LINE",
"285 700 LINE",
"209 474 LINE",
"207 474 LINE",
"133 700 LINE",
"17 700 LINE",
"138 358 LINE",
"11 0 LINE"
);
}
);
};
layerId = "26058A5B-27B8-4A86-A50F-6474302A7C9F";
paths = (
{
closed = 1;
nodes = (
"115 0 LINE",
"197 244 LINE",
"199 244 LINE",
"279 0 LINE",
"395 0 LINE",
"268 358 LINE",
"389 700 LINE",
"285 700 LINE",
"209 474 LINE",
"207 474 LINE",
"133 700 LINE",
"17 700 LINE",
"138 358 LINE",
"11 0 LINE"
);
}
);
width = 406;
}
);
leftKerningGroup = X;
note = X;
rightKerningGroup = X;
unicode = 0058;
},
{
color = 0;
glyphname = Y;
lastChange = "2018-02-05 23:47:54 +0000";
layers = (
{
anchors = (
{
name = bottom;
position = "{197, 0}";
},
{
name = top;
position = "{197, 700}";
},
{
name = topleft;
position = "{20, 700}";
}
);
background = {
anchors = (
{
name = bottom;
position = "{197, 0}";
},
{
name = top;
position = "{197, 700}";
},
{
name = topleft;
position = "{20, 700}";
}
);
paths = (
{
closed = 1;
nodes = (
"252 0 LINE",
"252 298 LINE",
"385 700 LINE",
"278 700 LINE",
"203 443 LINE",
"201 443 LINE",
"126 700 LINE",
"9 700 LINE",
"142 298 LINE",
"142 0 LINE"
);
}
);
};
layerId = "26058A5B-27B8-4A86-A50F-6474302A7C9F";
paths = (
{
closed = 1;
nodes = (
"252 0 LINE",
"252 298 LINE",
"385 700 LINE",
"278 700 LINE",
"203 443 LINE",
"201 443 LINE",
"126 700 LINE",
"9 700 LINE",
"142 298 LINE",
"142 0 LINE"
);
}
);
width = 394;
}
);
leftKerningGroup = Y;
note = Y;
rightKerningGroup = Y;
unicode = 0059;
},
{
color = 0;
glyphname = Z;
lastChange = "2018-02-05 23:47:57 +0000";
layers = (
{
anchors = (
{
name = bottom;
position = "{181, 0}";
},
{
name = top;
position = "{185, 700}";
}
);
background = {
anchors = (
{
name = bottom;
position = "{181, 0}";
},
{
name = top;
position = "{185, 700}";
}
);
paths = (
{
closed = 1;
nodes = (
"341 0 LINE",
"341 100 LINE",
"137 100 LINE",
"341 602 LINE",
"341 700 LINE",
"29 700 LINE",
"29 600 LINE",
"223 600 LINE",
"19 98 LINE",
"19 0 LINE"
);
}
);
};
layerId = "26058A5B-27B8-4A86-A50F-6474302A7C9F";
paths = (
{
closed = 1;
nodes = (
"341 0 LINE",
"341 100 LINE",
"137 100 LINE",
"341 602 LINE",
"341 700 LINE",
"29 700 LINE",
"29 600 LINE",
"223 600 LINE",
"19 98 LINE",
"19 0 LINE"
);
}
);
width = 362;
}
);
leftKerningGroup = Z;
note = Z;
rightKerningGroup = Z;
unicode = 005A;
},
{
color = 0;
glyphname = ordfeminine;
lastChange = "2018-02-05 23:48:16 +0000";
layers = (
{
background = {
paths = (
{
closed = 1;
nodes = (
"139 333 OFFCURVE",
"162 351 OFFCURVE",
"178 386 CURVE",
"180 386 LINE",
"183 338 LINE",
"242 338 LINE",
"242 599 LINE SMOOTH",
"242 669 OFFCURVE",
"210 710 OFFCURVE",
"143 710 CURVE SMOOTH",
"72 710 OFFCURVE",
"42 669 OFFCURVE",
"42 599 CURVE SMOOTH",
"42 590 LINE",
"108 590 LINE",
"108 603 LINE SMOOTH",
"108 635 OFFCURVE",
"119 646 OFFCURVE",
"142 646 CURVE SMOOTH",
"162 646 OFFCURVE",
"172 635 OFFCURVE",
"172 609 CURVE SMOOTH",
"172 556 LINE",
"74 552 OFFCURVE",
"30 514 OFFCURVE",
"30 433 CURVE SMOOTH",
"30 429 LINE SMOOTH",
"30 368 OFFCURVE",
"56 333 OFFCURVE",
"108 333 CURVE SMOOTH"
);
},
{
closed = 1;
nodes = (
"242 214 LINE",
"242 282 LINE",
"30 282 LINE",
"30 214 LINE"
);
},
{
closed = 1;
nodes = (
"113 397 OFFCURVE",
"100 408 OFFCURVE",
"100 435 CURVE SMOOTH",
"100 444 LINE SMOOTH",
"100 483 OFFCURVE",
"123 502 OFFCURVE",
"172 504 CURVE",
"172 433 LINE",
"167 406 OFFCURVE",
"153 397 OFFCURVE",
"133 397 CURVE SMOOTH"
);
}
);
};
layerId = "26058A5B-27B8-4A86-A50F-6474302A7C9F";
paths = (
{
closed = 1;
nodes = (
"139 333 OFFCURVE",
"162 351 OFFCURVE",
"178 386 CURVE",
"180 386 LINE",
"183 338 LINE",
"242 338 LINE",
"242 599 LINE SMOOTH",
"242 669 OFFCURVE",
"210 710 OFFCURVE",
"143 710 CURVE SMOOTH",
"72 710 OFFCURVE",
"42 669 OFFCURVE",
"42 599 CURVE SMOOTH",
"42 590 LINE",
"108 590 LINE",
"108 603 LINE SMOOTH",
"108 635 OFFCURVE",
"119 646 OFFCURVE",
"142 646 CURVE SMOOTH",
"162 646 OFFCURVE",
"172 635 OFFCURVE",
"172 609 CURVE SMOOTH",
"172 556 LINE",
"74 552 OFFCURVE",
"30 514 OFFCURVE",
"30 433 CURVE SMOOTH",
"30 429 LINE SMOOTH",
"30 368 OFFCURVE",
"56 333 OFFCURVE",
"108 333 CURVE SMOOTH"
);
},
{
closed = 1;
nodes = (
"242 214 LINE",
"242 282 LINE",
"30 282 LINE",
"30 214 LINE"
);
},
{
closed = 1;
nodes = (
"113 397 OFFCURVE",
"100 408 OFFCURVE",
"100 435 CURVE SMOOTH",
"100 444 LINE SMOOTH",
"100 483 OFFCURVE",
"123 502 OFFCURVE",
"172 504 CURVE",
"172 433 LINE",
"167 406 OFFCURVE",
"153 397 OFFCURVE",
"133 397 CURVE SMOOTH"
);
}
);
width = 280;
}
);
leftKerningGroup = ordmasculine;
note = ordfeminine;
rightKerningGroup = ordmasculine;
unicode = 00AA;
},
{
color = 0;
glyphname = ordmasculine;
lastChange = "2018-02-05 23:48:16 +0000";
layers = (
{
background = {
paths = (
{
closed = 1;
nodes = (
"210 333 OFFCURVE",
"247 374 OFFCURVE",
"247 444 CURVE SMOOTH",
"247 599 LINE SMOOTH",
"247 669 OFFCURVE",
"210 710 OFFCURVE",
"141 710 CURVE SMOOTH",
"72 710 OFFCURVE",
"35 669 OFFCURVE",
"35 599 CURVE SMOOTH",
"35 444 LINE SMOOTH",
"35 374 OFFCURVE",
"72 333 OFFCURVE",
"141 333 CURVE SMOOTH"
);
},
{
closed = 1;
nodes = (
"247 214 LINE",
"247 282 LINE",
"35 282 LINE",
"35 214 LINE"
);
},
{
closed = 1;
nodes = (
"118 397 OFFCURVE",
"105 408 OFFCURVE",
"105 440 CURVE SMOOTH",
"105 603 LINE SMOOTH",
"105 635 OFFCURVE",
"118 646 OFFCURVE",
"141 646 CURVE SMOOTH",
"163 646 OFFCURVE",
"177 635 OFFCURVE",
"177 603 CURVE SMOOTH",
"177 440 LINE SMOOTH",
"177 408 OFFCURVE",
"163 397 OFFCURVE",
"141 397 CURVE SMOOTH"
);
}
);
};
layerId = "26058A5B-27B8-4A86-A50F-6474302A7C9F";
paths = (
{
closed = 1;
nodes = (
"210 333 OFFCURVE",
"247 374 OFFCURVE",
"247 444 CURVE SMOOTH",
"247 599 LINE SMOOTH",
"247 669 OFFCURVE",
"210 710 OFFCURVE",
"141 710 CURVE SMOOTH",
"72 710 OFFCURVE",
"35 669 OFFCURVE",
"35 599 CURVE SMOOTH",
"35 444 LINE SMOOTH",
"35 374 OFFCURVE",
"72 333 OFFCURVE",
"141 333 CURVE SMOOTH"
);
},
{
closed = 1;
nodes = (
"247 214 LINE",
"247 282 LINE",
"35 282 LINE",
"35 214 LINE"
);
},
{
closed = 1;
nodes = (
"118 397 OFFCURVE",
"105 408 OFFCURVE",
"105 440 CURVE SMOOTH",
"105 603 LINE SMOOTH",
"105 635 OFFCURVE",
"118 646 OFFCURVE",
"141 646 CURVE SMOOTH",
"163 646 OFFCURVE",
"177 635 OFFCURVE",
"177 603 CURVE SMOOTH",
"177 440 LINE SMOOTH",
"177 408 OFFCURVE",
"163 397 OFFCURVE",
"141 397 CURVE SMOOTH"
);
}
);
width = 282;
}
);
leftKerningGroup = ordmasculine;
note = ordmasculine;
rightKerningGroup = ordmasculine;
unicode = 00BA;
},
{
color = 0;
glyphname = Delta;
lastChange = "2018-02-05 23:48:20 +0000";
layers = (
{
background = {
paths = (
{
closed = 1;
nodes = (
"389 0 LINE",
"275 700 LINE",
"126 700 LINE",
"12 0 LINE"
);
},
{
closed = 1;
nodes = (
"195 568 LINE",
"197 568 LINE",
"264 100 LINE",
"128 100 LINE"
);
}
);
};
layerId = "26058A5B-27B8-4A86-A50F-6474302A7C9F";
paths = (
{
closed = 1;
nodes = (
"389 0 LINE",
"275 700 LINE",
"126 700 LINE",
"12 0 LINE"
);
},
{
closed = 1;
nodes = (
"195 568 LINE",
"197 568 LINE",
"264 100 LINE",
"128 100 LINE"
);
}
);
width = 401;
}
);
unicode = 0394;
},
{
color = 0;
glyphname = Omega;
lastChange = "2018-02-06 01:02:24 +0000";
layers = (
{
background = {
paths = (
{
closed = 1;
nodes = (
"185 0 LINE",
"185 100 LINE",
"157 148 OFFCURVE",
"144 188 OFFCURVE",
"144 251 CURVE SMOOTH",
"144 541 LINE SMOOTH",
"144 591 OFFCURVE",
"166 610 OFFCURVE",
"201 610 CURVE SMOOTH",
"236 610 OFFCURVE",
"258 591 OFFCURVE",
"258 541 CURVE SMOOTH",
"258 251 LINE SMOOTH",
"258 188 OFFCURVE",
"245 148 OFFCURVE",
"217 100 CURVE",
"217 0 LINE",
"368 0 LINE",
"368 100 LINE",
"298 100 LINE",
"298 102 LINE",
"344 154 OFFCURVE",
"368 207 OFFCURVE",
"368 298 CURVE SMOOTH",
"368 534 LINE SMOOTH",
"368 646 OFFCURVE",
"309 710 OFFCURVE",
"201 710 CURVE SMOOTH",
"93 710 OFFCURVE",
"34 646 OFFCURVE",
"34 534 CURVE SMOOTH",
"34 298 LINE SMOOTH",
"34 206 OFFCURVE",
"58 154 OFFCURVE",
"104 102 CURVE",
"104 100 LINE",
"34 100 LINE",
"34 0 LINE"
);
}
);
};
hints = (
{
horizontal = 1;
origin = "{0, 37}";
target = "{0, 36}";
type = Stem;
},
{
horizontal = 1;
origin = "{0, 27}";
target = "{0, 8}";
type = Stem;
},
{
origin = "{0, 37}";
target = "{0, 4}";
type = Stem;
},
{
origin = "{0, 12}";
target = "{0, 17}";
type = Stem;
}
);
layerId = "26058A5B-27B8-4A86-A50F-6474302A7C9F";
paths = (
{
closed = 1;
nodes = (
"185 0 LINE",
"185 100 LINE",
"152 158 OFFCURVE",
"144 208 OFFCURVE",
"144 291 CURVE SMOOTH",
"144 541 LINE SMOOTH",
"144 591 OFFCURVE",
"166 610 OFFCURVE",
"201 610 CURVE SMOOTH",
"236 610 OFFCURVE",
"258 591 OFFCURVE",
"258 541 CURVE SMOOTH",
"258 291 LINE SMOOTH",
"258 208 OFFCURVE",
"250 158 OFFCURVE",
"217 100 CURVE",
"217 0 LINE",
"368 0 LINE",
"368 100 LINE",
"288 100 LINE",
"288 102 LINE",
"344 164 OFFCURVE",
"368 227 OFFCURVE",
"368 338 CURVE SMOOTH",
"368 534 LINE SMOOTH",
"368 646 OFFCURVE",
"309 710 OFFCURVE",
"201 710 CURVE SMOOTH",
"93 710 OFFCURVE",
"34 646 OFFCURVE",
"34 534 CURVE SMOOTH",
"34 338 LINE SMOOTH",
"34 226 OFFCURVE",
"58 164 OFFCURVE",
"114 102 CURVE",
"114 100 LINE",
"34 100 LINE",
"34 0 LINE"
);
}
);
width = 402;
}
);
unicode = 03A9;
},
{
color = 0;
glyphname = mu;
lastChange = "2018-02-05 23:48:22 +0000";
layers = (
{
background = {
paths = (
{
closed = 1;
nodes = (
"151 -160 LINE",
"151 -4 LINE",
"175 -4 LINE SMOOTH",
"216 -4 OFFCURVE",
"251 17 OFFCURVE",
"271 52 CURVE",
"271 0 LINE",
"371 0 LINE",
"371 500 LINE",
"261 500 LINE",
"261 161 LINE SMOOTH",
"261 111 OFFCURVE",
"236 92 OFFCURVE",
"203 92 CURVE SMOOTH",
"170 92 OFFCURVE",
"151 109 OFFCURVE",
"151 149 CURVE SMOOTH",
"151 500 LINE",
"41 500 LINE",
"41 -160 LINE"
);
}
);
};
layerId = "26058A5B-27B8-4A86-A50F-6474302A7C9F";
paths = (
{
closed = 1;
nodes = (
"151 -160 LINE",
"151 -4 LINE",
"175 -4 LINE SMOOTH",
"216 -4 OFFCURVE",
"251 17 OFFCURVE",
"271 52 CURVE",
"271 0 LINE",
"371 0 LINE",
"371 500 LINE",
"261 500 LINE",
"261 161 LINE SMOOTH",
"261 111 OFFCURVE",
"236 92 OFFCURVE",
"203 92 CURVE SMOOTH",
"170 92 OFFCURVE",
"151 109 OFFCURVE",
"151 149 CURVE SMOOTH",
"151 500 LINE",
"41 500 LINE",
"41 -160 LINE"
);
}
);
width = 405;
}
);
unicode = 03BC;
},
{
color = 0;
glyphname = pi;
lastChange = "2018-02-05 23:48:23 +0000";
layers = (
{
background = {
paths = (
{
closed = 1;
nodes = (
"184 0 LINE",
"184 400 LINE",
"268 400 LINE",
"268 0 LINE",
"378 0 LINE",
"378 400 LINE",
"438 400 LINE",
"438 500 LINE",
"14 500 LINE",
"14 400 LINE",
"74 400 LINE",
"74 0 LINE"
);
}
);
};
layerId = "26058A5B-27B8-4A86-A50F-6474302A7C9F";
paths = (
{
closed = 1;
nodes = (
"184 0 LINE",
"184 400 LINE",
"268 400 LINE",
"268 0 LINE",
"378 0 LINE",
"378 400 LINE",
"438 400 LINE",
"438 500 LINE",
"14 500 LINE",
"14 400 LINE",
"74 400 LINE",
"74 0 LINE"
);
}
);
width = 452;
}
);
unicode = 03C0;
},
{
color = 0;
glyphname = zero;
lastChange = "2018-02-05 23:48:26 +0000";
layers = (
{
background = {
paths = (
{
closed = 1;
nodes = (
"308 -10 OFFCURVE",
"367 54 OFFCURVE",
"367 166 CURVE SMOOTH",
"367 534 LINE SMOOTH",
"367 646 OFFCURVE",
"308 710 OFFCURVE",
"200 710 CURVE SMOOTH",
"92 710 OFFCURVE",
"33 646 OFFCURVE",
"33 534 CURVE SMOOTH",
"33 166 LINE SMOOTH",
"33 54 OFFCURVE",
"92 -10 OFFCURVE",
"200 -10 CURVE SMOOTH"
);
},
{
closed = 1;
nodes = (
"165 90 OFFCURVE",
"143 109 OFFCURVE",
"143 159 CURVE SMOOTH",
"143 541 LINE SMOOTH",
"143 591 OFFCURVE",
"165 610 OFFCURVE",
"200 610 CURVE SMOOTH",
"235 610 OFFCURVE",
"257 591 OFFCURVE",
"257 541 CURVE SMOOTH",
"257 159 LINE SMOOTH",
"257 109 OFFCURVE",
"235 90 OFFCURVE",
"200 90 CURVE SMOOTH"
);
}
);
};
layerId = "26058A5B-27B8-4A86-A50F-6474302A7C9F";
paths = (
{
closed = 1;
nodes = (
"308 -10 OFFCURVE",
"367 54 OFFCURVE",
"367 166 CURVE SMOOTH",
"367 534 LINE SMOOTH",
"367 646 OFFCURVE",
"308 710 OFFCURVE",
"200 710 CURVE SMOOTH",
"92 710 OFFCURVE",
"33 646 OFFCURVE",
"33 534 CURVE SMOOTH",
"33 166 LINE SMOOTH",
"33 54 OFFCURVE",
"92 -10 OFFCURVE",
"200 -10 CURVE SMOOTH"
);
},
{
closed = 1;
nodes = (
"165 90 OFFCURVE",
"143 109 OFFCURVE",
"143 159 CURVE SMOOTH",
"143 541 LINE SMOOTH",
"143 591 OFFCURVE",
"165 610 OFFCURVE",
"200 610 CURVE SMOOTH",
"235 610 OFFCURVE",
"257 591 OFFCURVE",
"257 541 CURVE SMOOTH",
"257 159 LINE SMOOTH",
"257 109 OFFCURVE",
"235 90 OFFCURVE",
"200 90 CURVE SMOOTH"
);
}
);
width = 400;
}
);
note = zero;
unicode = 0030;
},
{
color = 0;
glyphname = one;
lastChange = "2018-02-05 23:48:27 +0000";
layers = (
{
background = {
paths = (
{
closed = 1;
nodes = (
"305 0 LINE",
"305 700 LINE",
"231 700 LINE",
"206 632 OFFCURVE",
"173 612 OFFCURVE",
"80 612 CURVE",
"80 534 LINE",
"195 534 LINE",
"195 0 LINE"
);
}
);
};
hints = (
{
horizontal = 1;
origin = "{0, 8}";
target = up;
type = BottomGhost;
},
{
horizontal = 1;
origin = "{0, 6}";
target = "{0, 5}";
type = Stem;
},
{
origin = "{0, 8}";
target = "{0, 0}";
type = Stem;
},
{
horizontal = 1;
origin = "{0, 2}";
target = down;
type = TopGhost;
}
);
layerId = "26058A5B-27B8-4A86-A50F-6474302A7C9F";
paths = (
{
closed = 1;
nodes = (
"305 0 LINE",
"305 700 LINE",
"231 700 LINE",
"206 632 OFFCURVE",
"173 612 OFFCURVE",
"80 612 CURVE",
"80 534 LINE",
"195 534 LINE",
"195 0 LINE"
);
}
);
width = 400;
}
);
note = one;
unicode = 0031;
},
{
color = 0;
glyphname = two;
lastChange = "2018-02-06 01:08:48 +0000";
layers = (
{
background = {
paths = (
{
closed = 1;
nodes = (
"357 0 LINE",
"357 100 LINE",
"148 100 LINE",
"148 115 LINE SMOOTH",
"148 164 OFFCURVE",
"165 199 OFFCURVE",
"231 269 CURVE SMOOTH",
"333 377 OFFCURVE",
"367 451 OFFCURVE",
"367 534 CURVE SMOOTH",
"367 646 OFFCURVE",
"311 710 OFFCURVE",
"203 710 CURVE SMOOTH",
"95 710 OFFCURVE",
"39 646 OFFCURVE",
"39 534 CURVE SMOOTH",
"39 466 LINE",
"143 466 LINE",
"143 541 LINE SMOOTH",
"143 591 OFFCURVE",
"165 610 OFFCURVE",
"200 610 CURVE SMOOTH",
"235 610 OFFCURVE",
"257 593 OFFCURVE",
"257 530 CURVE SMOOTH",
"257 465 OFFCURVE",
"233 412 OFFCURVE",
"149 323 CURVE SMOOTH",
"67 237 OFFCURVE",
"39 176 OFFCURVE",
"39 76 CURVE SMOOTH",
"39 0 LINE"
);
}
);
};
layerId = "26058A5B-27B8-4A86-A50F-6474302A7C9F";
paths = (
{
closed = 1;
nodes = (
"357 0 LINE",
"357 100 LINE",
"148 100 LINE",
"148 115 LINE SMOOTH",
"148 164 OFFCURVE",
"165 199 OFFCURVE",
"231 269 CURVE SMOOTH",
"333 377 OFFCURVE",
"367 451 OFFCURVE",
"367 534 CURVE SMOOTH",
"367 646 OFFCURVE",
"311 710 OFFCURVE",
"203 710 CURVE SMOOTH",
"95 710 OFFCURVE",
"39 646 OFFCURVE",
"39 534 CURVE SMOOTH",
"39 466 LINE",
"143 466 LINE",
"143 541 LINE SMOOTH",
"143 591 OFFCURVE",
"165 610 OFFCURVE",
"200 610 CURVE SMOOTH",
"235 610 OFFCURVE",
"257 593 OFFCURVE",
"257 530 CURVE SMOOTH",
"257 465 OFFCURVE",
"233 412 OFFCURVE",
"149 323 CURVE SMOOTH",
"67 237 OFFCURVE",
"39 176 OFFCURVE",
"39 76 CURVE SMOOTH",
"39 0 LINE"
);
}
);
width = 400;
}
);
note = two;
unicode = 0032;
},
{
color = 0;
glyphname = three;
lastChange = "2018-02-06 01:09:54 +0000";
layers = (
{
background = {
paths = (
{
closed = 1;
nodes = (
"305 -10 OFFCURVE",
"361 54 OFFCURVE",
"361 166 CURVE SMOOTH",
"361 218 LINE SMOOTH",
"361 289 OFFCURVE",
"339 340 OFFCURVE",
"280 364 CURVE",
"280 366 LINE",
"334 388 OFFCURVE",
"358 434 OFFCURVE",
"358 509 CURVE SMOOTH",
"358 534 LINE SMOOTH",
"358 646 OFFCURVE",
"302 710 OFFCURVE",
"197 710 CURVE SMOOTH",
"92 710 OFFCURVE",
"36 646 OFFCURVE",
"36 534 CURVE SMOOTH",
"36 494 LINE",
"140 494 LINE",
"140 545 LINE SMOOTH",
"140 591 OFFCURVE",
"161 610 OFFCURVE",
"193 610 CURVE SMOOTH",
"225 610 OFFCURVE",
"248 590 OFFCURVE",
"248 540 CURVE SMOOTH",
"248 484 LINE SMOOTH",
"248 428 OFFCURVE",
"223 410 OFFCURVE",
"182 410 CURVE SMOOTH",
"142 410 LINE",
"142 310 LINE",
"179 310 LINE SMOOTH",
"229 310 OFFCURVE",
"251 286 OFFCURVE",
"251 221 CURVE SMOOTH",
"251 169 LINE SMOOTH",
"251 107 OFFCURVE",
"229 90 OFFCURVE",
"194 90 CURVE SMOOTH",
"159 90 OFFCURVE",
"137 109 OFFCURVE",
"137 159 CURVE SMOOTH",
"137 221 LINE",
"33 221 LINE",
"33 166 LINE SMOOTH",
"33 54 OFFCURVE",
"89 -10 OFFCURVE",
"197 -10 CURVE SMOOTH"
);
}
);
};
layerId = "26058A5B-27B8-4A86-A50F-6474302A7C9F";
paths = (
{
closed = 1;
nodes = (
"305 -10 OFFCURVE",
"361 51 OFFCURVE",
"361 163 CURVE SMOOTH",
"361 225 LINE SMOOTH",
"361 296 OFFCURVE",
"339 347 OFFCURVE",
"280 369 CURVE",
"280 371 LINE",
"334 391 OFFCURVE",
"358 437 OFFCURVE",
"358 512 CURVE SMOOTH",
"358 537 LINE SMOOTH",
"358 649 OFFCURVE",
"302 710 OFFCURVE",
"197 710 CURVE SMOOTH",
"92 710 OFFCURVE",
"36 648 OFFCURVE",
"36 536 CURVE SMOOTH",
"36 499 LINE",
"140 499 LINE",
"140 545 LINE SMOOTH",
"140 591 OFFCURVE",
"161 610 OFFCURVE",
"193 610 CURVE SMOOTH",
"225 610 OFFCURVE",
"248 590 OFFCURVE",
"248 540 CURVE SMOOTH",
"248 489 LINE SMOOTH",
"248 433 OFFCURVE",
"223 415 OFFCURVE",
"182 415 CURVE SMOOTH",
"142 415 LINE",
"142 315 LINE",
"179 315 LINE SMOOTH",
"229 315 OFFCURVE",
"251 291 OFFCURVE",
"251 226 CURVE SMOOTH",
"251 169 LINE SMOOTH",
"251 107 OFFCURVE",
"229 90 OFFCURVE",
"194 90 CURVE SMOOTH",
"159 90 OFFCURVE",
"137 109 OFFCURVE",
"137 159 CURVE SMOOTH",
"137 221 LINE",
"33 221 LINE",
"33 164 LINE SMOOTH",
"33 52 OFFCURVE",
"89 -10 OFFCURVE",
"197 -10 CURVE SMOOTH"
);
}
);
width = 400;
}
);
note = three;
unicode = 0033;
},
{
color = 0;
glyphname = four;
lastChange = "2018-02-05 23:48:32 +0000";
layers = (
{
background = {
paths = (
{
closed = 1;
nodes = (
"335 0 LINE",
"335 127 LINE",
"387 127 LINE",
"387 227 LINE",
"335 227 LINE",
"335 700 LINE",
"215 700 LINE",
"15 227 LINE",
"15 127 LINE",
"225 127 LINE",
"225 0 LINE"
);
},
{
closed = 1;
nodes = (
"223 500 LINE",
"225 500 LINE",
"225 227 LINE",
"115 227 LINE"
);
}
);
};
layerId = "26058A5B-27B8-4A86-A50F-6474302A7C9F";
paths = (
{
closed = 1;
nodes = (
"335 0 LINE",
"335 127 LINE",
"387 127 LINE",
"387 227 LINE",
"335 227 LINE",
"335 700 LINE",
"215 700 LINE",
"15 227 LINE",
"15 127 LINE",
"225 127 LINE",
"225 0 LINE"
);
},
{
closed = 1;
nodes = (
"223 500 LINE",
"225 500 LINE",
"225 227 LINE",
"115 227 LINE"
);
}
);
width = 400;
}
);
note = four;
unicode = 0034;
},
{
color = 0;
glyphname = five;
lastChange = "2018-02-06 01:11:42 +0000";
layers = (
{
background = {
paths = (
{
closed = 1;
nodes = (
"37 226 LINE",
"37 168 LINE SMOOTH",
"37 56 OFFCURVE",
"93 -8 OFFCURVE",
"201 -8 CURVE SMOOTH",
"309 -8 OFFCURVE",
"365 56 OFFCURVE",
"365 168 CURVE SMOOTH",
"365 324 LINE SMOOTH",
"365 427 OFFCURVE",
"324 484 OFFCURVE",
"243 484 CURVE SMOOTH",
"199 484 OFFCURVE",
"168 466 OFFCURVE",
"148 433 CURVE",
"146 433 LINE",
"155 600 LINE",
"347 600 LINE",
"347 700 LINE",
"57 700 LINE",
"37 294 LINE",
"141 294 LINE",
"141 315 LINE SMOOTH",
"141 365 OFFCURVE",
"163 384 OFFCURVE",
"198 384 CURVE SMOOTH",
"233 384 OFFCURVE",
"255 365 OFFCURVE",
"255 315 CURVE SMOOTH",
"255 161 LINE SMOOTH",
"255 111 OFFCURVE",
"233 93 OFFCURVE",
"198 93 CURVE SMOOTH",
"163 93 OFFCURVE",
"141 111 OFFCURVE",
"141 161 CURVE SMOOTH",
"141 226 LINE"
);
}
);
};
layerId = "26058A5B-27B8-4A86-A50F-6474302A7C9F";
paths = (
{
closed = 1;
nodes = (
"310 -10 OFFCURVE",
"366 54 OFFCURVE",
"366 166 CURVE SMOOTH",
"366 324 LINE SMOOTH",
"366 427 OFFCURVE",
"325 484 OFFCURVE",
"244 484 CURVE SMOOTH",
"200 484 OFFCURVE",
"169 466 OFFCURVE",
"149 433 CURVE",
"147 433 LINE",
"156 600 LINE",
"348 600 LINE",
"348 700 LINE",
"58 700 LINE",
"38 309 LINE",
"142 309 LINE",
"142 315 LINE SMOOTH",
"142 365 OFFCURVE",
"164 384 OFFCURVE",
"199 384 CURVE SMOOTH",
"234 384 OFFCURVE",
"256 365 OFFCURVE",
"256 315 CURVE SMOOTH",
"256 158 LINE SMOOTH",
"256 108 OFFCURVE",
"234 90 OFFCURVE",
"199 90 CURVE SMOOTH",
"164 90 OFFCURVE",
"142 108 OFFCURVE",
"142 158 CURVE SMOOTH",
"142 221 LINE",
"38 221 LINE",
"38 166 LINE SMOOTH",
"38 54 OFFCURVE",
"94 -10 OFFCURVE",
"202 -10 CURVE SMOOTH"
);
}
);
width = 400;
}
);
note = five;
unicode = 0035;
},
{
color = 0;
glyphname = six;
lastChange = "2018-02-06 01:12:40 +0000";
layers = (
{
background = {
paths = (
{
closed = 1;
nodes = (
"311 -10 OFFCURVE",
"370 54 OFFCURVE",
"370 166 CURVE SMOOTH",
"370 291 LINE SMOOTH",
"370 394 OFFCURVE",
"329 451 OFFCURVE",
"248 451 CURVE SMOOTH",
"199 451 OFFCURVE",
"167 430 OFFCURVE",
"148 390 CURVE",
"146 390 LINE",
"146 524 LINE SMOOTH",
"146 591 OFFCURVE",
"168 610 OFFCURVE",
"207 610 CURVE SMOOTH",
"242 610 OFFCURVE",
"264 591 OFFCURVE",
"264 541 CURVE SMOOTH",
"264 521 LINE",
"368 521 LINE",
"368 534 LINE SMOOTH",
"368 646 OFFCURVE",
"312 710 OFFCURVE",
"204 710 CURVE SMOOTH",
"90 710 OFFCURVE",
"36 646 OFFCURVE",
"36 528 CURVE SMOOTH",
"36 166 LINE SMOOTH",
"36 54 OFFCURVE",
"95 -10 OFFCURVE",
"203 -10 CURVE SMOOTH"
);
},
{
closed = 1;
nodes = (
"165 90 OFFCURVE",
"146 112 OFFCURVE",
"146 158 CURVE SMOOTH",
"146 282 LINE SMOOTH",
"146 329 OFFCURVE",
"165 351 OFFCURVE",
"203 351 CURVE SMOOTH",
"241 351 OFFCURVE",
"260 329 OFFCURVE",
"260 282 CURVE SMOOTH",
"260 158 LINE SMOOTH",
"260 112 OFFCURVE",
"241 90 OFFCURVE",
"203 90 CURVE SMOOTH"
);
}
);
};
layerId = "26058A5B-27B8-4A86-A50F-6474302A7C9F";
paths = (
{
closed = 1;
nodes = (
"311 -10 OFFCURVE",
"370 54 OFFCURVE",
"370 166 CURVE SMOOTH",
"370 291 LINE SMOOTH",
"370 394 OFFCURVE",
"329 451 OFFCURVE",
"248 451 CURVE SMOOTH",
"199 451 OFFCURVE",
"167 430 OFFCURVE",
"148 390 CURVE",
"146 390 LINE",
"146 524 LINE SMOOTH",
"146 591 OFFCURVE",
"168 610 OFFCURVE",
"207 610 CURVE SMOOTH",
"242 610 OFFCURVE",
"264 591 OFFCURVE",
"264 541 CURVE SMOOTH",
"264 521 LINE",
"368 521 LINE",
"368 534 LINE SMOOTH",
"368 646 OFFCURVE",
"312 710 OFFCURVE",
"204 710 CURVE SMOOTH",
"90 710 OFFCURVE",
"36 646 OFFCURVE",
"36 528 CURVE SMOOTH",
"36 166 LINE SMOOTH",
"36 54 OFFCURVE",
"95 -10 OFFCURVE",
"203 -10 CURVE SMOOTH"
);
},
{
closed = 1;
nodes = (
"165 90 OFFCURVE",
"146 112 OFFCURVE",
"146 158 CURVE SMOOTH",
"146 282 LINE SMOOTH",
"146 329 OFFCURVE",
"165 351 OFFCURVE",
"203 351 CURVE SMOOTH",
"241 351 OFFCURVE",
"260 329 OFFCURVE",
"260 282 CURVE SMOOTH",
"260 158 LINE SMOOTH",
"260 112 OFFCURVE",
"241 90 OFFCURVE",
"203 90 CURVE SMOOTH"
);
}
);
width = 400;
}
);
note = six;
unicode = 0036;
},
{
color = 0;
glyphname = seven;
lastChange = "2018-02-05 23:48:35 +0000";
layers = (
{
background = {
paths = (
{
closed = 1;
nodes = (
"192 0 LINE",
"364 604 LINE",
"364 700 LINE",
"34 700 LINE",
"34 600 LINE",
"256 600 LINE",
"80 0 LINE"
);
}
);
};
layerId = "26058A5B-27B8-4A86-A50F-6474302A7C9F";
paths = (
{
closed = 1;
nodes = (
"192 0 LINE",
"364 604 LINE",
"364 700 LINE",
"34 700 LINE",
"34 600 LINE",
"256 600 LINE",
"80 0 LINE"
);
}
);
width = 400;
}
);
note = seven;
unicode = 0037;
},
{
color = 0;
glyphname = eight;
lastChange = "2018-02-06 00:07:29 +0000";
layers = (
{
background = {
paths = (
{
closed = 1;
nodes = (
"311 -10 OFFCURVE",
"372 54 OFFCURVE",
"372 166 CURVE SMOOTH",
"372 218 LINE SMOOTH",
"372 285 OFFCURVE",
"352 336 OFFCURVE",
"300 363 CURVE",
"300 365 LINE",
"345 390 OFFCURVE",
"368 436 OFFCURVE",
"368 505 CURVE SMOOTH",
"368 534 LINE SMOOTH",
"368 646 OFFCURVE",
"307 710 OFFCURVE",
"200 710 CURVE SMOOTH",
"93 710 OFFCURVE",
"32 646 OFFCURVE",
"32 534 CURVE SMOOTH",
"32 505 LINE SMOOTH",
"32 436 OFFCURVE",
"54 390 OFFCURVE",
"100 365 CURVE",
"100 363 LINE",
"48 336 OFFCURVE",
"28 285 OFFCURVE",
"28 218 CURVE SMOOTH",
"28 166 LINE SMOOTH",
"28 54 OFFCURVE",
"89 -10 OFFCURVE",
"200 -10 CURVE SMOOTH"
);
},
{
closed = 1;
nodes = (
"159 90 OFFCURVE",
"138 116 OFFCURVE",
"138 169 CURVE SMOOTH",
"138 231 LINE SMOOTH",
"138 284 OFFCURVE",
"159 310 OFFCURVE",
"200 310 CURVE SMOOTH",
"241 310 OFFCURVE",
"262 284 OFFCURVE",
"262 231 CURVE SMOOTH",
"262 169 LINE SMOOTH",
"262 116 OFFCURVE",
"241 90 OFFCURVE",
"200 90 CURVE SMOOTH"
);
},
{
closed = 1;
nodes = (
"162 410 OFFCURVE",
"142 434 OFFCURVE",
"142 480 CURVE SMOOTH",
"142 540 LINE SMOOTH",
"142 586 OFFCURVE",
"162 610 OFFCURVE",
"200 610 CURVE SMOOTH",
"238 610 OFFCURVE",
"258 586 OFFCURVE",
"258 540 CURVE SMOOTH",
"258 480 LINE SMOOTH",
"258 434 OFFCURVE",
"238 410 OFFCURVE",
"200 410 CURVE SMOOTH"
);
}
);
};
hints = (
{
origin = "{0, 26}";
target = "{1, 2}";
type = Stem;
},
{
origin = "{1, 10}";
target = "{0, 2}";
type = Stem;
},
{
horizontal = 1;
origin = "{0, 29}";
target = "{1, 13}";
type = Stem;
},
{
horizontal = 1;
origin = "{1, 6}";
target = "{2, 13}";
type = Stem;
},
{
horizontal = 1;
origin = "{0, 14}";
target = "{2, 6}";
type = Stem;
}
);
layerId = "26058A5B-27B8-4A86-A50F-6474302A7C9F";
paths = (
{
closed = 1;
nodes = (
"311 -10 OFFCURVE",
"372 51 OFFCURVE",
"372 163 CURVE SMOOTH",
"372 225 LINE SMOOTH",
"372 292 OFFCURVE",
"352 341 OFFCURVE",
"300 368 CURVE",
"300 370 LINE",
"345 395 OFFCURVE",
"368 439 OFFCURVE",
"368 508 CURVE SMOOTH",
"368 537 LINE SMOOTH",
"368 649 OFFCURVE",
"307 710 OFFCURVE",
"200 710 CURVE SMOOTH",
"93 710 OFFCURVE",
"32 649 OFFCURVE",
"32 537 CURVE SMOOTH",
"32 508 LINE SMOOTH",
"32 439 OFFCURVE",
"54 395 OFFCURVE",
"100 370 CURVE",
"100 368 LINE",
"48 341 OFFCURVE",
"28 292 OFFCURVE",
"28 225 CURVE SMOOTH",
"28 163 LINE SMOOTH",
"28 51 OFFCURVE",
"89 -10 OFFCURVE",
"200 -10 CURVE SMOOTH"
);
},
{
closed = 1;
nodes = (
"159 90 OFFCURVE",
"138 116 OFFCURVE",
"138 169 CURVE SMOOTH",
"138 236 LINE SMOOTH",
"138 289 OFFCURVE",
"159 315 OFFCURVE",
"200 315 CURVE SMOOTH",
"241 315 OFFCURVE",
"262 289 OFFCURVE",
"262 236 CURVE SMOOTH",
"262 169 LINE SMOOTH",
"262 116 OFFCURVE",
"241 90 OFFCURVE",
"200 90 CURVE SMOOTH"
);
},
{
closed = 1;
nodes = (
"162 415 OFFCURVE",
"142 439 OFFCURVE",
"142 485 CURVE SMOOTH",
"142 540 LINE SMOOTH",
"142 586 OFFCURVE",
"162 610 OFFCURVE",
"200 610 CURVE SMOOTH",
"238 610 OFFCURVE",
"258 586 OFFCURVE",
"258 540 CURVE SMOOTH",
"258 485 LINE SMOOTH",
"258 439 OFFCURVE",
"238 415 OFFCURVE",
"200 415 CURVE SMOOTH"
);
}
);
width = 400;
}
);
note = eight;
unicode = 0038;
},
{
color = 0;
glyphname = nine;
lastChange = "2018-02-06 01:14:19 +0000";
layers = (
{
background = {
paths = (
{
closed = 1;
nodes = (
"310 -10 OFFCURVE",
"364 54 OFFCURVE",
"364 172 CURVE SMOOTH",
"364 534 LINE SMOOTH",
"364 646 OFFCURVE",
"305 710 OFFCURVE",
"197 710 CURVE SMOOTH",
"89 710 OFFCURVE",
"30 646 OFFCURVE",
"30 534 CURVE SMOOTH",
"30 409 LINE SMOOTH",
"30 306 OFFCURVE",
"71 249 OFFCURVE",
"152 249 CURVE SMOOTH",
"201 249 OFFCURVE",
"233 270 OFFCURVE",
"252 310 CURVE",
"254 310 LINE",
"254 176 LINE SMOOTH",
"254 109 OFFCURVE",
"232 90 OFFCURVE",
"193 90 CURVE SMOOTH",
"158 90 OFFCURVE",
"136 109 OFFCURVE",
"136 159 CURVE SMOOTH",
"136 179 LINE",
"32 179 LINE",
"32 166 LINE SMOOTH",
"32 54 OFFCURVE",
"88 -10 OFFCURVE",
"196 -10 CURVE SMOOTH"
);
},
{
closed = 1;
nodes = (
"159 349 OFFCURVE",
"140 371 OFFCURVE",
"140 418 CURVE SMOOTH",
"140 542 LINE SMOOTH",
"140 588 OFFCURVE",
"159 610 OFFCURVE",
"197 610 CURVE SMOOTH",
"235 610 OFFCURVE",
"254 588 OFFCURVE",
"254 542 CURVE SMOOTH",
"254 418 LINE SMOOTH",
"254 371 OFFCURVE",
"235 349 OFFCURVE",
"197 349 CURVE SMOOTH"
);
}
);
};
layerId = "26058A5B-27B8-4A86-A50F-6474302A7C9F";
paths = (
{
closed = 1;
nodes = (
"310 -10 OFFCURVE",
"364 54 OFFCURVE",
"364 172 CURVE SMOOTH",
"364 534 LINE SMOOTH",
"364 646 OFFCURVE",
"305 710 OFFCURVE",
"197 710 CURVE SMOOTH",
"89 710 OFFCURVE",
"30 646 OFFCURVE",
"30 534 CURVE SMOOTH",
"30 409 LINE SMOOTH",
"30 306 OFFCURVE",
"71 249 OFFCURVE",
"152 249 CURVE SMOOTH",
"201 249 OFFCURVE",
"233 270 OFFCURVE",
"252 310 CURVE",
"254 310 LINE",
"254 176 LINE SMOOTH",
"254 109 OFFCURVE",
"232 90 OFFCURVE",
"193 90 CURVE SMOOTH",
"158 90 OFFCURVE",
"136 109 OFFCURVE",
"136 159 CURVE SMOOTH",
"136 179 LINE",
"32 179 LINE",
"32 166 LINE SMOOTH",
"32 54 OFFCURVE",
"88 -10 OFFCURVE",
"196 -10 CURVE SMOOTH"
);
},
{
closed = 1;
nodes = (
"159 349 OFFCURVE",
"140 371 OFFCURVE",
"140 418 CURVE SMOOTH",
"140 542 LINE SMOOTH",
"140 588 OFFCURVE",
"159 610 OFFCURVE",
"197 610 CURVE SMOOTH",
"235 610 OFFCURVE",
"254 588 OFFCURVE",
"254 542 CURVE SMOOTH",
"254 418 LINE SMOOTH",
"254 371 OFFCURVE",
"235 349 OFFCURVE",
"197 349 CURVE SMOOTH"
);
}
);
width = 400;
}
);
note = nine;
unicode = 0039;
},
{
color = 11;
export = 0;
glyphname = zero.mini;
lastChange = "2018-02-05 23:54:57 +0000";
layers = (
{
background = {
paths = (
{
closed = 1;
nodes = (
"210 -10 OFFCURVE",
"247 30 OFFCURVE",
"247 102 CURVE SMOOTH",
"247 342 LINE SMOOTH",
"247 414 OFFCURVE",
"210 454 OFFCURVE",
"141 454 CURVE SMOOTH",
"72 454 OFFCURVE",
"35 414 OFFCURVE",
"35 342 CURVE SMOOTH",
"35 102 LINE SMOOTH",
"35 30 OFFCURVE",
"72 -10 OFFCURVE",
"141 -10 CURVE SMOOTH"
);
},
{
closed = 1;
nodes = (
"118 53 OFFCURVE",
"105 66 OFFCURVE",
"105 97 CURVE SMOOTH",
"105 347 LINE SMOOTH",
"105 378 OFFCURVE",
"118 391 OFFCURVE",
"141 391 CURVE SMOOTH",
"163 391 OFFCURVE",
"177 378 OFFCURVE",
"177 347 CURVE SMOOTH",
"177 97 LINE SMOOTH",
"177 66 OFFCURVE",
"163 53 OFFCURVE",
"141 53 CURVE SMOOTH"
);
}
);
};
layerId = "26058A5B-27B8-4A86-A50F-6474302A7C9F";
paths = (
{
closed = 1;
nodes = (
"210 -10 OFFCURVE",
"247 30 OFFCURVE",
"247 102 CURVE SMOOTH",
"247 342 LINE SMOOTH",
"247 414 OFFCURVE",
"210 454 OFFCURVE",
"141 454 CURVE SMOOTH",
"72 454 OFFCURVE",
"35 414 OFFCURVE",
"35 342 CURVE SMOOTH",
"35 102 LINE SMOOTH",
"35 30 OFFCURVE",
"72 -10 OFFCURVE",
"141 -10 CURVE SMOOTH"
);
},
{
closed = 1;
nodes = (
"118 53 OFFCURVE",
"105 66 OFFCURVE",
"105 97 CURVE SMOOTH",
"105 347 LINE SMOOTH",
"105 378 OFFCURVE",
"118 391 OFFCURVE",
"141 391 CURVE SMOOTH",
"163 391 OFFCURVE",
"177 378 OFFCURVE",
"177 347 CURVE SMOOTH",
"177 97 LINE SMOOTH",
"177 66 OFFCURVE",
"163 53 OFFCURVE",
"141 53 CURVE SMOOTH"
);
}
);
width = 282;
}
);
note = zeroinferior;
},
{
color = 11;
export = 0;
glyphname = one.mini;
lastChange = "2018-02-05 23:54:58 +0000";
layers = (
{
background = {
paths = (
{
closed = 1;
nodes = (
"202 0 LINE",
"202 444 LINE",
"156 444 LINE",
"138 401 OFFCURVE",
"116 388 OFFCURVE",
"58 388 CURVE",
"58 339 LINE",
"132 339 LINE",
"132 0 LINE"
);
}
);
};
layerId = "26058A5B-27B8-4A86-A50F-6474302A7C9F";
paths = (
{
closed = 1;
nodes = (
"202 0 LINE",
"202 444 LINE",
"156 444 LINE",
"138 401 OFFCURVE",
"116 388 OFFCURVE",
"58 388 CURVE",
"58 339 LINE",
"132 339 LINE",
"132 0 LINE"
);
}
);
width = 282;
}
);
note = oneinferior;
},
{
color = 11;
export = 0;
glyphname = two.mini;
lastChange = "2018-02-06 01:14:32 +0000";
layers = (
{
background = {
paths = (
{
closed = 1;
nodes = (
"240 0 LINE",
"240 63 LINE",
"107 63 LINE",
"107 75 LINE SMOOTH",
"107 107 OFFCURVE",
"117 129 OFFCURVE",
"160 175 CURVE SMOOTH",
"225 244 OFFCURVE",
"246 290 OFFCURVE",
"246 346 CURVE SMOOTH",
"246 415 OFFCURVE",
"210 454 OFFCURVE",
"142 454 CURVE SMOOTH",
"74 454 OFFCURVE",
"38 415 OFFCURVE",
"38 343 CURVE SMOOTH",
"38 306 LINE",
"104 306 LINE",
"104 347 LINE SMOOTH",
"104 376 OFFCURVE",
"116 391 OFFCURVE",
"140 391 CURVE SMOOTH",
"165 391 OFFCURVE",
"176 376 OFFCURVE",
"176 344 CURVE SMOOTH",
"176 298 OFFCURVE",
"159 263 OFFCURVE",
"107 209 CURVE SMOOTH",
"54 153 OFFCURVE",
"38 114 OFFCURVE",
"38 50 CURVE SMOOTH",
"38 0 LINE"
);
}
);
};
layerId = "26058A5B-27B8-4A86-A50F-6474302A7C9F";
paths = (
{
closed = 1;
nodes = (
"240 0 LINE",
"240 63 LINE",
"107 63 LINE",
"107 75 LINE SMOOTH",
"107 107 OFFCURVE",
"117 129 OFFCURVE",
"160 175 CURVE SMOOTH",
"225 244 OFFCURVE",
"246 290 OFFCURVE",
"246 346 CURVE SMOOTH",
"246 415 OFFCURVE",
"210 454 OFFCURVE",
"142 454 CURVE SMOOTH",
"74 454 OFFCURVE",
"38 415 OFFCURVE",
"38 343 CURVE SMOOTH",
"38 306 LINE",
"104 306 LINE",
"104 347 LINE SMOOTH",
"104 376 OFFCURVE",
"116 391 OFFCURVE",
"140 391 CURVE SMOOTH",
"165 391 OFFCURVE",
"176 376 OFFCURVE",
"176 344 CURVE SMOOTH",
"176 298 OFFCURVE",
"159 263 OFFCURVE",
"107 209 CURVE SMOOTH",
"54 153 OFFCURVE",
"38 114 OFFCURVE",
"38 50 CURVE SMOOTH",
"38 0 LINE"
);
}
);
width = 282;
}
);
note = twoinferior;
},
{
color = 11;
export = 0;
glyphname = three.mini;
lastChange = "2018-02-06 01:14:41 +0000";
layers = (
{
background = {
paths = (
{
closed = 1;
nodes = (
"207 -10 OFFCURVE",
"242 30 OFFCURVE",
"242 102 CURVE SMOOTH",
"242 135 LINE SMOOTH",
"242 180 OFFCURVE",
"228 213 OFFCURVE",
"193 228 CURVE",
"193 230 LINE",
"227 245 OFFCURVE",
"242 273 OFFCURVE",
"242 319 CURVE SMOOTH",
"242 342 LINE SMOOTH",
"242 414 OFFCURVE",
"207 454 OFFCURVE",
"138 454 CURVE SMOOTH",
"69 454 OFFCURVE",
"34 414 OFFCURVE",
"34 342 CURVE SMOOTH",
"34 316 LINE",
"100 316 LINE",
"100 347 LINE SMOOTH",
"100 378 OFFCURVE",
"114 391 OFFCURVE",
"136 391 CURVE SMOOTH",
"158 391 OFFCURVE",
"172 380 OFFCURVE",
"172 340 CURVE SMOOTH",
"172 307 LINE SMOOTH",
"172 272 OFFCURVE",
"156 259 OFFCURVE",
"130 259 CURVE SMOOTH",
"103 259 LINE",
"103 196 LINE",
"127 196 LINE SMOOTH",
"158 196 OFFCURVE",
"172 182 OFFCURVE",
"172 140 CURVE SMOOTH",
"172 104 LINE SMOOTH",
"172 64 OFFCURVE",
"158 53 OFFCURVE",
"136 53 CURVE SMOOTH",
"114 53 OFFCURVE",
"100 66 OFFCURVE",
"100 97 CURVE SMOOTH",
"100 135 LINE",
"34 135 LINE",
"34 102 LINE SMOOTH",
"34 30 OFFCURVE",
"69 -10 OFFCURVE",
"138 -10 CURVE SMOOTH"
);
}
);
};
layerId = "26058A5B-27B8-4A86-A50F-6474302A7C9F";
paths = (
{
closed = 1;
nodes = (
"207 -10 OFFCURVE",
"242 30 OFFCURVE",
"242 102 CURVE SMOOTH",
"242 139 LINE SMOOTH",
"242 184 OFFCURVE",
"228 217 OFFCURVE",
"193 232 CURVE",
"193 234 LINE",
"227 249 OFFCURVE",
"242 277 OFFCURVE",
"242 323 CURVE SMOOTH",
"242 342 LINE SMOOTH",
"242 414 OFFCURVE",
"207 454 OFFCURVE",
"138 454 CURVE SMOOTH",
"69 454 OFFCURVE",
"34 414 OFFCURVE",
"34 342 CURVE SMOOTH",
"34 320 LINE",
"100 320 LINE",
"100 347 LINE SMOOTH",
"100 378 OFFCURVE",
"114 391 OFFCURVE",
"136 391 CURVE SMOOTH",
"158 391 OFFCURVE",
"172 380 OFFCURVE",
"172 340 CURVE SMOOTH",
"172 311 LINE SMOOTH",
"172 276 OFFCURVE",
"156 263 OFFCURVE",
"130 263 CURVE SMOOTH",
"103 263 LINE",
"103 200 LINE",
"127 200 LINE SMOOTH",
"158 200 OFFCURVE",
"172 186 OFFCURVE",
"172 144 CURVE SMOOTH",
"172 104 LINE SMOOTH",
"172 64 OFFCURVE",
"158 53 OFFCURVE",
"136 53 CURVE SMOOTH",
"114 53 OFFCURVE",
"100 66 OFFCURVE",
"100 97 CURVE SMOOTH",
"100 139 LINE",
"34 139 LINE",
"34 102 LINE SMOOTH",
"34 30 OFFCURVE",
"69 -10 OFFCURVE",
"138 -10 CURVE SMOOTH"
);
}
);
width = 282;
}
);
note = threeinferior;
},
{
color = 11;
export = 0;
glyphname = four.mini;
lastChange = "2018-02-05 23:55:02 +0000";
layers = (
{
background = {
paths = (
{
closed = 1;
nodes = (
"226 0 LINE",
"226 80 LINE",
"259 80 LINE",
"259 143 LINE",
"226 143 LINE",
"226 444 LINE",
"150 444 LINE",
"23 143 LINE",
"23 80 LINE",
"156 80 LINE",
"156 0 LINE"
);
},
{
closed = 1;
nodes = (
"155 318 LINE",
"157 318 LINE",
"157 143 LINE",
"86 143 LINE"
);
}
);
};
layerId = "26058A5B-27B8-4A86-A50F-6474302A7C9F";
paths = (
{
closed = 1;
nodes = (
"226 0 LINE",
"226 80 LINE",
"259 80 LINE",
"259 143 LINE",
"226 143 LINE",
"226 444 LINE",
"150 444 LINE",
"23 143 LINE",
"23 80 LINE",
"156 80 LINE",
"156 0 LINE"
);
},
{
closed = 1;
nodes = (
"155 318 LINE",
"157 318 LINE",
"157 143 LINE",
"86 143 LINE"
);
}
);
width = 282;
}
);
note = fourinferior;
},
{
color = 11;
export = 0;
glyphname = five.mini;
lastChange = "2018-02-06 01:24:23 +0000";
layers = (
{
background = {
paths = (
{
closed = 1;
nodes = (
"211 -10 OFFCURVE",
"246 31 OFFCURVE",
"246 102 CURVE SMOOTH",
"246 204 LINE SMOOTH",
"246 269 OFFCURVE",
"220 306 OFFCURVE",
"169 306 CURVE SMOOTH",
"141 306 OFFCURVE",
"121 294 OFFCURVE",
"109 273 CURVE",
"107 273 LINE",
"112 381 LINE",
"235 381 LINE",
"235 444 LINE",
"51 444 LINE",
"38 189 LINE",
"104 189 LINE",
"104 198 LINE SMOOTH",
"104 230 OFFCURVE",
"118 242 OFFCURVE",
"140 242 CURVE SMOOTH",
"162 242 OFFCURVE",
"176 230 OFFCURVE",
"176 198 CURVE SMOOTH",
"176 98 LINE SMOOTH",
"176 66 OFFCURVE",
"162 55 OFFCURVE",
"140 55 CURVE SMOOTH",
"118 55 OFFCURVE",
"104 66 OFFCURVE",
"104 98 CURVE SMOOTH",
"104 127 LINE",
"38 127 LINE",
"38 102 LINE SMOOTH",
"38 31 OFFCURVE",
"73 -10 OFFCURVE",
"142 -10 CURVE SMOOTH"
);
}
);
};
layerId = "26058A5B-27B8-4A86-A50F-6474302A7C9F";
paths = (
{
closed = 1;
nodes = (
"211 -10 OFFCURVE",
"246 31 OFFCURVE",
"246 102 CURVE SMOOTH",
"246 204 LINE SMOOTH",
"246 269 OFFCURVE",
"220 306 OFFCURVE",
"169 306 CURVE SMOOTH",
"141 306 OFFCURVE",
"121 294 OFFCURVE",
"109 273 CURVE",
"107 273 LINE",
"112 381 LINE",
"235 381 LINE",
"235 444 LINE",
"51 444 LINE",
"38 189 LINE",
"104 189 LINE",
"104 198 LINE SMOOTH",
"104 230 OFFCURVE",
"118 242 OFFCURVE",
"140 242 CURVE SMOOTH",
"162 242 OFFCURVE",
"176 230 OFFCURVE",
"176 198 CURVE SMOOTH",
"176 98 LINE SMOOTH",
"176 66 OFFCURVE",
"162 55 OFFCURVE",
"140 55 CURVE SMOOTH",
"118 55 OFFCURVE",
"104 66 OFFCURVE",
"104 98 CURVE SMOOTH",
"104 127 LINE",
"38 127 LINE",
"38 102 LINE SMOOTH",
"38 31 OFFCURVE",
"73 -10 OFFCURVE",
"142 -10 CURVE SMOOTH"
);
}
);
width = 282;
}
);
note = fiveinferior;
},
{
color = 11;
export = 0;
glyphname = six.mini;
lastChange = "2018-02-06 01:24:29 +0000";
layers = (
{
background = {
paths = (
{
closed = 1;
nodes = (
"212 -10 OFFCURVE",
"249 31 OFFCURVE",
"249 102 CURVE SMOOTH",
"249 181 LINE SMOOTH",
"249 246 OFFCURVE",
"223 282 OFFCURVE",
"172 282 CURVE SMOOTH",
"140 282 OFFCURVE",
"121 269 OFFCURVE",
"109 244 CURVE",
"107 244 LINE",
"107 336 LINE SMOOTH",
"107 379 OFFCURVE",
"121 391 OFFCURVE",
"146 391 CURVE SMOOTH",
"168 391 OFFCURVE",
"182 379 OFFCURVE",
"182 347 CURVE SMOOTH",
"182 336 LINE",
"248 336 LINE",
"248 342 LINE SMOOTH",
"248 413 OFFCURVE",
"212 454 OFFCURVE",
"144 454 CURVE SMOOTH",
"71 454 OFFCURVE",
"37 413 OFFCURVE",
"37 339 CURVE SMOOTH",
"37 102 LINE SMOOTH",
"37 31 OFFCURVE",
"74 -10 OFFCURVE",
"143 -10 CURVE SMOOTH"
);
},
{
closed = 1;
nodes = (
"121 53 OFFCURVE",
"107 64 OFFCURVE",
"107 96 CURVE SMOOTH",
"107 175 LINE SMOOTH",
"107 207 OFFCURVE",
"121 219 OFFCURVE",
"143 219 CURVE SMOOTH",
"165 219 OFFCURVE",
"179 207 OFFCURVE",
"179 175 CURVE SMOOTH",
"179 96 LINE SMOOTH",
"179 64 OFFCURVE",
"165 53 OFFCURVE",
"143 53 CURVE SMOOTH"
);
}
);
};
layerId = "26058A5B-27B8-4A86-A50F-6474302A7C9F";
paths = (
{
closed = 1;
nodes = (
"212 -10 OFFCURVE",
"249 31 OFFCURVE",
"249 102 CURVE SMOOTH",
"249 181 LINE SMOOTH",
"249 246 OFFCURVE",
"223 282 OFFCURVE",
"172 282 CURVE SMOOTH",
"140 282 OFFCURVE",
"121 269 OFFCURVE",
"109 244 CURVE",
"107 244 LINE",
"107 336 LINE SMOOTH",
"107 379 OFFCURVE",
"121 391 OFFCURVE",
"146 391 CURVE SMOOTH",
"168 391 OFFCURVE",
"182 379 OFFCURVE",
"182 347 CURVE SMOOTH",
"182 336 LINE",
"248 336 LINE",
"248 342 LINE SMOOTH",
"248 413 OFFCURVE",
"212 454 OFFCURVE",
"144 454 CURVE SMOOTH",
"71 454 OFFCURVE",
"37 413 OFFCURVE",
"37 339 CURVE SMOOTH",
"37 102 LINE SMOOTH",
"37 31 OFFCURVE",
"74 -10 OFFCURVE",
"143 -10 CURVE SMOOTH"
);
},
{
closed = 1;
nodes = (
"121 53 OFFCURVE",
"107 64 OFFCURVE",
"107 96 CURVE SMOOTH",
"107 175 LINE SMOOTH",
"107 207 OFFCURVE",
"121 219 OFFCURVE",
"143 219 CURVE SMOOTH",
"165 219 OFFCURVE",
"179 207 OFFCURVE",
"179 175 CURVE SMOOTH",
"179 96 LINE SMOOTH",
"179 64 OFFCURVE",
"165 53 OFFCURVE",
"143 53 CURVE SMOOTH"
);
}
);
width = 282;
}
);
note = sixinferior;
},
{
color = 11;
export = 0;
glyphname = seven.mini;
lastChange = "2018-02-05 23:55:05 +0000";
layers = (
{
background = {
paths = (
{
closed = 1;
nodes = (
"134 0 LINE",
"245 383 LINE",
"245 444 LINE",
"35 444 LINE",
"35 381 LINE",
"177 381 LINE",
"64 0 LINE"
);
}
);
};
layerId = "26058A5B-27B8-4A86-A50F-6474302A7C9F";
paths = (
{
closed = 1;
nodes = (
"134 0 LINE",
"245 383 LINE",
"245 444 LINE",
"35 444 LINE",
"35 381 LINE",
"177 381 LINE",
"64 0 LINE"
);
}
);
width = 282;
}
);
note = seveninferior;
},
{
color = 11;
export = 0;
glyphname = eight.mini;
lastChange = "2018-02-06 00:55:53 +0000";
layers = (
{
background = {
paths = (
{
closed = 1;
nodes = (
"250 141 LINE SMOOTH",
"250 184 OFFCURVE",
"237 216 OFFCURVE",
"207 233 CURVE",
"207 235 LINE",
"236 251 OFFCURVE",
"250 280 OFFCURVE",
"250 323 CURVE SMOOTH",
"250 337 LINE SMOOTH",
"250 408 OFFCURVE",
"211 449 OFFCURVE",
"141 449 CURVE SMOOTH",
"71 449 OFFCURVE",
"32 408 OFFCURVE",
"32 337 CURVE SMOOTH",
"32 323 LINE SMOOTH",
"32 280 OFFCURVE",
"46 251 OFFCURVE",
"75 235 CURVE",
"75 233 LINE",
"45 216 OFFCURVE",
"32 184 OFFCURVE",
"32 141 CURVE SMOOTH",
"32 107 LINE SMOOTH",
"32 36 OFFCURVE",
"71 -5 OFFCURVE",
"141 -5 CURVE SMOOTH",
"211 -5 OFFCURVE",
"250 36 OFFCURVE",
"250 107 CURVE SMOOTH"
);
},
{
closed = 1;
nodes = (
"102 150 LINE SMOOTH",
"102 185 OFFCURVE",
"116 200 OFFCURVE",
"141 200 CURVE SMOOTH",
"166 200 OFFCURVE",
"180 185 OFFCURVE",
"180 150 CURVE SMOOTH",
"180 108 LINE SMOOTH",
"180 69 OFFCURVE",
"163 58 OFFCURVE",
"141 58 CURVE SMOOTH",
"119 58 OFFCURVE",
"102 69 OFFCURVE",
"102 108 CURVE SMOOTH"
);
},
{
closed = 1;
nodes = (
"102 335 LINE SMOOTH",
"102 375 OFFCURVE",
"119 386 OFFCURVE",
"141 386 CURVE SMOOTH",
"163 386 OFFCURVE",
"180 375 OFFCURVE",
"180 335 CURVE SMOOTH",
"180 310 LINE SMOOTH",
"180 275 OFFCURVE",
"163 263 OFFCURVE",
"141 263 CURVE SMOOTH",
"118 263 OFFCURVE",
"102 275 OFFCURVE",
"102 310 CURVE SMOOTH"
);
}
);
};
hints = (
{
origin = "{0, 26}";
target = "{1, 2}";
type = Stem;
},
{
origin = "{1, 10}";
target = "{0, 2}";
type = Stem;
},
{
horizontal = 1;
origin = "{0, 29}";
target = "{1, 13}";
type = Stem;
},
{
horizontal = 1;
origin = "{1, 6}";
target = "{2, 13}";
type = Stem;
},
{
horizontal = 1;
origin = "{2, 6}";
target = "{0, 14}";
type = Stem;
}
);
layerId = "26058A5B-27B8-4A86-A50F-6474302A7C9F";
paths = (
{
closed = 1;
nodes = (
"211 -10 OFFCURVE",
"250 31 OFFCURVE",
"250 102 CURVE SMOOTH",
"250 137 LINE SMOOTH",
"250 180 OFFCURVE",
"237 212 OFFCURVE",
"207 229 CURVE",
"207 231 LINE",
"236 247 OFFCURVE",
"250 276 OFFCURVE",
"250 319 CURVE SMOOTH",
"250 342 LINE SMOOTH",
"250 413 OFFCURVE",
"211 454 OFFCURVE",
"141 454 CURVE SMOOTH",
"71 454 OFFCURVE",
"32 413 OFFCURVE",
"32 342 CURVE SMOOTH",
"32 319 LINE SMOOTH",
"32 276 OFFCURVE",
"46 247 OFFCURVE",
"75 231 CURVE",
"75 229 LINE",
"45 212 OFFCURVE",
"32 180 OFFCURVE",
"32 137 CURVE SMOOTH",
"32 102 LINE SMOOTH",
"32 31 OFFCURVE",
"71 -10 OFFCURVE",
"141 -10 CURVE SMOOTH"
);
},
{
closed = 1;
nodes = (
"115 53 OFFCURVE",
"102 69 OFFCURVE",
"102 103 CURVE SMOOTH",
"102 150 LINE SMOOTH",
"102 184 OFFCURVE",
"115 200 OFFCURVE",
"141 200 CURVE SMOOTH",
"167 200 OFFCURVE",
"180 184 OFFCURVE",
"180 150 CURVE SMOOTH",
"180 103 LINE SMOOTH",
"180 69 OFFCURVE",
"167 53 OFFCURVE",
"141 53 CURVE SMOOTH"
);
},
{
closed = 1;
nodes = (
"115 263 OFFCURVE",
"102 279 OFFCURVE",
"102 310 CURVE SMOOTH",
"102 344 LINE SMOOTH",
"102 375 OFFCURVE",
"115 391 OFFCURVE",
"141 391 CURVE SMOOTH",
"167 391 OFFCURVE",
"180 375 OFFCURVE",
"180 344 CURVE SMOOTH",
"180 310 LINE SMOOTH",
"180 279 OFFCURVE",
"167 263 OFFCURVE",
"141 263 CURVE SMOOTH"
);
}
);
width = 282;
}
);
note = eightinferior;
},
{
color = 11;
export = 0;
glyphname = nine.mini;
lastChange = "2018-02-06 01:24:40 +0000";
layers = (
{
background = {
paths = (
{
closed = 1;
nodes = (
"211 -10 OFFCURVE",
"245 31 OFFCURVE",
"245 105 CURVE SMOOTH",
"245 342 LINE SMOOTH",
"245 413 OFFCURVE",
"208 454 OFFCURVE",
"139 454 CURVE SMOOTH",
"70 454 OFFCURVE",
"33 413 OFFCURVE",
"33 342 CURVE SMOOTH",
"33 263 LINE SMOOTH",
"33 198 OFFCURVE",
"59 162 OFFCURVE",
"110 162 CURVE SMOOTH",
"142 162 OFFCURVE",
"161 175 OFFCURVE",
"173 200 CURVE",
"175 200 LINE",
"175 108 LINE SMOOTH",
"175 65 OFFCURVE",
"161 53 OFFCURVE",
"136 53 CURVE SMOOTH",
"114 53 OFFCURVE",
"100 65 OFFCURVE",
"100 97 CURVE SMOOTH",
"100 108 LINE",
"34 108 LINE",
"34 102 LINE SMOOTH",
"34 31 OFFCURVE",
"70 -10 OFFCURVE",
"138 -10 CURVE SMOOTH"
);
},
{
closed = 1;
nodes = (
"117 225 OFFCURVE",
"103 237 OFFCURVE",
"103 269 CURVE SMOOTH",
"103 348 LINE SMOOTH",
"103 380 OFFCURVE",
"117 391 OFFCURVE",
"139 391 CURVE SMOOTH",
"161 391 OFFCURVE",
"175 380 OFFCURVE",
"175 348 CURVE SMOOTH",
"175 269 LINE SMOOTH",
"175 237 OFFCURVE",
"161 225 OFFCURVE",
"139 225 CURVE SMOOTH"
);
}
);
};
layerId = "26058A5B-27B8-4A86-A50F-6474302A7C9F";
paths = (
{
closed = 1;
nodes = (
"211 -10 OFFCURVE",
"245 31 OFFCURVE",
"245 105 CURVE SMOOTH",
"245 342 LINE SMOOTH",
"245 413 OFFCURVE",
"208 454 OFFCURVE",
"139 454 CURVE SMOOTH",
"70 454 OFFCURVE",
"33 413 OFFCURVE",
"33 342 CURVE SMOOTH",
"33 263 LINE SMOOTH",
"33 198 OFFCURVE",
"59 162 OFFCURVE",
"110 162 CURVE SMOOTH",
"142 162 OFFCURVE",
"161 175 OFFCURVE",
"173 200 CURVE",
"175 200 LINE",
"175 108 LINE SMOOTH",
"175 65 OFFCURVE",
"161 53 OFFCURVE",
"136 53 CURVE SMOOTH",
"114 53 OFFCURVE",
"100 65 OFFCURVE",
"100 97 CURVE SMOOTH",
"100 108 LINE",
"34 108 LINE",
"34 102 LINE SMOOTH",
"34 31 OFFCURVE",
"70 -10 OFFCURVE",
"138 -10 CURVE SMOOTH"
);
},
{
closed = 1;
nodes = (
"117 225 OFFCURVE",
"103 237 OFFCURVE",
"103 269 CURVE SMOOTH",
"103 348 LINE SMOOTH",
"103 380 OFFCURVE",
"117 391 OFFCURVE",
"139 391 CURVE SMOOTH",
"161 391 OFFCURVE",
"175 380 OFFCURVE",
"175 348 CURVE SMOOTH",
"175 269 LINE SMOOTH",
"175 237 OFFCURVE",
"161 225 OFFCURVE",
"139 225 CURVE SMOOTH"
);
}
);
width = 282;
}
);
note = nineinferior;
},
{
color = 0;
glyphname = fraction;
lastChange = "2018-02-05 23:57:18 +0000";
layers = (
{
background = {
paths = (
{
closed = 1;
nodes = (
"-56 0 LINE",
"215 700 LINE",
"145 700 LINE",
"-126 0 LINE"
);
}
);
};
layerId = "26058A5B-27B8-4A86-A50F-6474302A7C9F";
paths = (
{
closed = 1;
nodes = (
"-56 0 LINE",
"215 700 LINE",
"145 700 LINE",
"-126 0 LINE"
);
}
);
width = 89;
}
);
note = fraction;
unicode = 2044;
},
{
color = 0;
glyphname = period;
lastChange = "2018-02-06 04:46:49 +0000";
layers = (
{
background = {
paths = (
{
closed = 1;
nodes = (
"147 0 LINE",
"147 106 LINE",
"41 106 LINE",
"41 0 LINE"
);
}
);
};
layerId = "26058A5B-27B8-4A86-A50F-6474302A7C9F";
paths = (
{
closed = 1;
nodes = (
"147 0 LINE",
"147 106 LINE",
"41 106 LINE",
"41 0 LINE"
);
}
);
width = 188;
}
);
leftKerningGroup = period;
note = period;
rightKerningGroup = period;
unicode = 002E;
},
{
color = 0;
glyphname = comma;
lastChange = "2018-02-05 23:57:39 +0000";
layers = (
{
background = {
paths = (
{
closed = 1;
nodes = (
"92 -120 LINE",
"147 11 LINE",
"147 106 LINE",
"41 106 LINE",
"41 0 LINE",
"77 0 LINE",
"41 -120 LINE"
);
}
);
};
layerId = "26058A5B-27B8-4A86-A50F-6474302A7C9F";
paths = (
{
closed = 1;
nodes = (
"92 -120 LINE",
"147 11 LINE",
"147 106 LINE",
"41 106 LINE",
"41 0 LINE",
"77 0 LINE",
"41 -120 LINE"
);
}
);
width = 188;
}
);
leftKerningGroup = period;
note = comma;
rightKerningGroup = period;
unicode = 002C;
},
{
color = 0;
glyphname = colon;
lastChange = "2018-02-05 23:57:36 +0000";
layers = (
{
background = {
paths = (
{
closed = 1;
nodes = (
"147 381 LINE",
"147 487 LINE",
"41 487 LINE",
"41 381 LINE"
);
},
{
closed = 1;
nodes = (
"147 0 LINE",
"147 106 LINE",
"41 106 LINE",
"41 0 LINE"
);
}
);
};
layerId = "26058A5B-27B8-4A86-A50F-6474302A7C9F";
paths = (
{
closed = 1;
nodes = (
"147 381 LINE",
"147 487 LINE",
"41 487 LINE",
"41 381 LINE"
);
},
{
closed = 1;
nodes = (
"147 0 LINE",
"147 106 LINE",
"41 106 LINE",
"41 0 LINE"
);
}
);
width = 188;
}
);
leftKerningGroup = colon;
note = colon;
rightKerningGroup = colon;
unicode = 003A;
},
{
color = 0;
glyphname = semicolon;
lastChange = "2018-02-05 23:58:05 +0000";
layers = (
{
background = {
paths = (
{
closed = 1;
nodes = (
"147 381 LINE",
"147 487 LINE",
"41 487 LINE",
"41 381 LINE"
);
},
{
closed = 1;
nodes = (
"86 -120 LINE",
"147 11 LINE",
"147 106 LINE",
"41 106 LINE",
"41 0 LINE",
"77 0 LINE",
"35 -120 LINE"
);
}
);
};
layerId = "26058A5B-27B8-4A86-A50F-6474302A7C9F";
paths = (
{
closed = 1;
nodes = (
"147 381 LINE",
"147 487 LINE",
"41 487 LINE",
"41 381 LINE"
);
},
{
closed = 1;
nodes = (
"86 -120 LINE",
"147 11 LINE",
"147 106 LINE",
"41 106 LINE",
"41 0 LINE",
"77 0 LINE",
"35 -120 LINE"
);
}
);
width = 188;
}
);
leftKerningGroup = colon;
note = semicolon;
rightKerningGroup = colon;
unicode = 003B;
},
{
color = 0;
glyphname = ellipsis;
lastChange = "2018-02-05 23:57:45 +0000";
layers = (
{
background = {
paths = (
{
closed = 1;
nodes = (
"469 0 LINE",
"469 106 LINE",
"363 106 LINE",
"363 0 LINE"
);
},
{
closed = 1;
nodes = (
"137 0 LINE",
"137 106 LINE",
"31 106 LINE",
"31 0 LINE"
);
},
{
closed = 1;
nodes = (
"303 0 LINE",
"303 106 LINE",
"197 106 LINE",
"197 0 LINE"
);
}
);
};
layerId = "26058A5B-27B8-4A86-A50F-6474302A7C9F";
paths = (
{
closed = 1;
nodes = (
"469 0 LINE",
"469 106 LINE",
"363 106 LINE",
"363 0 LINE"
);
},
{
closed = 1;
nodes = (
"137 0 LINE",
"137 106 LINE",
"31 106 LINE",
"31 0 LINE"
);
},
{
closed = 1;
nodes = (
"303 0 LINE",
"303 106 LINE",
"197 106 LINE",
"197 0 LINE"
);
}
);
width = 500;
}
);
leftKerningGroup = period;
note = ellipsis;
rightKerningGroup = period;
unicode = 2026;
},
{
color = 0;
glyphname = exclam;
lastChange = "2018-02-05 23:57:47 +0000";
layers = (
{
background = {
paths = (
{
closed = 1;
nodes = (
"146 185 LINE",
"160 408 LINE",
"160 700 LINE",
"50 700 LINE",
"50 408 LINE",
"64 185 LINE"
);
},
{
closed = 1;
nodes = (
"158 0 LINE",
"158 106 LINE",
"52 106 LINE",
"52 0 LINE"
);
}
);
};
layerId = "26058A5B-27B8-4A86-A50F-6474302A7C9F";
paths = (
{
closed = 1;
nodes = (
"146 185 LINE",
"160 408 LINE",
"160 700 LINE",
"50 700 LINE",
"50 408 LINE",
"64 185 LINE"
);
},
{
closed = 1;
nodes = (
"158 0 LINE",
"158 106 LINE",
"52 106 LINE",
"52 0 LINE"
);
}
);
width = 210;
}
);
note = exclam;
unicode = 0021;
},
{
color = 0;
glyphname = exclamdown;
lastChange = "2018-02-05 23:57:49 +0000";
layers = (
{
background = {
paths = (
{
closed = 1;
nodes = (
"160 0 LINE",
"160 292 LINE",
"146 515 LINE",
"64 515 LINE",
"50 292 LINE",
"50 0 LINE"
);
},
{
closed = 1;
nodes = (
"158 594 LINE",
"158 700 LINE",
"52 700 LINE",
"52 594 LINE"
);
}
);
};
layerId = "26058A5B-27B8-4A86-A50F-6474302A7C9F";
paths = (
{
closed = 1;
nodes = (
"160 0 LINE",
"160 292 LINE",
"146 515 LINE",
"64 515 LINE",
"50 292 LINE",
"50 0 LINE"
);
},
{
closed = 1;
nodes = (
"158 594 LINE",
"158 700 LINE",
"52 700 LINE",
"52 594 LINE"
);
}
);
width = 210;
}
);
note = exclamdown;
unicode = 00A1;
},
{
color = 0;
glyphname = question;
lastChange = "2018-02-06 01:32:13 +0000";
layers = (
{
background = {
paths = (
{
closed = 1;
nodes = (
"215 185 LINE",
"212 198 OFFCURVE",
"211 207 OFFCURVE",
"211 220 CURVE SMOOTH",
"211 255 OFFCURVE",
"226 289 OFFCURVE",
"269 347 CURVE SMOOTH",
"323 419 OFFCURVE",
"343 473 OFFCURVE",
"343 534 CURVE SMOOTH",
"343 646 OFFCURVE",
"288 710 OFFCURVE",
"181 710 CURVE SMOOTH",
"74 710 OFFCURVE",
"19 646 OFFCURVE",
"19 534 CURVE SMOOTH",
"19 465 LINE",
"123 465 LINE",
"123 541 LINE SMOOTH",
"123 591 OFFCURVE",
"143 610 OFFCURVE",
"178 610 CURVE SMOOTH",
"213 610 OFFCURVE",
"233 591 OFFCURVE",
"233 541 CURVE SMOOTH",
"233 488 OFFCURVE",
"219 442 OFFCURVE",
"170 372 CURVE SMOOTH",
"127 311 OFFCURVE",
"115 270 OFFCURVE",
"115 224 CURVE SMOOTH",
"115 206 OFFCURVE",
"117 197 OFFCURVE",
"121 185 CURVE"
);
},
{
closed = 1;
nodes = (
"220 0 LINE",
"220 106 LINE",
"114 106 LINE",
"114 0 LINE"
);
}
);
};
layerId = "26058A5B-27B8-4A86-A50F-6474302A7C9F";
paths = (
{
closed = 1;
nodes = (
"213 185 LINE",
"213 223 LINE SMOOTH",
"213 258 OFFCURVE",
"227 292 OFFCURVE",
"270 350 CURVE SMOOTH",
"324 422 OFFCURVE",
"343 473 OFFCURVE",
"343 534 CURVE SMOOTH",
"343 646 OFFCURVE",
"287 710 OFFCURVE",
"180 710 CURVE SMOOTH",
"73 710 OFFCURVE",
"19 646 OFFCURVE",
"19 534 CURVE SMOOTH",
"19 465 LINE",
"123 465 LINE",
"123 541 LINE SMOOTH",
"123 591 OFFCURVE",
"143 610 OFFCURVE",
"178 610 CURVE SMOOTH",
"213 610 OFFCURVE",
"233 591 OFFCURVE",
"233 541 CURVE SMOOTH",
"233 488 OFFCURVE",
"220 445 OFFCURVE",
"171 375 CURVE SMOOTH",
"128 314 OFFCURVE",
"117 273 OFFCURVE",
"117 227 CURVE SMOOTH",
"117 185 LINE"
);
},
{
closed = 1;
nodes = (
"218 0 LINE",
"218 106 LINE",
"112 106 LINE",
"112 0 LINE"
);
}
);
width = 363;
}
);
note = question;
unicode = 003F;
},
{
color = 0;
glyphname = questiondown;
lastChange = "2018-02-06 01:32:28 +0000";
layers = (
{
background = {
paths = (
{
closed = 1;
nodes = (
"289 -10 OFFCURVE",
"344 54 OFFCURVE",
"344 166 CURVE SMOOTH",
"344 235 LINE",
"240 235 LINE",
"240 159 LINE SMOOTH",
"240 109 OFFCURVE",
"220 90 OFFCURVE",
"185 90 CURVE SMOOTH",
"150 90 OFFCURVE",
"130 109 OFFCURVE",
"130 159 CURVE SMOOTH",
"130 212 OFFCURVE",
"144 258 OFFCURVE",
"193 328 CURVE SMOOTH",
"236 389 OFFCURVE",
"248 430 OFFCURVE",
"248 476 CURVE SMOOTH",
"248 494 OFFCURVE",
"246 503 OFFCURVE",
"242 515 CURVE",
"148 515 LINE",
"151 502 OFFCURVE",
"152 493 OFFCURVE",
"152 480 CURVE SMOOTH",
"152 445 OFFCURVE",
"137 411 OFFCURVE",
"94 353 CURVE SMOOTH",
"40 281 OFFCURVE",
"20 227 OFFCURVE",
"20 166 CURVE SMOOTH",
"20 54 OFFCURVE",
"75 -10 OFFCURVE",
"182 -10 CURVE SMOOTH"
);
},
{
closed = 1;
nodes = (
"249 594 LINE",
"249 700 LINE",
"143 700 LINE",
"143 594 LINE"
);
}
);
};
layerId = "26058A5B-27B8-4A86-A50F-6474302A7C9F";
paths = (
{
closed = 1;
nodes = (
"150 515 LINE",
"150 477 LINE SMOOTH",
"150 442 OFFCURVE",
"136 408 OFFCURVE",
"93 350 CURVE SMOOTH",
"39 278 OFFCURVE",
"20 227 OFFCURVE",
"20 166 CURVE SMOOTH",
"20 54 OFFCURVE",
"76 -10 OFFCURVE",
"183 -10 CURVE SMOOTH",
"290 -10 OFFCURVE",
"344 54 OFFCURVE",
"344 166 CURVE SMOOTH",
"344 235 LINE",
"240 235 LINE",
"240 159 LINE SMOOTH",
"240 109 OFFCURVE",
"220 90 OFFCURVE",
"185 90 CURVE SMOOTH",
"150 90 OFFCURVE",
"130 109 OFFCURVE",
"130 159 CURVE SMOOTH",
"130 212 OFFCURVE",
"143 255 OFFCURVE",
"192 325 CURVE SMOOTH",
"235 386 OFFCURVE",
"246 427 OFFCURVE",
"246 473 CURVE SMOOTH",
"246 515 LINE"
);
},
{
closed = 1;
nodes = (
"145 700 LINE",
"145 594 LINE",
"251 594 LINE",
"251 700 LINE"
);
}
);
width = 363;
}
);
note = questiondown;
unicode = 00BF;
},
{
color = 0;
glyphname = periodcentered;
lastChange = "2018-02-05 23:57:30 +0000";
layers = (
{
background = {
paths = (
{
closed = 1;
nodes = (
"147 297 LINE",
"147 403 LINE",
"41 403 LINE",
"41 297 LINE"
);
}
);
};
layerId = "26058A5B-27B8-4A86-A50F-6474302A7C9F";
paths = (
{
closed = 1;
nodes = (
"147 297 LINE",
"147 403 LINE",
"41 403 LINE",
"41 297 LINE"
);
}
);
width = 188;
}
);
leftKerningGroup = periodcentered;
note = periodcentered;
rightKerningGroup = periodcentered;
unicode = 00B7;
},
{
color = 0;
glyphname = bullet;
lastChange = "2018-02-05 23:08:31 +0000";
layers = (
{
background = {
paths = (
{
closed = 1;
nodes = (
"214 235 OFFCURVE",
"265 286 OFFCURVE",
"265 350 CURVE SMOOTH",
"265 414 OFFCURVE",
"214 465 OFFCURVE",
"150 465 CURVE SMOOTH",
"86 465 OFFCURVE",
"35 414 OFFCURVE",
"35 350 CURVE SMOOTH",
"35 286 OFFCURVE",
"86 235 OFFCURVE",
"150 235 CURVE SMOOTH"
);
}
);
};
layerId = "26058A5B-27B8-4A86-A50F-6474302A7C9F";
paths = (
{
closed = 1;
nodes = (
"214 235 OFFCURVE",
"265 286 OFFCURVE",
"265 350 CURVE SMOOTH",
"265 414 OFFCURVE",
"214 465 OFFCURVE",
"150 465 CURVE SMOOTH",
"86 465 OFFCURVE",
"35 414 OFFCURVE",
"35 350 CURVE SMOOTH",
"35 286 OFFCURVE",
"86 235 OFFCURVE",
"150 235 CURVE SMOOTH"
);
}
);
width = 300;
}
);
note = bullet;
unicode = 2022;
},
{
color = 0;
glyphname = asterisk;
lastChange = "2018-02-05 23:57:22 +0000";
layers = (
{
background = {
paths = (
{
closed = 1;
nodes = (
"211 462 LINE",
"288 327 LINE",
"360 380 LINE",
"254 492 LINE",
"407 525 LINE",
"379 610 LINE",
"236 542 LINE",
"256 700 LINE",
"166 700 LINE",
"186 542 LINE",
"43 610 LINE",
"15 525 LINE",
"168 492 LINE",
"62 380 LINE",
"134 327 LINE"
);
}
);
};
layerId = "26058A5B-27B8-4A86-A50F-6474302A7C9F";
paths = (
{
closed = 1;
nodes = (
"211 462 LINE",
"288 327 LINE",
"360 380 LINE",
"254 492 LINE",
"407 525 LINE",
"379 610 LINE",
"236 542 LINE",
"256 700 LINE",
"166 700 LINE",
"186 542 LINE",
"43 610 LINE",
"15 525 LINE",
"168 492 LINE",
"62 380 LINE",
"134 327 LINE"
);
}
);
width = 422;
}
);
note = asterisk;
unicode = 002A;
},
{
color = 0;
glyphname = numbersign;
lastChange = "2018-02-05 23:57:52 +0000";
layers = (
{
background = {
paths = (
{
closed = 1;
nodes = (
"131 0 LINE",
"152 200 LINE",
"223 200 LINE",
"202 0 LINE",
"289 0 LINE",
"310 200 LINE",
"361 200 LINE",
"369 278 LINE",
"318 278 LINE",
"337 461 LINE",
"388 461 LINE",
"396 539 LINE",
"345 539 LINE",
"362 700 LINE",
"275 700 LINE",
"258 539 LINE",
"187 539 LINE",
"204 700 LINE",
"117 700 LINE",
"100 539 LINE",
"50 539 LINE",
"42 461 LINE",
"92 461 LINE",
"73 278 LINE",
"24 278 LINE",
"16 200 LINE",
"65 200 LINE",
"44 0 LINE"
);
},
{
closed = 1;
nodes = (
"179 461 LINE",
"250 461 LINE",
"231 278 LINE",
"160 278 LINE"
);
}
);
};
layerId = "26058A5B-27B8-4A86-A50F-6474302A7C9F";
paths = (
{
closed = 1;
nodes = (
"131 0 LINE",
"152 200 LINE",
"223 200 LINE",
"202 0 LINE",
"289 0 LINE",
"310 200 LINE",
"361 200 LINE",
"369 278 LINE",
"318 278 LINE",
"337 461 LINE",
"388 461 LINE",
"396 539 LINE",
"345 539 LINE",
"362 700 LINE",
"275 700 LINE",
"258 539 LINE",
"187 539 LINE",
"204 700 LINE",
"117 700 LINE",
"100 539 LINE",
"50 539 LINE",
"42 461 LINE",
"92 461 LINE",
"73 278 LINE",
"24 278 LINE",
"16 200 LINE",
"65 200 LINE",
"44 0 LINE"
);
},
{
closed = 1;
nodes = (
"179 461 LINE",
"250 461 LINE",
"231 278 LINE",
"160 278 LINE"
);
}
);
width = 412;
}
);
note = numbersign;
unicode = 0023;
},
{
color = 0;
glyphname = slash;
lastChange = "2018-02-05 23:58:12 +0000";
layers = (
{
background = {
paths = (
{
closed = 1;
nodes = (
"104 0 LINE",
"380 700 LINE",
"285 700 LINE",
"9 0 LINE"
);
}
);
};
layerId = "26058A5B-27B8-4A86-A50F-6474302A7C9F";
paths = (
{
closed = 1;
nodes = (
"104 0 LINE",
"380 700 LINE",
"285 700 LINE",
"9 0 LINE"
);
}
);
width = 389;
}
);
note = slash;
unicode = 002F;
},
{
color = 0;
glyphname = backslash;
lastChange = "2018-02-05 23:57:23 +0000";
layers = (
{
background = {
paths = (
{
closed = 1;
nodes = (
"380 0 LINE",
"104 700 LINE",
"9 700 LINE",
"285 0 LINE"
);
}
);
};
layerId = "26058A5B-27B8-4A86-A50F-6474302A7C9F";
paths = (
{
closed = 1;
nodes = (
"380 0 LINE",
"104 700 LINE",
"9 700 LINE",
"285 0 LINE"
);
}
);
width = 389;
}
);
note = backslash;
unicode = 005C;
},
{
color = 0;
glyphname = parenleft;
lastChange = "2018-02-05 23:58:33 +0000";
layers = (
{
background = {
paths = (
{
closed = 1;
nodes = (
"241 -50 LINE",
"241 40 LINE",
"214 40 LINE SMOOTH",
"179 40 OFFCURVE",
"163 53 OFFCURVE",
"163 103 CURVE SMOOTH",
"163 597 LINE SMOOTH",
"163 647 OFFCURVE",
"179 660 OFFCURVE",
"214 660 CURVE SMOOTH",
"241 660 LINE",
"241 750 LINE",
"207 750 LINE SMOOTH",
"97 750 OFFCURVE",
"53 709 OFFCURVE",
"53 597 CURVE SMOOTH",
"53 103 LINE SMOOTH",
"53 -9 OFFCURVE",
"97 -50 OFFCURVE",
"207 -50 CURVE SMOOTH"
);
}
);
};
layerId = "26058A5B-27B8-4A86-A50F-6474302A7C9F";
paths = (
{
closed = 1;
nodes = (
"241 -50 LINE",
"241 40 LINE",
"214 40 LINE SMOOTH",
"179 40 OFFCURVE",
"163 53 OFFCURVE",
"163 103 CURVE SMOOTH",
"163 597 LINE SMOOTH",
"163 647 OFFCURVE",
"179 660 OFFCURVE",
"214 660 CURVE SMOOTH",
"241 660 LINE",
"241 750 LINE",
"207 750 LINE SMOOTH",
"97 750 OFFCURVE",
"53 709 OFFCURVE",
"53 597 CURVE SMOOTH",
"53 103 LINE SMOOTH",
"53 -9 OFFCURVE",
"97 -50 OFFCURVE",
"207 -50 CURVE SMOOTH"
);
}
);
width = 276;
}
);
leftKerningGroup = parenleft;
note = parenleft;
rightKerningGroup = parenleft;
unicode = 0028;
},
{
color = 0;
glyphname = parenright;
lastChange = "2018-02-05 23:58:34 +0000";
layers = (
{
background = {
paths = (
{
closed = 1;
nodes = (
"69 -50 LINE SMOOTH",
"179 -50 OFFCURVE",
"223 -9 OFFCURVE",
"223 103 CURVE SMOOTH",
"223 597 LINE SMOOTH",
"223 709 OFFCURVE",
"179 750 OFFCURVE",
"69 750 CURVE SMOOTH",
"35 750 LINE",
"35 660 LINE",
"62 660 LINE SMOOTH",
"97 660 OFFCURVE",
"113 647 OFFCURVE",
"113 597 CURVE SMOOTH",
"113 103 LINE SMOOTH",
"113 53 OFFCURVE",
"97 40 OFFCURVE",
"62 40 CURVE SMOOTH",
"35 40 LINE",
"35 -50 LINE"
);
}
);
};
layerId = "26058A5B-27B8-4A86-A50F-6474302A7C9F";
paths = (
{
closed = 1;
nodes = (
"69 -50 LINE SMOOTH",
"179 -50 OFFCURVE",
"223 -9 OFFCURVE",
"223 103 CURVE SMOOTH",
"223 597 LINE SMOOTH",
"223 709 OFFCURVE",
"179 750 OFFCURVE",
"69 750 CURVE SMOOTH",
"35 750 LINE",
"35 660 LINE",
"62 660 LINE SMOOTH",
"97 660 OFFCURVE",
"113 647 OFFCURVE",
"113 597 CURVE SMOOTH",
"113 103 LINE SMOOTH",
"113 53 OFFCURVE",
"97 40 OFFCURVE",
"62 40 CURVE SMOOTH",
"35 40 LINE",
"35 -50 LINE"
);
}
);
width = 276;
}
);
leftKerningGroup = parenright;
note = parenright;
rightKerningGroup = parenright;
unicode = 0029;
},
{
color = 0;
glyphname = braceleft;
lastChange = "2018-02-05 23:58:25 +0000";
layers = (
{
background = {
paths = (
{
closed = 1;
nodes = (
"251 -50 LINE",
"251 40 LINE",
"235 40 LINE SMOOTH",
"200 40 OFFCURVE",
"182 56 OFFCURVE",
"182 111 CURVE SMOOTH",
"182 261 LINE SMOOTH",
"182 297 OFFCURVE",
"169 335 OFFCURVE",
"121 349 CURVE",
"121 351 LINE",
"169 365 OFFCURVE",
"182 403 OFFCURVE",
"182 439 CURVE SMOOTH",
"182 589 LINE SMOOTH",
"182 644 OFFCURVE",
"200 660 OFFCURVE",
"235 660 CURVE SMOOTH",
"251 660 LINE",
"251 750 LINE",
"195 750 LINE SMOOTH",
"133 750 OFFCURVE",
"84 715 OFFCURVE",
"84 639 CURVE SMOOTH",
"84 455 LINE SMOOTH",
"84 409 OFFCURVE",
"71 395 OFFCURVE",
"21 395 CURVE",
"21 305 LINE",
"71 305 OFFCURVE",
"84 291 OFFCURVE",
"84 245 CURVE SMOOTH",
"84 61 LINE SMOOTH",
"84 -15 OFFCURVE",
"133 -50 OFFCURVE",
"195 -50 CURVE SMOOTH"
);
}
);
};
layerId = "26058A5B-27B8-4A86-A50F-6474302A7C9F";
paths = (
{
closed = 1;
nodes = (
"251 -50 LINE",
"251 40 LINE",
"235 40 LINE SMOOTH",
"200 40 OFFCURVE",
"182 56 OFFCURVE",
"182 111 CURVE SMOOTH",
"182 261 LINE SMOOTH",
"182 297 OFFCURVE",
"169 335 OFFCURVE",
"121 349 CURVE",
"121 351 LINE",
"169 365 OFFCURVE",
"182 403 OFFCURVE",
"182 439 CURVE SMOOTH",
"182 589 LINE SMOOTH",
"182 644 OFFCURVE",
"200 660 OFFCURVE",
"235 660 CURVE SMOOTH",
"251 660 LINE",
"251 750 LINE",
"195 750 LINE SMOOTH",
"133 750 OFFCURVE",
"84 715 OFFCURVE",
"84 639 CURVE SMOOTH",
"84 455 LINE SMOOTH",
"84 409 OFFCURVE",
"71 395 OFFCURVE",
"21 395 CURVE",
"21 305 LINE",
"71 305 OFFCURVE",
"84 291 OFFCURVE",
"84 245 CURVE SMOOTH",
"84 61 LINE SMOOTH",
"84 -15 OFFCURVE",
"133 -50 OFFCURVE",
"195 -50 CURVE SMOOTH"
);
}
);
width = 276;
}
);
leftKerningGroup = parenleft;
note = braceleft;
rightKerningGroup = parenleft;
unicode = 007B;
},
{
color = 0;
glyphname = braceright;
lastChange = "2018-02-05 23:58:27 +0000";
layers = (
{
background = {
paths = (
{
closed = 1;
nodes = (
"81 -50 LINE SMOOTH",
"143 -50 OFFCURVE",
"192 -15 OFFCURVE",
"192 61 CURVE SMOOTH",
"192 245 LINE SMOOTH",
"192 291 OFFCURVE",
"205 305 OFFCURVE",
"255 305 CURVE",
"255 395 LINE",
"205 395 OFFCURVE",
"192 409 OFFCURVE",
"192 455 CURVE SMOOTH",
"192 639 LINE SMOOTH",
"192 715 OFFCURVE",
"143 750 OFFCURVE",
"81 750 CURVE SMOOTH",
"25 750 LINE",
"25 660 LINE",
"41 660 LINE SMOOTH",
"76 660 OFFCURVE",
"94 644 OFFCURVE",
"94 589 CURVE SMOOTH",
"94 439 LINE SMOOTH",
"94 403 OFFCURVE",
"107 365 OFFCURVE",
"155 351 CURVE",
"155 349 LINE",
"107 335 OFFCURVE",
"94 297 OFFCURVE",
"94 261 CURVE SMOOTH",
"94 111 LINE SMOOTH",
"94 56 OFFCURVE",
"76 40 OFFCURVE",
"41 40 CURVE SMOOTH",
"25 40 LINE",
"25 -50 LINE"
);
}
);
};
layerId = "26058A5B-27B8-4A86-A50F-6474302A7C9F";
paths = (
{
closed = 1;
nodes = (
"81 -50 LINE SMOOTH",
"143 -50 OFFCURVE",
"192 -15 OFFCURVE",
"192 61 CURVE SMOOTH",
"192 245 LINE SMOOTH",
"192 291 OFFCURVE",
"205 305 OFFCURVE",
"255 305 CURVE",
"255 395 LINE",
"205 395 OFFCURVE",
"192 409 OFFCURVE",
"192 455 CURVE SMOOTH",
"192 639 LINE SMOOTH",
"192 715 OFFCURVE",
"143 750 OFFCURVE",
"81 750 CURVE SMOOTH",
"25 750 LINE",
"25 660 LINE",
"41 660 LINE SMOOTH",
"76 660 OFFCURVE",
"94 644 OFFCURVE",
"94 589 CURVE SMOOTH",
"94 439 LINE SMOOTH",
"94 403 OFFCURVE",
"107 365 OFFCURVE",
"155 351 CURVE",
"155 349 LINE",
"107 335 OFFCURVE",
"94 297 OFFCURVE",
"94 261 CURVE SMOOTH",
"94 111 LINE SMOOTH",
"94 56 OFFCURVE",
"76 40 OFFCURVE",
"41 40 CURVE SMOOTH",
"25 40 LINE",
"25 -50 LINE"
);
}
);
width = 276;
}
);
leftKerningGroup = parenright;
note = braceright;
rightKerningGroup = parenright;
unicode = 007D;
},
{
color = 0;
glyphname = bracketleft;
lastChange = "2018-02-05 23:58:31 +0000";
layers = (
{
background = {
paths = (
{
closed = 1;
nodes = (
"241 -50 LINE",
"241 40 LINE",
"169 40 LINE",
"169 660 LINE",
"241 660 LINE",
"241 750 LINE",
"59 750 LINE",
"59 -50 LINE"
);
}
);
};
layerId = "26058A5B-27B8-4A86-A50F-6474302A7C9F";
paths = (
{
closed = 1;
nodes = (
"241 -50 LINE",
"241 40 LINE",
"169 40 LINE",
"169 660 LINE",
"241 660 LINE",
"241 750 LINE",
"59 750 LINE",
"59 -50 LINE"
);
}
);
width = 276;
}
);
leftKerningGroup = parenleft;
note = bracketleft;
rightKerningGroup = parenleft;
unicode = 005B;
},
{
color = 0;
glyphname = bracketright;
lastChange = "2018-02-05 23:58:32 +0000";
layers = (
{
background = {
paths = (
{
closed = 1;
nodes = (
"217 -50 LINE",
"217 750 LINE",
"35 750 LINE",
"35 660 LINE",
"107 660 LINE",
"107 40 LINE",
"35 40 LINE",
"35 -50 LINE"
);
}
);
};
layerId = "26058A5B-27B8-4A86-A50F-6474302A7C9F";
paths = (
{
closed = 1;
nodes = (
"217 -50 LINE",
"217 750 LINE",
"35 750 LINE",
"35 660 LINE",
"107 660 LINE",
"107 40 LINE",
"35 40 LINE",
"35 -50 LINE"
);
}
);
width = 276;
}
);
leftKerningGroup = parenright;
note = bracketright;
rightKerningGroup = parenright;
unicode = 005D;
},
{
color = 0;
glyphname = hyphen;
lastChange = "2018-02-05 23:08:31 +0000";
layers = (
{
background = {
paths = (
{
closed = 1;
nodes = (
"245 300 LINE",
"245 400 LINE",
"25 400 LINE",
"25 300 LINE"
);
}
);
};
layerId = "26058A5B-27B8-4A86-A50F-6474302A7C9F";
paths = (
{
closed = 1;
nodes = (
"245 300 LINE",
"245 400 LINE",
"25 400 LINE",
"25 300 LINE"
);
}
);
width = 270;
}
);
leftKerningGroup = periodcentered;
note = hyphen;
rightKerningGroup = periodcentered;
unicode = 002D;
},
{
color = 0;
glyphname = endash;
lastChange = "2018-02-05 23:08:31 +0000";
layers = (
{
background = {
paths = (
{
closed = 1;
nodes = (
"300 305 LINE",
"300 395 LINE",
"0 395 LINE",
"0 305 LINE"
);
}
);
};
layerId = "26058A5B-27B8-4A86-A50F-6474302A7C9F";
paths = (
{
closed = 1;
nodes = (
"300 305 LINE",
"300 395 LINE",
"0 395 LINE",
"0 305 LINE"
);
}
);
width = 300;
}
);
leftKerningGroup = periodcentered;
note = endash;
rightKerningGroup = periodcentered;
unicode = 2013;
},
{
color = 0;
glyphname = emdash;
lastChange = "2018-02-05 23:08:31 +0000";
layers = (
{
background = {
paths = (
{
closed = 1;
nodes = (
"500 305 LINE",
"500 395 LINE",
"0 395 LINE",
"0 305 LINE"
);
}
);
};
layerId = "26058A5B-27B8-4A86-A50F-6474302A7C9F";
paths = (
{
closed = 1;
nodes = (
"500 305 LINE",
"500 395 LINE",
"0 395 LINE",
"0 305 LINE"
);
}
);
width = 500;
}
);
leftKerningGroup = periodcentered;
note = emdash;
rightKerningGroup = periodcentered;
unicode = 2014;
},
{
color = 0;
glyphname = figuredash;
lastChange = "2018-02-05 23:58:42 +0000";
layers = (
{
background = {
paths = (
{
closed = 1;
nodes = (
"399 305 LINE",
"399 395 LINE",
"1 395 LINE",
"1 305 LINE"
);
}
);
};
layerId = "26058A5B-27B8-4A86-A50F-6474302A7C9F";
paths = (
{
closed = 1;
nodes = (
"400 305 LINE",
"400 395 LINE",
"0 395 LINE",
"0 305 LINE"
);
}
);
width = 400;
}
);
note = figuredash;
unicode = 2012;
},
{
color = 0;
glyphname = underscore;
lastChange = "2018-02-05 23:08:31 +0000";
layers = (
{
background = {
paths = (
{
closed = 1;
nodes = (
"300 -90 LINE",
"300 -10 LINE",
"0 -10 LINE",
"0 -90 LINE"
);
}
);
};
layerId = "26058A5B-27B8-4A86-A50F-6474302A7C9F";
paths = (
{
closed = 1;
nodes = (
"300 -90 LINE",
"300 -10 LINE",
"0 -10 LINE",
"0 -90 LINE"
);
}
);
width = 300;
}
);
note = underscore;
unicode = 005F;
},
{
color = 0;
glyphname = quotedblbase;
lastChange = "2018-02-05 23:58:53 +0000";
layers = (
{
background = {
paths = (
{
closed = 1;
nodes = (
"234 -120 LINE",
"295 11 LINE",
"295 106 LINE",
"189 106 LINE",
"189 0 LINE",
"225 0 LINE",
"183 -120 LINE"
);
},
{
closed = 1;
nodes = (
"86 -120 LINE",
"147 11 LINE",
"147 106 LINE",
"41 106 LINE",
"41 0 LINE",
"77 0 LINE",
"35 -120 LINE"
);
}
);
};
layerId = "26058A5B-27B8-4A86-A50F-6474302A7C9F";
paths = (
{
closed = 1;
nodes = (
"234 -120 LINE",
"295 11 LINE",
"295 106 LINE",
"189 106 LINE",
"189 0 LINE",
"225 0 LINE",
"183 -120 LINE"
);
},
{
closed = 1;
nodes = (
"86 -120 LINE",
"147 11 LINE",
"147 106 LINE",
"41 106 LINE",
"41 0 LINE",
"77 0 LINE",
"35 -120 LINE"
);
}
);
width = 336;
}
);
leftKerningGroup = period;
note = quotedblbase;
rightKerningGroup = period;
unicode = 201E;
},
{
color = 0;
glyphname = quotedblleft;
lastChange = "2018-02-05 23:58:54 +0000";
layers = (
{
background = {
paths = (
{
closed = 1;
nodes = (
"295 474 LINE",
"295 580 LINE",
"259 580 LINE",
"301 700 LINE",
"250 700 LINE",
"189 569 LINE",
"189 474 LINE"
);
},
{
closed = 1;
nodes = (
"147 474 LINE",
"147 580 LINE",
"111 580 LINE",
"153 700 LINE",
"102 700 LINE",
"41 569 LINE",
"41 474 LINE"
);
}
);
};
layerId = "26058A5B-27B8-4A86-A50F-6474302A7C9F";
paths = (
{
closed = 1;
nodes = (
"295 474 LINE",
"295 580 LINE",
"259 580 LINE",
"301 700 LINE",
"250 700 LINE",
"189 569 LINE",
"189 474 LINE"
);
},
{
closed = 1;
nodes = (
"147 474 LINE",
"147 580 LINE",
"111 580 LINE",
"153 700 LINE",
"102 700 LINE",
"41 569 LINE",
"41 474 LINE"
);
}
);
width = 336;
}
);
leftKerningGroup = quoteleft;
note = quotedblleft;
rightKerningGroup = quoteleft;
unicode = 201C;
},
{
color = 0;
glyphname = quotedblright;
lastChange = "2018-02-05 23:58:56 +0000";
layers = (
{
background = {
paths = (
{
closed = 1;
nodes = (
"234 474 LINE",
"295 605 LINE",
"295 700 LINE",
"189 700 LINE",
"189 594 LINE",
"225 594 LINE",
"183 474 LINE"
);
},
{
closed = 1;
nodes = (
"86 474 LINE",
"147 605 LINE",
"147 700 LINE",
"41 700 LINE",
"41 594 LINE",
"77 594 LINE",
"35 474 LINE"
);
}
);
};
layerId = "26058A5B-27B8-4A86-A50F-6474302A7C9F";
paths = (
{
closed = 1;
nodes = (
"234 474 LINE",
"295 605 LINE",
"295 700 LINE",
"189 700 LINE",
"189 594 LINE",
"225 594 LINE",
"183 474 LINE"
);
},
{
closed = 1;
nodes = (
"86 474 LINE",
"147 605 LINE",
"147 700 LINE",
"41 700 LINE",
"41 594 LINE",
"77 594 LINE",
"35 474 LINE"
);
}
);
width = 336;
}
);
leftKerningGroup = quoteright;
note = quotedblright;
rightKerningGroup = quoteright;
unicode = 201D;
},
{
color = 0;
glyphname = quoteleft;
lastChange = "2018-02-05 23:58:57 +0000";
layers = (
{
background = {
paths = (
{
closed = 1;
nodes = (
"147 474 LINE",
"147 580 LINE",
"111 580 LINE",
"153 700 LINE",
"102 700 LINE",
"41 569 LINE",
"41 474 LINE"
);
}
);
};
layerId = "26058A5B-27B8-4A86-A50F-6474302A7C9F";
paths = (
{
closed = 1;
nodes = (
"147 474 LINE",
"147 580 LINE",
"111 580 LINE",
"153 700 LINE",
"102 700 LINE",
"41 569 LINE",
"41 474 LINE"
);
}
);
width = 188;
}
);
leftKerningGroup = quoteleft;
note = quoteleft;
rightKerningGroup = quoteleft;
unicode = 2018;
},
{
color = 0;
glyphname = quoteright;
lastChange = "2018-02-05 23:58:59 +0000";
layers = (
{
background = {
paths = (
{
closed = 1;
nodes = (
"86 474 LINE",
"147 605 LINE",
"147 700 LINE",
"41 700 LINE",
"41 594 LINE",
"77 594 LINE",
"35 474 LINE"
);
}
);
};
layerId = "26058A5B-27B8-4A86-A50F-6474302A7C9F";
paths = (
{
closed = 1;
nodes = (
"86 474 LINE",
"147 605 LINE",
"147 700 LINE",
"41 700 LINE",
"41 594 LINE",
"77 594 LINE",
"35 474 LINE"
);
}
);
width = 188;
}
);
leftKerningGroup = quoteright;
note = quoteright;
rightKerningGroup = quoteright;
unicode = 2019;
},
{
color = 0;
glyphname = guillemetleft;
lastChange = "2018-02-06 00:52:35 +0000";
layers = (
{
background = {
paths = (
{
closed = 1;
nodes = (
"319 230 LINE",
"263 346 LINE",
"319 456 LINE",
"239 456 LINE",
"163 346 LINE",
"239 230 LINE"
);
},
{
closed = 1;
nodes = (
"171 230 LINE",
"114 346 LINE",
"171 456 LINE",
"91 456 LINE",
"14 346 LINE",
"91 230 LINE"
);
}
);
};
hints = (
{
horizontal = 1;
origin = "{1, 5}";
target = "{1, 3}";
type = Stem;
},
{
origin = "{1, 4}";
target = "{1, 2}";
type = Stem;
},
{
origin = "{0, 4}";
target = "{0, 2}";
type = Stem;
}
);
layerId = "26058A5B-27B8-4A86-A50F-6474302A7C9F";
paths = (
{
closed = 1;
nodes = (
"319 230 LINE",
"263 346 LINE",
"319 456 LINE",
"239 456 LINE",
"163 346 LINE",
"239 230 LINE"
);
},
{
closed = 1;
nodes = (
"171 230 LINE",
"114 346 LINE",
"171 456 LINE",
"91 456 LINE",
"14 346 LINE",
"91 230 LINE"
);
}
);
width = 336;
}
);
leftKerningGroup = guilsinglleft;
note = guillemotleft;
rightKerningGroup = guilsinglleft;
unicode = 00AB;
},
{
color = 0;
glyphname = guillemetright;
lastChange = "2018-02-06 00:52:49 +0000";
layers = (
{
background = {
paths = (
{
closed = 1;
nodes = (
"173 346 LINE",
"97 456 LINE",
"17 456 LINE",
"73 346 LINE",
"17 230 LINE",
"97 230 LINE"
);
},
{
closed = 1;
nodes = (
"321 346 LINE",
"245 456 LINE",
"165 456 LINE",
"221 346 LINE",
"165 230 LINE",
"245 230 LINE"
);
}
);
};
hints = (
{
horizontal = 1;
origin = "{0, 4}";
target = "{0, 2}";
type = Stem;
},
{
origin = "{0, 4}";
target = "{0, 0}";
type = Stem;
},
{
origin = "{1, 4}";
target = "{1, 0}";
type = Stem;
}
);
layerId = "26058A5B-27B8-4A86-A50F-6474302A7C9F";
paths = (
{
closed = 1;
nodes = (
"173 346 LINE",
"97 456 LINE",
"17 456 LINE",
"73 346 LINE",
"17 230 LINE",
"97 230 LINE"
);
},
{
closed = 1;
nodes = (
"321 346 LINE",
"245 456 LINE",
"165 456 LINE",
"221 346 LINE",
"165 230 LINE",
"245 230 LINE"
);
}
);
width = 335;
}
);
leftKerningGroup = guilsinglright;
note = guillemotright;
rightKerningGroup = guilsinglright;
unicode = 00BB;
},
{
color = 0;
glyphname = guilsinglleft;
lastChange = "2018-02-05 23:58:50 +0000";
layers = (
{
background = {
paths = (
{
closed = 1;
nodes = (
"171 230 LINE",
"114 346 LINE",
"171 456 LINE",
"91 456 LINE",
"14 346 LINE",
"91 230 LINE"
);
}
);
};
layerId = "26058A5B-27B8-4A86-A50F-6474302A7C9F";
paths = (
{
closed = 1;
nodes = (
"171 230 LINE",
"114 346 LINE",
"171 456 LINE",
"91 456 LINE",
"14 346 LINE",
"91 230 LINE"
);
}
);
width = 188;
}
);
leftKerningGroup = guilsinglleft;
note = guilsinglleft;
rightKerningGroup = guilsinglleft;
unicode = 2039;
},
{
color = 0;
glyphname = guilsinglright;
lastChange = "2018-02-05 23:58:51 +0000";
layers = (
{
background = {
paths = (
{
closed = 1;
nodes = (
"174 346 LINE",
"97 456 LINE",
"17 456 LINE",
"74 346 LINE",
"17 230 LINE",
"97 230 LINE"
);
}
);
};
layerId = "26058A5B-27B8-4A86-A50F-6474302A7C9F";
paths = (
{
closed = 1;
nodes = (
"174 346 LINE",
"97 456 LINE",
"17 456 LINE",
"74 346 LINE",
"17 230 LINE",
"97 230 LINE"
);
}
);
width = 188;
}
);
leftKerningGroup = guilsinglright;
note = guilsinglright;
rightKerningGroup = guilsinglright;
unicode = 203A;
},
{
color = 0;
glyphname = quotedbl;
lastChange = "2018-02-05 23:58:01 +0000";
layers = (
{
background = {
hints = (
{
horizontal = 1;
origin = "{1, 2}";
target = "{1, 3}";
type = Stem;
},
{
origin = "{1, 2}";
target = "{1, 1}";
type = Stem;
},
{
origin = "{0, 2}";
target = "{0, 1}";
type = Stem;
}
);
paths = (
{
closed = 1;
nodes = (
"271 474 LINE",
"298 700 LINE",
"186 700 LINE",
"212 474 LINE"
);
},
{
closed = 1;
nodes = (
"123 474 LINE",
"150 700 LINE",
"38 700 LINE",
"64 474 LINE"
);
}
);
};
hints = (
{
horizontal = 1;
origin = "{1, 2}";
target = "{1, 3}";
type = Stem;
},
{
origin = "{1, 2}";
target = "{1, 1}";
type = Stem;
},
{
origin = "{0, 2}";
target = "{0, 1}";
type = Stem;
}
);
layerId = "26058A5B-27B8-4A86-A50F-6474302A7C9F";
paths = (
{
closed = 1;
nodes = (
"271 474 LINE",
"298 700 LINE",
"186 700 LINE",
"212 474 LINE"
);
},
{
closed = 1;
nodes = (
"123 474 LINE",
"150 700 LINE",
"38 700 LINE",
"64 474 LINE"
);
}
);
width = 336;
}
);
leftKerningGroup = quotesingle;
note = quotedbl;
rightKerningGroup = quotesingle;
unicode = 0022;
},
{
color = 0;
glyphname = quotesingle;
lastChange = "2018-02-05 23:58:03 +0000";
layers = (
{
background = {
paths = (
{
closed = 1;
nodes = (
"123 474 LINE",
"150 700 LINE",
"38 700 LINE",
"64 474 LINE"
);
}
);
};
layerId = "26058A5B-27B8-4A86-A50F-6474302A7C9F";
paths = (
{
closed = 1;
nodes = (
"123 474 LINE",
"150 700 LINE",
"38 700 LINE",
"64 474 LINE"
);
}
);
width = 188;
}
);
leftKerningGroup = quotesingle;
note = quotesingle;
rightKerningGroup = quotesingle;
unicode = 0027;
},
{
color = 0;
glyphname = cent;
lastChange = "2018-02-06 00:41:10 +0000";
layers = (
{
background = {
paths = (
{
closed = 1;
nodes = (
"366 476 LINE SMOOTH",
"366 568 OFFCURVE",
"325 628 OFFCURVE",
"248 644 CURVE",
"248 710 LINE",
"158 710 LINE",
"158 643 LINE",
"82 627 OFFCURVE",
"42 567 OFFCURVE",
"42 476 CURVE SMOOTH",
"42 224 LINE SMOOTH",
"42 133 OFFCURVE",
"82 73 OFFCURVE",
"158 57 CURVE",
"158 -20 LINE",
"248 -20 LINE",
"248 56 LINE",
"325 72 OFFCURVE",
"366 132 OFFCURVE",
"366 224 CURVE SMOOTH",
"366 281 LINE",
"262 281 LINE",
"262 216 LINE SMOOTH",
"262 170 OFFCURVE",
"240 152 OFFCURVE",
"207 152 CURVE SMOOTH",
"174 152 OFFCURVE",
"152 170 OFFCURVE",
"152 216 CURVE SMOOTH",
"152 483 LINE SMOOTH",
"152 529 OFFCURVE",
"174 548 OFFCURVE",
"207 548 CURVE SMOOTH",
"240 548 OFFCURVE",
"262 529 OFFCURVE",
"262 483 CURVE SMOOTH",
"262 444 LINE",
"366 444 LINE"
);
}
);
};
hints = (
{
origin = "{0, 10}";
target = "{0, 28}";
type = Stem;
},
{
origin = "{0, 22}";
target = "{0, 19}";
type = Stem;
},
{
origin = "{0, 14}";
target = "{0, 15}";
type = Stem;
},
{
horizontal = 1;
origin = "{0, 13}";
target = "{0, 25}";
type = Stem;
},
{
horizontal = 1;
origin = "{0, 32}";
target = "{0, 6}";
type = Stem;
}
);
layerId = "26058A5B-27B8-4A86-A50F-6474302A7C9F";
paths = (
{
closed = 1;
nodes = (
"366 476 LINE SMOOTH",
"366 568 OFFCURVE",
"325 628 OFFCURVE",
"248 644 CURVE",
"248 710 LINE",
"158 710 LINE",
"158 643 LINE",
"82 627 OFFCURVE",
"42 567 OFFCURVE",
"42 476 CURVE SMOOTH",
"42 224 LINE SMOOTH",
"42 133 OFFCURVE",
"82 73 OFFCURVE",
"158 57 CURVE",
"158 -20 LINE",
"248 -20 LINE",
"248 56 LINE",
"325 72 OFFCURVE",
"366 132 OFFCURVE",
"366 224 CURVE SMOOTH",
"366 281 LINE",
"262 281 LINE",
"262 216 LINE SMOOTH",
"262 170 OFFCURVE",
"240 152 OFFCURVE",
"207 152 CURVE SMOOTH",
"174 152 OFFCURVE",
"152 170 OFFCURVE",
"152 216 CURVE SMOOTH",
"152 483 LINE SMOOTH",
"152 529 OFFCURVE",
"174 548 OFFCURVE",
"207 548 CURVE SMOOTH",
"240 548 OFFCURVE",
"262 529 OFFCURVE",
"262 483 CURVE SMOOTH",
"262 444 LINE",
"366 444 LINE"
);
}
);
width = 400;
}
);
note = cent;
unicode = 00A2;
},
{
color = 0;
glyphname = currency;
lastChange = "2018-02-06 00:42:22 +0000";
layers = (
{
background = {
paths = (
{
closed = 1;
nodes = (
"133 240 LINE",
"152 228 OFFCURVE",
"175 221 OFFCURVE",
"200 221 CURVE SMOOTH",
"225 221 OFFCURVE",
"248 228 OFFCURVE",
"267 240 CURVE",
"320 181 LINE",
"369 230 LINE",
"311 283 LINE",
"323 302 OFFCURVE",
"329 326 OFFCURVE",
"329 350 CURVE SMOOTH",
"329 374 OFFCURVE",
"323 398 OFFCURVE",
"311 417 CURVE",
"369 470 LINE",
"320 519 LINE",
"267 460 LINE",
"248 472 OFFCURVE",
"225 479 OFFCURVE",
"200 479 CURVE SMOOTH",
"175 479 OFFCURVE",
"152 472 OFFCURVE",
"133 460 CURVE",
"80 519 LINE",
"31 470 LINE",
"89 417 LINE",
"77 398 OFFCURVE",
"71 374 OFFCURVE",
"71 350 CURVE SMOOTH",
"71 326 OFFCURVE",
"77 302 OFFCURVE",
"89 283 CURVE",
"31 230 LINE",
"80 181 LINE"
);
},
{
closed = 1;
nodes = (
"168 297 OFFCURVE",
"147 318 OFFCURVE",
"147 350 CURVE SMOOTH",
"147 382 OFFCURVE",
"168 403 OFFCURVE",
"200 403 CURVE SMOOTH",
"232 403 OFFCURVE",
"253 382 OFFCURVE",
"253 350 CURVE SMOOTH",
"253 318 OFFCURVE",
"232 297 OFFCURVE",
"200 297 CURVE SMOOTH"
);
}
);
};
hints = (
{
horizontal = 1;
origin = "{0, 3}";
target = "{1, 11}";
type = Stem;
},
{
horizontal = 1;
origin = "{1, 5}";
target = "{0, 21}";
type = Stem;
},
{
origin = "{0, 30}";
target = "{1, 2}";
type = Stem;
},
{
origin = "{1, 8}";
target = "{0, 12}";
type = Stem;
}
);
layerId = "26058A5B-27B8-4A86-A50F-6474302A7C9F";
paths = (
{
closed = 1;
nodes = (
"133 240 LINE",
"152 228 OFFCURVE",
"175 221 OFFCURVE",
"200 221 CURVE SMOOTH",
"225 221 OFFCURVE",
"248 228 OFFCURVE",
"267 240 CURVE",
"320 181 LINE",
"369 230 LINE",
"311 283 LINE",
"323 302 OFFCURVE",
"329 326 OFFCURVE",
"329 350 CURVE SMOOTH",
"329 374 OFFCURVE",
"323 398 OFFCURVE",
"311 417 CURVE",
"369 470 LINE",
"320 519 LINE",
"267 460 LINE",
"248 472 OFFCURVE",
"225 479 OFFCURVE",
"200 479 CURVE SMOOTH",
"175 479 OFFCURVE",
"152 472 OFFCURVE",
"133 460 CURVE",
"80 519 LINE",
"31 470 LINE",
"89 417 LINE",
"77 398 OFFCURVE",
"71 374 OFFCURVE",
"71 350 CURVE SMOOTH",
"71 326 OFFCURVE",
"77 302 OFFCURVE",
"89 283 CURVE",
"31 230 LINE",
"80 181 LINE"
);
},
{
closed = 1;
nodes = (
"168 297 OFFCURVE",
"147 318 OFFCURVE",
"147 350 CURVE SMOOTH",
"147 382 OFFCURVE",
"168 403 OFFCURVE",
"200 403 CURVE SMOOTH",
"232 403 OFFCURVE",
"253 382 OFFCURVE",
"253 350 CURVE SMOOTH",
"253 318 OFFCURVE",
"232 297 OFFCURVE",
"200 297 CURVE SMOOTH"
);
}
);
width = 400;
}
);
note = currency;
unicode = 00A4;
},
{
color = 0;
glyphname = dollar;
lastChange = "2018-02-05 23:59:17 +0000";
layers = (
{
background = {
hints = (
{
origin = "{0, 42}";
target = "{0, 41}";
type = Stem;
},
{
origin = "{0, 24}";
target = "{0, 23}";
type = Stem;
},
{
origin = "{0, 17}";
target = "{0, 18}";
type = Stem;
},
{
horizontal = 1;
origin = "{0, 46}";
target = "{0, 37}";
type = Stem;
},
{
horizontal = 1;
origin = "{0, 13}";
target = "{0, 25}";
type = Stem;
}
);
paths = (
{
closed = 1;
nodes = (
"245 -55 LINE",
"245 15 LINE",
"323 31 OFFCURVE",
"364 92 OFFCURVE",
"364 182 CURVE SMOOTH",
"364 262 OFFCURVE",
"333 317 OFFCURVE",
"243 389 CURVE SMOOTH",
"169 448 OFFCURVE",
"149 483 OFFCURVE",
"149 529 CURVE SMOOTH",
"149 570 OFFCURVE",
"169 589 OFFCURVE",
"204 589 CURVE SMOOTH",
"239 589 OFFCURVE",
"259 570 OFFCURVE",
"259 527 CURVE SMOOTH",
"259 500 LINE",
"363 500 LINE",
"363 520 LINE SMOOTH",
"363 608 OFFCURVE",
"323 668 OFFCURVE",
"245 684 CURVE",
"245 745 LINE",
"155 745 LINE",
"155 684 LINE",
"78 667 OFFCURVE",
"39 607 OFFCURVE",
"39 522 CURVE SMOOTH",
"39 446 OFFCURVE",
"70 390 OFFCURVE",
"160 319 CURVE SMOOTH",
"234 261 OFFCURVE",
"254 225 OFFCURVE",
"254 175 CURVE SMOOTH",
"254 130 OFFCURVE",
"232 112 OFFCURVE",
"197 112 CURVE SMOOTH",
"162 112 OFFCURVE",
"140 130 OFFCURVE",
"140 173 CURVE SMOOTH",
"140 226 LINE",
"36 226 LINE",
"36 180 LINE SMOOTH",
"36 92 OFFCURVE",
"76 31 OFFCURVE",
"155 15 CURVE",
"155 -55 LINE"
);
}
);
};
hints = (
{
origin = "{0, 42}";
target = "{0, 41}";
type = Stem;
},
{
origin = "{0, 24}";
target = "{0, 23}";
type = Stem;
},
{
origin = "{0, 17}";
target = "{0, 18}";
type = Stem;
},
{
horizontal = 1;
origin = "{0, 46}";
target = "{0, 37}";
type = Stem;
},
{
horizontal = 1;
origin = "{0, 13}";
target = "{0, 25}";
type = Stem;
}
);
layerId = "26058A5B-27B8-4A86-A50F-6474302A7C9F";
paths = (
{
closed = 1;
nodes = (
"245 -55 LINE",
"245 15 LINE",
"323 31 OFFCURVE",
"364 92 OFFCURVE",
"364 182 CURVE SMOOTH",
"364 262 OFFCURVE",
"333 317 OFFCURVE",
"243 389 CURVE SMOOTH",
"169 448 OFFCURVE",
"149 483 OFFCURVE",
"149 529 CURVE SMOOTH",
"149 570 OFFCURVE",
"169 589 OFFCURVE",
"204 589 CURVE SMOOTH",
"239 589 OFFCURVE",
"259 570 OFFCURVE",
"259 527 CURVE SMOOTH",
"259 500 LINE",
"363 500 LINE",
"363 520 LINE SMOOTH",
"363 608 OFFCURVE",
"323 668 OFFCURVE",
"245 684 CURVE",
"245 745 LINE",
"155 745 LINE",
"155 684 LINE",
"78 667 OFFCURVE",
"39 607 OFFCURVE",
"39 522 CURVE SMOOTH",
"39 446 OFFCURVE",
"70 390 OFFCURVE",
"160 319 CURVE SMOOTH",
"234 261 OFFCURVE",
"254 225 OFFCURVE",
"254 175 CURVE SMOOTH",
"254 130 OFFCURVE",
"232 112 OFFCURVE",
"197 112 CURVE SMOOTH",
"162 112 OFFCURVE",
"140 130 OFFCURVE",
"140 173 CURVE SMOOTH",
"140 226 LINE",
"36 226 LINE",
"36 180 LINE SMOOTH",
"36 92 OFFCURVE",
"76 31 OFFCURVE",
"155 15 CURVE",
"155 -55 LINE"
);
}
);
width = 400;
}
);
note = dollar;
unicode = 0024;
},
{
color = 0;
glyphname = euro;
lastChange = "2018-02-05 23:59:19 +0000";
layers = (
{
background = {
paths = (
{
closed = 1;
nodes = (
"320 -10 OFFCURVE",
"373 54 OFFCURVE",
"373 166 CURVE SMOOTH",
"373 224 LINE",
"269 224 LINE",
"269 158 LINE SMOOTH",
"269 108 OFFCURVE",
"250 90 OFFCURVE",
"215 90 CURVE SMOOTH",
"180 90 OFFCURVE",
"161 108 OFFCURVE",
"161 158 CURVE SMOOTH",
"161 280 LINE",
"315 280 LINE",
"315 335 LINE",
"161 335 LINE",
"161 390 LINE",
"315 390 LINE",
"315 445 LINE",
"161 445 LINE",
"161 541 LINE SMOOTH",
"161 591 OFFCURVE",
"180 610 OFFCURVE",
"215 610 CURVE SMOOTH",
"250 610 OFFCURVE",
"269 591 OFFCURVE",
"269 541 CURVE SMOOTH",
"269 501 LINE",
"373 501 LINE",
"373 534 LINE SMOOTH",
"373 646 OFFCURVE",
"320 710 OFFCURVE",
"212 710 CURVE SMOOTH",
"104 710 OFFCURVE",
"51 646 OFFCURVE",
"51 534 CURVE SMOOTH",
"51 445 LINE",
"23 445 LINE",
"23 390 LINE",
"51 390 LINE",
"51 335 LINE",
"23 335 LINE",
"23 280 LINE",
"51 280 LINE",
"51 166 LINE SMOOTH",
"51 54 OFFCURVE",
"104 -10 OFFCURVE",
"212 -10 CURVE SMOOTH"
);
}
);
};
layerId = "26058A5B-27B8-4A86-A50F-6474302A7C9F";
paths = (
{
closed = 1;
nodes = (
"320 -10 OFFCURVE",
"373 54 OFFCURVE",
"373 166 CURVE SMOOTH",
"373 224 LINE",
"269 224 LINE",
"269 158 LINE SMOOTH",
"269 108 OFFCURVE",
"250 90 OFFCURVE",
"215 90 CURVE SMOOTH",
"180 90 OFFCURVE",
"161 108 OFFCURVE",
"161 158 CURVE SMOOTH",
"161 280 LINE",
"315 280 LINE",
"315 335 LINE",
"161 335 LINE",
"161 390 LINE",
"315 390 LINE",
"315 445 LINE",
"161 445 LINE",
"161 541 LINE SMOOTH",
"161 591 OFFCURVE",
"180 610 OFFCURVE",
"215 610 CURVE SMOOTH",
"250 610 OFFCURVE",
"269 591 OFFCURVE",
"269 541 CURVE SMOOTH",
"269 501 LINE",
"373 501 LINE",
"373 534 LINE SMOOTH",
"373 646 OFFCURVE",
"320 710 OFFCURVE",
"212 710 CURVE SMOOTH",
"104 710 OFFCURVE",
"51 646 OFFCURVE",
"51 534 CURVE SMOOTH",
"51 445 LINE",
"23 445 LINE",
"23 390 LINE",
"51 390 LINE",
"51 335 LINE",
"23 335 LINE",
"23 280 LINE",
"51 280 LINE",
"51 166 LINE SMOOTH",
"51 54 OFFCURVE",
"104 -10 OFFCURVE",
"212 -10 CURVE SMOOTH"
);
}
);
width = 400;
}
);
note = Euro;
unicode = 20AC;
},
{
color = 0;
glyphname = florin;
lastChange = "2018-02-05 23:59:20 +0000";
layers = (
{
anchors = (
{
name = bottom;
position = "{189, 0}";
},
{
name = top;
position = "{184, 700}";
}
);
background = {
anchors = (
{
name = bottom;
position = "{189, 0}";
},
{
name = top;
position = "{184, 700}";
}
);
paths = (
{
closed = 1;
nodes = (
"151 -55 LINE",
"151 25 LINE",
"209 25 LINE",
"209 -55 LINE",
"271 -55 LINE",
"271 32 LINE",
"342 50 OFFCURVE",
"379 104 OFFCURVE",
"379 191 CURVE SMOOTH",
"379 213 LINE SMOOTH",
"379 287 OFFCURVE",
"356 339 OFFCURVE",
"297 362 CURVE",
"297 364 LINE",
"346 387 OFFCURVE",
"368 432 OFFCURVE",
"368 504 CURVE SMOOTH",
"368 519 LINE SMOOTH",
"368 598 OFFCURVE",
"338 649 OFFCURVE",
"271 667 CURVE",
"271 745 LINE",
"209 745 LINE",
"209 675 LINE",
"151 675 LINE",
"151 745 LINE",
"89 745 LINE",
"89 675 LINE",
"19 675 LINE",
"19 575 LINE",
"59 575 LINE",
"59 125 LINE",
"19 125 LINE",
"19 25 LINE",
"89 25 LINE",
"89 -55 LINE"
);
},
{
closed = 1;
nodes = (
"169 305 LINE",
"198 305 LINE SMOOTH",
"248 305 OFFCURVE",
"269 285 OFFCURVE",
"269 220 CURVE SMOOTH",
"269 194 LINE SMOOTH",
"269 142 OFFCURVE",
"249 125 OFFCURVE",
"212 125 CURVE SMOOTH",
"169 125 LINE"
);
},
{
closed = 1;
nodes = (
"169 575 LINE",
"202 575 LINE SMOOTH",
"241 575 OFFCURVE",
"258 553 OFFCURVE",
"258 503 CURVE SMOOTH",
"258 479 LINE SMOOTH",
"258 423 OFFCURVE",
"233 405 OFFCURVE",
"192 405 CURVE SMOOTH",
"169 405 LINE"
);
}
);
};
layerId = "26058A5B-27B8-4A86-A50F-6474302A7C9F";
paths = (
{
closed = 1;
nodes = (
"151 -55 LINE",
"151 25 LINE",
"209 25 LINE",
"209 -55 LINE",
"271 -55 LINE",
"271 32 LINE",
"342 50 OFFCURVE",
"379 104 OFFCURVE",
"379 191 CURVE SMOOTH",
"379 213 LINE SMOOTH",
"379 287 OFFCURVE",
"356 339 OFFCURVE",
"297 362 CURVE",
"297 364 LINE",
"346 387 OFFCURVE",
"368 432 OFFCURVE",
"368 504 CURVE SMOOTH",
"368 519 LINE SMOOTH",
"368 598 OFFCURVE",
"338 649 OFFCURVE",
"271 667 CURVE",
"271 745 LINE",
"209 745 LINE",
"209 675 LINE",
"151 675 LINE",
"151 745 LINE",
"89 745 LINE",
"89 675 LINE",
"19 675 LINE",
"19 575 LINE",
"59 575 LINE",
"59 125 LINE",
"19 125 LINE",
"19 25 LINE",
"89 25 LINE",
"89 -55 LINE"
);
},
{
closed = 1;
nodes = (
"169 305 LINE",
"198 305 LINE SMOOTH",
"248 305 OFFCURVE",
"269 285 OFFCURVE",
"269 220 CURVE SMOOTH",
"269 194 LINE SMOOTH",
"269 142 OFFCURVE",
"249 125 OFFCURVE",
"212 125 CURVE SMOOTH",
"169 125 LINE"
);
},
{
closed = 1;
nodes = (
"169 575 LINE",
"202 575 LINE SMOOTH",
"241 575 OFFCURVE",
"258 553 OFFCURVE",
"258 503 CURVE SMOOTH",
"258 479 LINE SMOOTH",
"258 423 OFFCURVE",
"233 405 OFFCURVE",
"192 405 CURVE SMOOTH",
"169 405 LINE"
);
}
);
width = 400;
}
);
unicode = 0192;
},
{
color = 0;
glyphname = rupeeIndian;
lastChange = "2018-02-06 01:03:08 +0000";
layers = (
{
background = {
paths = (
{
closed = 1;
nodes = (
"378 0 LINE",
"160 313 LINE",
"225 313 OFFCURVE",
"305 367 OFFCURVE",
"313 464 CURVE",
"372 464 LINE",
"372 549 LINE",
"313 549 LINE",
"309 574 OFFCURVE",
"301 596 OFFCURVE",
"288 615 CURVE",
"372 615 LINE",
"372 700 LINE",
"28 700 LINE",
"28 615 LINE",
"120 615 LINE SMOOTH",
"175 615 OFFCURVE",
"204 599 OFFCURVE",
"204 549 CURVE",
"28 549 LINE",
"28 464 LINE",
"204 464 LINE",
"204 414 OFFCURVE",
"175 398 OFFCURVE",
"120 398 CURVE SMOOTH",
"28 398 LINE",
"28 313 LINE",
"245 0 LINE"
);
}
);
};
hints = (
{
horizontal = 1;
origin = "{0, 27}";
target = up;
type = BottomGhost;
},
{
horizontal = 1;
origin = "{0, 26}";
target = "{0, 25}";
type = Stem;
},
{
horizontal = 1;
origin = "{0, 20}";
target = "{0, 19}";
type = Stem;
},
{
horizontal = 1;
origin = "{0, 13}";
target = "{0, 14}";
type = Stem;
},
{
origin = "{0, 21}";
target = "{0, 4}";
type = Stem;
}
);
layerId = "26058A5B-27B8-4A86-A50F-6474302A7C9F";
paths = (
{
closed = 1;
nodes = (
"378 0 LINE",
"160 313 LINE",
"225 313 OFFCURVE",
"305 367 OFFCURVE",
"313 464 CURVE",
"372 464 LINE",
"372 549 LINE",
"313 549 LINE",
"309 574 OFFCURVE",
"301 596 OFFCURVE",
"288 615 CURVE",
"372 615 LINE",
"372 700 LINE",
"28 700 LINE",
"28 615 LINE",
"120 615 LINE SMOOTH",
"175 615 OFFCURVE",
"204 599 OFFCURVE",
"204 549 CURVE",
"28 549 LINE",
"28 464 LINE",
"204 464 LINE",
"204 414 OFFCURVE",
"175 398 OFFCURVE",
"120 398 CURVE SMOOTH",
"28 398 LINE",
"28 313 LINE",
"245 0 LINE"
);
}
);
width = 400;
}
);
note = uni20B9;
unicode = 20B9;
},
{
color = 0;
glyphname = sterling;
lastChange = "2018-02-05 23:59:32 +0000";
layers = (
{
background = {
paths = (
{
closed = 1;
nodes = (
"362 0 LINE",
"362 100 LINE",
"161 100 LINE",
"220 153 OFFCURVE",
"230 211 OFFCURVE",
"230 270 CURVE",
"333 270 LINE",
"333 355 LINE",
"211 355 LINE",
"196 397 OFFCURVE",
"155 462 OFFCURVE",
"155 541 CURVE SMOOTH",
"155 591 OFFCURVE",
"175 610 OFFCURVE",
"210 610 CURVE SMOOTH",
"245 610 OFFCURVE",
"265 591 OFFCURVE",
"265 541 CURVE SMOOTH",
"265 493 LINE",
"369 493 LINE",
"369 534 LINE SMOOTH",
"369 646 OFFCURVE",
"314 710 OFFCURVE",
"207 710 CURVE SMOOTH",
"100 710 OFFCURVE",
"45 643 OFFCURVE",
"45 551 CURVE SMOOTH",
"45 467 OFFCURVE",
"72 422 OFFCURVE",
"109 355 CURVE",
"35 355 LINE",
"35 270 LINE",
"127 270 LINE",
"129 260 OFFCURVE",
"130 249 OFFCURVE",
"130 238 CURVE SMOOTH",
"130 180 OFFCURVE",
"96 122 OFFCURVE",
"35 94 CURVE",
"35 0 LINE"
);
}
);
};
layerId = "26058A5B-27B8-4A86-A50F-6474302A7C9F";
paths = (
{
closed = 1;
nodes = (
"362 0 LINE",
"362 100 LINE",
"161 100 LINE",
"220 153 OFFCURVE",
"230 211 OFFCURVE",
"230 270 CURVE",
"333 270 LINE",
"333 355 LINE",
"211 355 LINE",
"196 397 OFFCURVE",
"155 462 OFFCURVE",
"155 541 CURVE SMOOTH",
"155 591 OFFCURVE",
"175 610 OFFCURVE",
"210 610 CURVE SMOOTH",
"245 610 OFFCURVE",
"265 591 OFFCURVE",
"265 541 CURVE SMOOTH",
"265 493 LINE",
"369 493 LINE",
"369 534 LINE SMOOTH",
"369 646 OFFCURVE",
"314 710 OFFCURVE",
"207 710 CURVE SMOOTH",
"100 710 OFFCURVE",
"45 643 OFFCURVE",
"45 551 CURVE SMOOTH",
"45 467 OFFCURVE",
"72 422 OFFCURVE",
"109 355 CURVE",
"35 355 LINE",
"35 270 LINE",
"127 270 LINE",
"129 260 OFFCURVE",
"130 249 OFFCURVE",
"130 238 CURVE SMOOTH",
"130 180 OFFCURVE",
"96 122 OFFCURVE",
"35 94 CURVE",
"35 0 LINE"
);
}
);
width = 400;
}
);
note = sterling;
unicode = 00A3;
},
{
color = 0;
glyphname = yen;
lastChange = "2018-02-06 00:44:02 +0000";
layers = (
{
background = {
paths = (
{
closed = 1;
nodes = (
"255 0 LINE",
"255 112 LINE",
"348 112 LINE",
"348 181 LINE",
"255 181 LINE",
"255 254 LINE",
"348 254 LINE",
"348 323 LINE",
"262 323 LINE",
"389 700 LINE",
"282 700 LINE",
"206 439 LINE",
"204 439 LINE",
"128 700 LINE",
"11 700 LINE",
"138 323 LINE",
"56 323 LINE",
"56 254 LINE",
"145 254 LINE",
"145 181 LINE",
"56 181 LINE",
"56 112 LINE",
"145 112 LINE",
"145 0 LINE"
);
}
);
};
hints = (
{
horizontal = 1;
origin = "{0, 17}";
target = "{0, 16}";
type = Stem;
},
{
horizontal = 1;
origin = "{0, 14}";
target = down;
type = TopGhost;
},
{
horizontal = 1;
origin = "{0, 20}";
target = "{0, 21}";
type = Stem;
},
{
origin = "{0, 23}";
target = "{0, 0}";
type = Stem;
},
{
horizontal = 1;
origin = "{0, 23}";
target = up;
type = BottomGhost;
}
);
layerId = "26058A5B-27B8-4A86-A50F-6474302A7C9F";
paths = (
{
closed = 1;
nodes = (
"255 0 LINE",
"255 112 LINE",
"348 112 LINE",
"348 181 LINE",
"255 181 LINE",
"255 254 LINE",
"348 254 LINE",
"348 323 LINE",
"262 323 LINE",
"389 700 LINE",
"282 700 LINE",
"206 439 LINE",
"204 439 LINE",
"128 700 LINE",
"11 700 LINE",
"138 323 LINE",
"56 323 LINE",
"56 254 LINE",
"145 254 LINE",
"145 181 LINE",
"56 181 LINE",
"56 112 LINE",
"145 112 LINE",
"145 0 LINE"
);
}
);
width = 400;
}
);
note = yen;
unicode = 00A5;
},
{
color = 0;
glyphname = bulletoperator;
lastChange = "2018-02-05 23:08:31 +0000";
layers = (
{
background = {
paths = (
{
closed = 1;
nodes = (
"174 286 LINE",
"174 414 LINE",
"46 414 LINE",
"46 286 LINE"
);
}
);
};
layerId = "26058A5B-27B8-4A86-A50F-6474302A7C9F";
paths = (
{
closed = 1;
nodes = (
"174 286 LINE",
"174 414 LINE",
"46 414 LINE",
"46 286 LINE"
);
}
);
width = 220;
}
);
unicode = 2219;
},
{
color = 0;
glyphname = divisionslash;
lastChange = "2018-02-05 23:59:40 +0000";
layers = (
{
background = {
paths = (
{
closed = 1;
nodes = (
"101 0 LINE",
"383 700 LINE",
"299 700 LINE",
"17 0 LINE"
);
}
);
};
layerId = "26058A5B-27B8-4A86-A50F-6474302A7C9F";
paths = (
{
closed = 1;
nodes = (
"101 0 LINE",
"383 700 LINE",
"299 700 LINE",
"17 0 LINE"
);
}
);
width = 400;
}
);
unicode = 2215;
},
{
color = 0;
glyphname = plus;
lastChange = "2018-02-05 23:59:42 +0000";
layers = (
{
background = {
paths = (
{
closed = 1;
nodes = (
"239 174 LINE",
"239 311 LINE",
"373 311 LINE",
"373 389 LINE",
"239 389 LINE",
"239 524 LINE",
"161 524 LINE",
"161 389 LINE",
"27 389 LINE",
"27 311 LINE",
"161 311 LINE",
"161 174 LINE"
);
}
);
};
layerId = "26058A5B-27B8-4A86-A50F-6474302A7C9F";
paths = (
{
closed = 1;
nodes = (
"239 174 LINE",
"239 311 LINE",
"373 311 LINE",
"373 389 LINE",
"239 389 LINE",
"239 524 LINE",
"161 524 LINE",
"161 389 LINE",
"27 389 LINE",
"27 311 LINE",
"161 311 LINE",
"161 174 LINE"
);
}
);
width = 400;
}
);
note = plus;
unicode = 002B;
},
{
color = 0;
glyphname = minus;
lastChange = "2018-02-05 23:59:43 +0000";
layers = (
{
background = {
paths = (
{
closed = 1;
nodes = (
"373 311 LINE",
"373 389 LINE",
"27 389 LINE",
"27 311 LINE"
);
}
);
};
layerId = "26058A5B-27B8-4A86-A50F-6474302A7C9F";
paths = (
{
closed = 1;
nodes = (
"373 311 LINE",
"373 389 LINE",
"27 389 LINE",
"27 311 LINE"
);
}
);
width = 400;
}
);
note = minus;
unicode = 2212;
},
{
color = 0;
glyphname = multiply;
lastChange = "2018-02-06 00:48:12 +0000";
layers = (
{
background = {
paths = (
{
closed = 1;
nodes = (
"200 297 LINE",
"306 191 LINE",
"359 244 LINE",
"253 350 LINE",
"359 456 LINE",
"306 509 LINE",
"200 403 LINE",
"94 508 LINE",
"41 455 LINE",
"146 350 LINE",
"40 244 LINE",
"93 191 LINE"
);
}
);
};
layerId = "26058A5B-27B8-4A86-A50F-6474302A7C9F";
paths = (
{
closed = 1;
nodes = (
"200 297 LINE",
"306 187 LINE",
"359 240 LINE",
"253 350 LINE",
"359 460 LINE",
"306 513 LINE",
"200 403 LINE",
"94 512 LINE",
"41 459 LINE",
"146 350 LINE",
"40 240 LINE",
"93 187 LINE"
);
}
);
width = 400;
}
);
note = multiply;
unicode = 00D7;
},
{
color = 0;
glyphname = divide;
lastChange = "2018-02-05 23:59:46 +0000";
layers = (
{
background = {
paths = (
{
closed = 1;
nodes = (
"373 311 LINE",
"373 389 LINE",
"27 389 LINE",
"27 311 LINE"
);
},
{
closed = 1;
nodes = (
"253 144 LINE",
"253 250 LINE",
"147 250 LINE",
"147 144 LINE"
);
},
{
closed = 1;
nodes = (
"253 449 LINE",
"253 555 LINE",
"147 555 LINE",
"147 449 LINE"
);
}
);
};
layerId = "26058A5B-27B8-4A86-A50F-6474302A7C9F";
paths = (
{
closed = 1;
nodes = (
"373 311 LINE",
"373 389 LINE",
"27 389 LINE",
"27 311 LINE"
);
},
{
closed = 1;
nodes = (
"253 144 LINE",
"253 250 LINE",
"147 250 LINE",
"147 144 LINE"
);
},
{
closed = 1;
nodes = (
"253 449 LINE",
"253 555 LINE",
"147 555 LINE",
"147 449 LINE"
);
}
);
width = 400;
}
);
note = divide;
unicode = 00F7;
},
{
color = 0;
glyphname = equal;
lastChange = "2018-02-05 23:59:47 +0000";
layers = (
{
background = {
paths = (
{
closed = 1;
nodes = (
"363 392 LINE",
"363 470 LINE",
"37 470 LINE",
"37 392 LINE"
);
},
{
closed = 1;
nodes = (
"363 230 LINE",
"363 308 LINE",
"37 308 LINE",
"37 230 LINE"
);
}
);
};
layerId = "26058A5B-27B8-4A86-A50F-6474302A7C9F";
paths = (
{
closed = 1;
nodes = (
"363 392 LINE",
"363 470 LINE",
"37 470 LINE",
"37 392 LINE"
);
},
{
closed = 1;
nodes = (
"363 230 LINE",
"363 308 LINE",
"37 308 LINE",
"37 230 LINE"
);
}
);
width = 400;
}
);
note = equal;
unicode = 003D;
},
{
color = 0;
glyphname = notequal;
lastChange = "2018-02-05 23:59:48 +0000";
layers = (
{
background = {
paths = (
{
closed = 1;
nodes = (
"115 140 LINE",
"168 230 LINE",
"363 230 LINE",
"363 308 LINE",
"214 308 LINE",
"264 392 LINE",
"363 392 LINE",
"363 470 LINE",
"310 470 LINE",
"363 560 LINE",
"285 560 LINE",
"232 470 LINE",
"37 470 LINE",
"37 392 LINE",
"186 392 LINE",
"136 308 LINE",
"37 308 LINE",
"37 230 LINE",
"90 230 LINE",
"37 140 LINE"
);
}
);
};
layerId = "26058A5B-27B8-4A86-A50F-6474302A7C9F";
paths = (
{
closed = 1;
nodes = (
"115 140 LINE",
"168 230 LINE",
"363 230 LINE",
"363 308 LINE",
"214 308 LINE",
"264 392 LINE",
"363 392 LINE",
"363 470 LINE",
"310 470 LINE",
"363 560 LINE",
"285 560 LINE",
"232 470 LINE",
"37 470 LINE",
"37 392 LINE",
"186 392 LINE",
"136 308 LINE",
"37 308 LINE",
"37 230 LINE",
"90 230 LINE",
"37 140 LINE"
);
}
);
width = 400;
}
);
unicode = 2260;
},
{
color = 0;
glyphname = greater;
lastChange = "2018-02-05 23:59:49 +0000";
layers = (
{
background = {
paths = (
{
closed = 1;
nodes = (
"360 313 LINE",
"360 387 LINE",
"54 519 LINE",
"54 439 LINE",
"265 350 LINE",
"54 261 LINE",
"54 181 LINE"
);
}
);
};
layerId = "26058A5B-27B8-4A86-A50F-6474302A7C9F";
paths = (
{
closed = 1;
nodes = (
"360 313 LINE",
"360 387 LINE",
"54 519 LINE",
"54 439 LINE",
"265 350 LINE",
"54 261 LINE",
"54 181 LINE"
);
}
);
width = 400;
}
);
note = greater;
unicode = 003E;
},
{
color = 0;
glyphname = less;
lastChange = "2018-02-05 23:59:50 +0000";
layers = (
{
background = {
paths = (
{
closed = 1;
nodes = (
"346 261 LINE",
"135 350 LINE",
"346 439 LINE",
"346 519 LINE",
"40 387 LINE",
"40 313 LINE",
"346 181 LINE"
);
}
);
};
layerId = "26058A5B-27B8-4A86-A50F-6474302A7C9F";
paths = (
{
closed = 1;
nodes = (
"346 261 LINE",
"135 350 LINE",
"346 439 LINE",
"346 519 LINE",
"40 387 LINE",
"40 313 LINE",
"346 181 LINE"
);
}
);
width = 400;
}
);
note = less;
unicode = 003C;
},
{
color = 0;
glyphname = greaterequal;
lastChange = "2018-02-05 23:59:52 +0000";
layers = (
{
background = {
paths = (
{
closed = 1;
nodes = (
"357 358 LINE",
"357 432 LINE",
"51 539 LINE",
"51 459 LINE",
"249 395 LINE",
"51 331 LINE",
"51 251 LINE"
);
},
{
closed = 1;
nodes = (
"357 154 LINE",
"357 232 LINE",
"51 232 LINE",
"51 154 LINE"
);
}
);
};
layerId = "26058A5B-27B8-4A86-A50F-6474302A7C9F";
paths = (
{
closed = 1;
nodes = (
"357 358 LINE",
"357 432 LINE",
"51 539 LINE",
"51 459 LINE",
"249 395 LINE",
"51 331 LINE",
"51 251 LINE"
);
},
{
closed = 1;
nodes = (
"357 154 LINE",
"357 232 LINE",
"51 232 LINE",
"51 154 LINE"
);
}
);
width = 400;
}
);
unicode = 2265;
},
{
color = 0;
glyphname = lessequal;
lastChange = "2018-02-05 23:59:53 +0000";
layers = (
{
background = {
paths = (
{
closed = 1;
nodes = (
"43 432 LINE",
"43 358 LINE",
"349 251 LINE",
"349 331 LINE",
"151 395 LINE",
"349 459 LINE",
"349 539 LINE"
);
},
{
closed = 1;
nodes = (
"349 154 LINE",
"349 232 LINE",
"43 232 LINE",
"43 154 LINE"
);
}
);
};
layerId = "26058A5B-27B8-4A86-A50F-6474302A7C9F";
paths = (
{
closed = 1;
nodes = (
"43 432 LINE",
"43 358 LINE",
"349 251 LINE",
"349 331 LINE",
"151 395 LINE",
"349 459 LINE",
"349 539 LINE"
);
},
{
closed = 1;
nodes = (
"349 154 LINE",
"349 232 LINE",
"43 232 LINE",
"43 154 LINE"
);
}
);
width = 400;
}
);
unicode = 2264;
},
{
color = 0;
glyphname = plusminus;
lastChange = "2018-02-05 23:59:54 +0000";
layers = (
{
background = {
paths = (
{
closed = 1;
nodes = (
"362 164 LINE",
"362 242 LINE",
"238 242 LINE",
"238 352 LINE",
"362 352 LINE",
"362 430 LINE",
"238 430 LINE",
"238 544 LINE",
"160 544 LINE",
"160 430 LINE",
"36 430 LINE",
"36 352 LINE",
"160 352 LINE",
"160 242 LINE",
"36 242 LINE",
"36 164 LINE"
);
}
);
};
layerId = "26058A5B-27B8-4A86-A50F-6474302A7C9F";
paths = (
{
closed = 1;
nodes = (
"362 164 LINE",
"362 242 LINE",
"238 242 LINE",
"238 352 LINE",
"362 352 LINE",
"362 430 LINE",
"238 430 LINE",
"238 544 LINE",
"160 544 LINE",
"160 430 LINE",
"36 430 LINE",
"36 352 LINE",
"160 352 LINE",
"160 242 LINE",
"36 242 LINE",
"36 164 LINE"
);
}
);
width = 400;
}
);
note = plusminus;
unicode = 00B1;
},
{
color = 0;
glyphname = approxequal;
lastChange = "2018-02-06 00:54:35 +0000";
layers = (
{
background = {
paths = (
{
closed = 1;
nodes = (
"96 400 OFFCURVE",
"109 420 OFFCURVE",
"134 420 CURVE SMOOTH",
"151 420 OFFCURVE",
"165 410 OFFCURVE",
"193 392 CURVE SMOOTH",
"229 369 OFFCURVE",
"245 363 OFFCURVE",
"267 363 CURVE SMOOTH",
"319 363 OFFCURVE",
"350 398 OFFCURVE",
"388 463 CURVE",
"331 506 LINE",
"304 466 OFFCURVE",
"291 446 OFFCURVE",
"266 446 CURVE SMOOTH",
"249 446 OFFCURVE",
"235 456 OFFCURVE",
"207 474 CURVE SMOOTH",
"171 497 OFFCURVE",
"155 503 OFFCURVE",
"133 503 CURVE SMOOTH",
"81 503 OFFCURVE",
"50 468 OFFCURVE",
"12 403 CURVE",
"69 360 LINE"
);
},
{
closed = 1;
nodes = (
"96 234 OFFCURVE",
"109 254 OFFCURVE",
"134 254 CURVE SMOOTH",
"151 254 OFFCURVE",
"165 244 OFFCURVE",
"193 226 CURVE SMOOTH",
"229 203 OFFCURVE",
"245 197 OFFCURVE",
"267 197 CURVE SMOOTH",
"319 197 OFFCURVE",
"350 232 OFFCURVE",
"388 297 CURVE",
"331 340 LINE",
"304 300 OFFCURVE",
"291 280 OFFCURVE",
"266 280 CURVE SMOOTH",
"249 280 OFFCURVE",
"235 290 OFFCURVE",
"207 308 CURVE SMOOTH",
"171 331 OFFCURVE",
"155 337 OFFCURVE",
"133 337 CURVE SMOOTH",
"81 337 OFFCURVE",
"50 302 OFFCURVE",
"12 237 CURVE",
"69 194 LINE"
);
}
);
};
layerId = "26058A5B-27B8-4A86-A50F-6474302A7C9F";
paths = (
{
closed = 1;
nodes = (
"96 403 OFFCURVE",
"109 423 OFFCURVE",
"134 423 CURVE SMOOTH",
"151 423 OFFCURVE",
"165 413 OFFCURVE",
"193 395 CURVE SMOOTH",
"229 372 OFFCURVE",
"245 366 OFFCURVE",
"267 366 CURVE SMOOTH",
"319 366 OFFCURVE",
"350 401 OFFCURVE",
"388 466 CURVE",
"331 509 LINE",
"304 469 OFFCURVE",
"291 449 OFFCURVE",
"266 449 CURVE SMOOTH",
"249 449 OFFCURVE",
"235 459 OFFCURVE",
"207 477 CURVE SMOOTH",
"171 500 OFFCURVE",
"155 506 OFFCURVE",
"133 506 CURVE SMOOTH",
"81 506 OFFCURVE",
"50 471 OFFCURVE",
"12 406 CURVE",
"69 363 LINE"
);
},
{
closed = 1;
nodes = (
"96 231 OFFCURVE",
"109 251 OFFCURVE",
"134 251 CURVE SMOOTH",
"151 251 OFFCURVE",
"165 241 OFFCURVE",
"193 223 CURVE SMOOTH",
"229 200 OFFCURVE",
"245 194 OFFCURVE",
"267 194 CURVE SMOOTH",
"319 194 OFFCURVE",
"350 229 OFFCURVE",
"388 294 CURVE",
"331 337 LINE",
"304 297 OFFCURVE",
"291 277 OFFCURVE",
"266 277 CURVE SMOOTH",
"249 277 OFFCURVE",
"235 287 OFFCURVE",
"207 305 CURVE SMOOTH",
"171 328 OFFCURVE",
"155 334 OFFCURVE",
"133 334 CURVE SMOOTH",
"81 334 OFFCURVE",
"50 299 OFFCURVE",
"12 234 CURVE",
"69 191 LINE"
);
}
);
width = 400;
}
);
note = approxequal;
unicode = 2248;
},
{
color = 0;
glyphname = asciitilde;
lastChange = "2018-02-05 23:59:57 +0000";
layers = (
{
background = {
paths = (
{
closed = 1;
nodes = (
"96 317 OFFCURVE",
"109 337 OFFCURVE",
"134 337 CURVE SMOOTH",
"151 337 OFFCURVE",
"165 327 OFFCURVE",
"193 309 CURVE SMOOTH",
"229 286 OFFCURVE",
"245 280 OFFCURVE",
"267 280 CURVE SMOOTH",
"319 280 OFFCURVE",
"350 315 OFFCURVE",
"388 380 CURVE",
"331 423 LINE",
"304 383 OFFCURVE",
"291 363 OFFCURVE",
"266 363 CURVE SMOOTH",
"249 363 OFFCURVE",
"235 373 OFFCURVE",
"207 391 CURVE SMOOTH",
"171 414 OFFCURVE",
"155 420 OFFCURVE",
"133 420 CURVE SMOOTH",
"81 420 OFFCURVE",
"50 385 OFFCURVE",
"12 320 CURVE",
"69 277 LINE"
);
}
);
};
layerId = "26058A5B-27B8-4A86-A50F-6474302A7C9F";
paths = (
{
closed = 1;
nodes = (
"96 317 OFFCURVE",
"109 337 OFFCURVE",
"134 337 CURVE SMOOTH",
"151 337 OFFCURVE",
"165 327 OFFCURVE",
"193 309 CURVE SMOOTH",
"229 286 OFFCURVE",
"245 280 OFFCURVE",
"267 280 CURVE SMOOTH",
"319 280 OFFCURVE",
"350 315 OFFCURVE",
"388 380 CURVE",
"331 423 LINE",
"304 383 OFFCURVE",
"291 363 OFFCURVE",
"266 363 CURVE SMOOTH",
"249 363 OFFCURVE",
"235 373 OFFCURVE",
"207 391 CURVE SMOOTH",
"171 414 OFFCURVE",
"155 420 OFFCURVE",
"133 420 CURVE SMOOTH",
"81 420 OFFCURVE",
"50 385 OFFCURVE",
"12 320 CURVE",
"69 277 LINE"
);
}
);
width = 400;
}
);
note = asciitilde;
unicode = 007E;
},
{
color = 0;
glyphname = logicalnot;
lastChange = "2018-02-05 23:59:58 +0000";
layers = (
{
background = {
paths = (
{
closed = 1;
nodes = (
"368 174 LINE",
"368 389 LINE",
"22 389 LINE",
"22 311 LINE",
"290 311 LINE",
"290 174 LINE"
);
}
);
};
layerId = "26058A5B-27B8-4A86-A50F-6474302A7C9F";
paths = (
{
closed = 1;
nodes = (
"368 174 LINE",
"368 389 LINE",
"22 389 LINE",
"22 311 LINE",
"290 311 LINE",
"290 174 LINE"
);
}
);
width = 400;
}
);
note = logicalnot;
unicode = 00AC;
},
{
color = 0;
glyphname = asciicircum;
lastChange = "2018-02-06 00:01:23 +0000";
layers = (
{
background = {
paths = (
{
closed = 1;
nodes = (
"109 430 LINE",
"199 600 LINE",
"289 430 LINE",
"379 430 LINE",
"236 700 LINE",
"162 700 LINE",
"19 430 LINE"
);
}
);
};
layerId = "26058A5B-27B8-4A86-A50F-6474302A7C9F";
paths = (
{
closed = 1;
nodes = (
"109 430 LINE",
"199 600 LINE",
"289 430 LINE",
"379 430 LINE",
"236 700 LINE",
"162 700 LINE",
"19 430 LINE"
);
}
);
width = 400;
}
);
note = asciicircum;
unicode = 005E;
},
{
color = 0;
glyphname = infinity;
lastChange = "2018-02-06 00:00:00 +0000";
layers = (
{
background = {
paths = (
{
closed = 1;
nodes = (
"248 181 OFFCURVE",
"290 222 OFFCURVE",
"321 273 CURVE",
"326 273 LINE",
"363 213 OFFCURVE",
"403 181 OFFCURVE",
"468 181 CURVE SMOOTH",
"572 181 OFFCURVE",
"617 263 OFFCURVE",
"617 349 CURVE SMOOTH",
"617 434 OFFCURVE",
"573 519 OFFCURVE",
"466 519 CURVE SMOOTH",
"395 519 OFFCURVE",
"353 478 OFFCURVE",
"321 427 CURVE",
"317 427 LINE",
"280 487 OFFCURVE",
"240 519 OFFCURVE",
"175 519 CURVE SMOOTH",
"71 519 OFFCURVE",
"26 437 OFFCURVE",
"26 351 CURVE SMOOTH",
"26 266 OFFCURVE",
"70 181 OFFCURVE",
"177 181 CURVE SMOOTH"
);
},
{
closed = 1;
nodes = (
"137 262 OFFCURVE",
"111 302 OFFCURVE",
"111 351 CURVE SMOOTH",
"111 401 OFFCURVE",
"139 440 OFFCURVE",
"183 440 CURVE SMOOTH",
"235 440 OFFCURVE",
"255 388 OFFCURVE",
"278 355 CURVE",
"268 334 LINE SMOOTH",
"251 298 OFFCURVE",
"230 262 OFFCURVE",
"183 262 CURVE SMOOTH"
);
},
{
closed = 1;
nodes = (
"408 260 OFFCURVE",
"388 312 OFFCURVE",
"363 345 CURVE",
"375 366 LINE SMOOTH",
"393 398 OFFCURVE",
"413 439 OFFCURVE",
"460 439 CURVE SMOOTH",
"506 439 OFFCURVE",
"532 398 OFFCURVE",
"532 349 CURVE SMOOTH",
"532 299 OFFCURVE",
"504 260 OFFCURVE",
"460 260 CURVE SMOOTH"
);
}
);
};
layerId = "26058A5B-27B8-4A86-A50F-6474302A7C9F";
paths = (
{
closed = 1;
nodes = (
"248 181 OFFCURVE",
"290 222 OFFCURVE",
"321 273 CURVE",
"326 273 LINE",
"363 213 OFFCURVE",
"403 181 OFFCURVE",
"468 181 CURVE SMOOTH",
"572 181 OFFCURVE",
"617 263 OFFCURVE",
"617 349 CURVE SMOOTH",
"617 434 OFFCURVE",
"573 519 OFFCURVE",
"466 519 CURVE SMOOTH",
"395 519 OFFCURVE",
"353 478 OFFCURVE",
"321 427 CURVE",
"317 427 LINE",
"280 487 OFFCURVE",
"240 519 OFFCURVE",
"175 519 CURVE SMOOTH",
"71 519 OFFCURVE",
"26 437 OFFCURVE",
"26 351 CURVE SMOOTH",
"26 266 OFFCURVE",
"70 181 OFFCURVE",
"177 181 CURVE SMOOTH"
);
},
{
closed = 1;
nodes = (
"137 262 OFFCURVE",
"111 302 OFFCURVE",
"111 351 CURVE SMOOTH",
"111 401 OFFCURVE",
"139 440 OFFCURVE",
"183 440 CURVE SMOOTH",
"235 440 OFFCURVE",
"255 388 OFFCURVE",
"278 355 CURVE",
"268 334 LINE SMOOTH",
"251 298 OFFCURVE",
"230 262 OFFCURVE",
"183 262 CURVE SMOOTH"
);
},
{
closed = 1;
nodes = (
"408 260 OFFCURVE",
"388 312 OFFCURVE",
"363 345 CURVE",
"375 366 LINE SMOOTH",
"393 398 OFFCURVE",
"413 439 OFFCURVE",
"460 439 CURVE SMOOTH",
"506 439 OFFCURVE",
"532 398 OFFCURVE",
"532 349 CURVE SMOOTH",
"532 299 OFFCURVE",
"504 260 OFFCURVE",
"460 260 CURVE SMOOTH"
);
}
);
width = 643;
}
);
note = infinity;
unicode = 221E;
},
{
color = 0;
glyphname = emptyset;
lastChange = "2018-02-06 01:41:30 +0000";
layers = (
{
background = {
paths = (
{
closed = 1;
nodes = (
"179 82 LINE",
"231 44 OFFCURVE",
"295 22 OFFCURVE",
"367 22 CURVE SMOOTH",
"547 22 OFFCURVE",
"680 160 OFFCURVE",
"680 345 CURVE SMOOTH",
"680 421 OFFCURVE",
"658 489 OFFCURVE",
"619 542 CURVE",
"680 606 LINE",
"612 668 LINE",
"555 608 LINE",
"503 646 OFFCURVE",
"439 668 OFFCURVE",
"367 668 CURVE SMOOTH",
"187 668 OFFCURVE",
"54 530 OFFCURVE",
"54 345 CURVE SMOOTH",
"54 269 OFFCURVE",
"76 201 OFFCURVE",
"115 148 CURVE",
"54 84 LINE",
"122 22 LINE"
);
},
{
closed = 1;
nodes = (
"322 116 OFFCURVE",
"281 130 OFFCURVE",
"248 154 CURVE",
"546 466 LINE",
"565 432 OFFCURVE",
"575 390 OFFCURVE",
"575 345 CURVE SMOOTH",
"575 212 OFFCURVE",
"486 116 OFFCURVE",
"367 116 CURVE SMOOTH"
);
},
{
closed = 1;
nodes = (
"169 258 OFFCURVE",
"159 300 OFFCURVE",
"159 345 CURVE SMOOTH",
"159 478 OFFCURVE",
"248 574 OFFCURVE",
"367 574 CURVE SMOOTH",
"412 574 OFFCURVE",
"453 560 OFFCURVE",
"486 536 CURVE",
"188 224 LINE"
);
}
);
};
layerId = "26058A5B-27B8-4A86-A50F-6474302A7C9F";
paths = (
{
closed = 1;
nodes = (
"179 82 LINE",
"231 44 OFFCURVE",
"295 22 OFFCURVE",
"367 22 CURVE SMOOTH",
"547 22 OFFCURVE",
"680 160 OFFCURVE",
"680 345 CURVE SMOOTH",
"680 421 OFFCURVE",
"658 489 OFFCURVE",
"619 542 CURVE",
"680 606 LINE",
"612 668 LINE",
"555 608 LINE",
"503 646 OFFCURVE",
"439 668 OFFCURVE",
"367 668 CURVE SMOOTH",
"187 668 OFFCURVE",
"54 530 OFFCURVE",
"54 345 CURVE SMOOTH",
"54 269 OFFCURVE",
"76 201 OFFCURVE",
"115 148 CURVE",
"54 84 LINE",
"122 22 LINE"
);
},
{
closed = 1;
nodes = (
"322 116 OFFCURVE",
"281 130 OFFCURVE",
"248 154 CURVE",
"546 466 LINE",
"565 432 OFFCURVE",
"575 390 OFFCURVE",
"575 345 CURVE SMOOTH",
"575 212 OFFCURVE",
"486 116 OFFCURVE",
"367 116 CURVE SMOOTH"
);
},
{
closed = 1;
nodes = (
"169 258 OFFCURVE",
"159 300 OFFCURVE",
"159 345 CURVE SMOOTH",
"159 478 OFFCURVE",
"248 574 OFFCURVE",
"367 574 CURVE SMOOTH",
"412 574 OFFCURVE",
"453 560 OFFCURVE",
"486 536 CURVE",
"188 224 LINE"
);
}
);
width = 734;
}
);
unicode = 2205;
},
{
color = 0;
glyphname = integral;
lastChange = "2018-02-06 00:00:11 +0000";
layers = (
{
background = {
paths = (
{
closed = 1;
nodes = (
"204 -170 OFFCURVE",
"254 -121 OFFCURVE",
"254 -28 CURVE SMOOTH",
"254 601 LINE SMOOTH",
"254 635 OFFCURVE",
"269 651 OFFCURVE",
"299 651 CURVE SMOOTH",
"319 651 OFFCURVE",
"333 647 OFFCURVE",
"344 641 CURVE",
"344 740 LINE",
"323 748 OFFCURVE",
"302 750 OFFCURVE",
"278 750 CURVE SMOOTH",
"194 750 OFFCURVE",
"144 701 OFFCURVE",
"144 608 CURVE SMOOTH",
"144 -21 LINE SMOOTH",
"144 -55 OFFCURVE",
"129 -71 OFFCURVE",
"99 -71 CURVE SMOOTH",
"79 -71 OFFCURVE",
"66 -66 OFFCURVE",
"54 -60 CURVE",
"54 -160 LINE",
"75 -168 OFFCURVE",
"96 -170 OFFCURVE",
"120 -170 CURVE SMOOTH"
);
}
);
};
layerId = "26058A5B-27B8-4A86-A50F-6474302A7C9F";
paths = (
{
closed = 1;
nodes = (
"204 -170 OFFCURVE",
"254 -121 OFFCURVE",
"254 -28 CURVE SMOOTH",
"254 601 LINE SMOOTH",
"254 635 OFFCURVE",
"269 651 OFFCURVE",
"299 651 CURVE SMOOTH",
"319 651 OFFCURVE",
"333 647 OFFCURVE",
"344 641 CURVE",
"344 740 LINE",
"323 748 OFFCURVE",
"302 750 OFFCURVE",
"278 750 CURVE SMOOTH",
"194 750 OFFCURVE",
"144 701 OFFCURVE",
"144 608 CURVE SMOOTH",
"144 -21 LINE SMOOTH",
"144 -55 OFFCURVE",
"129 -71 OFFCURVE",
"99 -71 CURVE SMOOTH",
"79 -71 OFFCURVE",
"66 -66 OFFCURVE",
"54 -60 CURVE",
"54 -160 LINE",
"75 -168 OFFCURVE",
"96 -170 OFFCURVE",
"120 -170 CURVE SMOOTH"
);
}
);
width = 400;
}
);
unicode = 222B;
},
{
color = 0;
glyphname = product;
lastChange = "2018-02-06 00:00:14 +0000";
layers = (
{
background = {
paths = (
{
closed = 1;
nodes = (
"159 -160 LINE",
"159 600 LINE",
"306 600 LINE",
"306 -160 LINE",
"416 -160 LINE",
"416 700 LINE",
"49 700 LINE",
"49 -160 LINE"
);
}
);
};
layerId = "26058A5B-27B8-4A86-A50F-6474302A7C9F";
paths = (
{
closed = 1;
nodes = (
"159 -160 LINE",
"159 600 LINE",
"306 600 LINE",
"306 -160 LINE",
"416 -160 LINE",
"416 700 LINE",
"49 700 LINE",
"49 -160 LINE"
);
}
);
width = 465;
}
);
unicode = 220F;
},
{
color = 0;
glyphname = summation;
lastChange = "2018-02-06 00:00:16 +0000";
layers = (
{
anchors = (
{
name = bottom;
position = "{185, 0}";
},
{
name = top;
position = "{178, 700}";
}
);
background = {
anchors = (
{
name = bottom;
position = "{185, 0}";
},
{
name = top;
position = "{178, 700}";
}
);
paths = (
{
closed = 1;
nodes = (
"387 -160 LINE",
"387 -60 LINE",
"143 -60 LINE",
"320 270 LINE",
"143 600 LINE",
"387 600 LINE",
"387 700 LINE",
"25 700 LINE",
"25 602 LINE",
"210 271 LINE",
"25 -62 LINE",
"25 -160 LINE"
);
}
);
};
layerId = "26058A5B-27B8-4A86-A50F-6474302A7C9F";
paths = (
{
closed = 1;
nodes = (
"387 -160 LINE",
"387 -60 LINE",
"143 -60 LINE",
"320 270 LINE",
"143 600 LINE",
"387 600 LINE",
"387 700 LINE",
"25 700 LINE",
"25 602 LINE",
"210 271 LINE",
"25 -62 LINE",
"25 -160 LINE"
);
}
);
width = 411;
}
);
unicode = 2211;
},
{
color = 0;
glyphname = radical;
lastChange = "2018-02-06 00:00:18 +0000";
layers = (
{
background = {
paths = (
{
closed = 1;
nodes = (
"277 -65 LINE",
"460 700 LINE",
"376 700 LINE",
"232 82 LINE",
"167 389 LINE",
"16 389 LINE",
"16 311 LINE",
"83 311 LINE",
"166 -65 LINE"
);
}
);
};
layerId = "26058A5B-27B8-4A86-A50F-6474302A7C9F";
paths = (
{
closed = 1;
nodes = (
"277 -65 LINE",
"460 700 LINE",
"376 700 LINE",
"232 82 LINE",
"167 389 LINE",
"16 389 LINE",
"16 311 LINE",
"83 311 LINE",
"166 -65 LINE"
);
}
);
width = 475;
}
);
unicode = 221A;
},
{
color = 0;
glyphname = partialdiff;
lastChange = "2018-02-06 00:53:48 +0000";
layers = (
{
background = {
paths = (
{
closed = 1;
nodes = (
"302 -10 OFFCURVE",
"358 52 OFFCURVE",
"366 161 CURVE SMOOTH",
"391 522 LINE SMOOTH",
"392 538 OFFCURVE",
"392 553 OFFCURVE",
"392 567 CURVE SMOOTH",
"392 650 OFFCURVE",
"335 710 OFFCURVE",
"234 710 CURVE SMOOTH",
"128 710 OFFCURVE",
"76 650 OFFCURVE",
"66 539 CURVE SMOOTH",
"65 528 LINE",
"167 525 LINE",
"168 543 LINE SMOOTH",
"171 592 OFFCURVE",
"195 610 OFFCURVE",
"227 610 CURVE SMOOTH",
"262 610 OFFCURVE",
"283 592 OFFCURVE",
"283 538 CURVE SMOOTH",
"283 533 OFFCURVE",
"283 529 OFFCURVE",
"282 518 CURVE SMOOTH",
"272 388 LINE",
"270 388 LINE",
"254 430 OFFCURVE",
"222 452 OFFCURVE",
"170 452 CURVE SMOOTH",
"93 452 OFFCURVE",
"50 398 OFFCURVE",
"43 297 CURVE SMOOTH",
"34 175 LINE SMOOTH",
"33 163 OFFCURVE",
"33 158 OFFCURVE",
"33 152 CURVE SMOOTH",
"33 47 OFFCURVE",
"86 -10 OFFCURVE",
"199 -10 CURVE SMOOTH"
);
},
{
closed = 1;
nodes = (
"164 92 OFFCURVE",
"143 108 OFFCURVE",
"143 144 CURVE SMOOTH",
"143 149 OFFCURVE",
"143 155 OFFCURVE",
"144 171 CURVE SMOOTH",
"152 284 LINE SMOOTH",
"155 329 OFFCURVE",
"173 351 OFFCURVE",
"209 351 CURVE SMOOTH",
"244 351 OFFCURVE",
"260 332 OFFCURVE",
"266 300 CURVE",
"257 157 LINE SMOOTH",
"254 114 OFFCURVE",
"235 92 OFFCURVE",
"199 92 CURVE SMOOTH"
);
}
);
};
hints = (
{
horizontal = 1;
origin = "{0, 39}";
target = "{1, 16}";
type = Stem;
},
{
horizontal = 1;
origin = "{1, 9}";
target = "{0, 29}";
type = Stem;
},
{
horizontal = 1;
origin = "{0, 9}";
target = "{0, 18}";
type = Stem;
},
{
origin = "{0, 21}";
target = "{0, 6}";
type = Stem;
},
{
origin = "{0, 36}";
target = "{1, 2}";
type = Stem;
}
);
layerId = "26058A5B-27B8-4A86-A50F-6474302A7C9F";
paths = (
{
closed = 1;
nodes = (
"302 -10 OFFCURVE",
"358 52 OFFCURVE",
"366 161 CURVE SMOOTH",
"391 522 LINE SMOOTH",
"392 538 OFFCURVE",
"392 553 OFFCURVE",
"392 567 CURVE SMOOTH",
"392 650 OFFCURVE",
"335 710 OFFCURVE",
"234 710 CURVE SMOOTH",
"128 710 OFFCURVE",
"76 650 OFFCURVE",
"66 539 CURVE SMOOTH",
"65 528 LINE",
"167 525 LINE",
"168 543 LINE SMOOTH",
"171 592 OFFCURVE",
"195 610 OFFCURVE",
"227 610 CURVE SMOOTH",
"262 610 OFFCURVE",
"283 592 OFFCURVE",
"283 538 CURVE SMOOTH",
"283 533 OFFCURVE",
"283 529 OFFCURVE",
"282 518 CURVE SMOOTH",
"272 388 LINE",
"270 388 LINE",
"254 430 OFFCURVE",
"222 452 OFFCURVE",
"170 452 CURVE SMOOTH",
"93 452 OFFCURVE",
"50 398 OFFCURVE",
"43 297 CURVE SMOOTH",
"34 175 LINE SMOOTH",
"33 163 OFFCURVE",
"33 158 OFFCURVE",
"33 152 CURVE SMOOTH",
"33 47 OFFCURVE",
"86 -10 OFFCURVE",
"199 -10 CURVE SMOOTH"
);
},
{
closed = 1;
nodes = (
"164 92 OFFCURVE",
"143 108 OFFCURVE",
"143 144 CURVE SMOOTH",
"143 149 OFFCURVE",
"143 155 OFFCURVE",
"144 171 CURVE SMOOTH",
"152 284 LINE SMOOTH",
"155 329 OFFCURVE",
"173 351 OFFCURVE",
"209 351 CURVE SMOOTH",
"244 351 OFFCURVE",
"260 332 OFFCURVE",
"266 300 CURVE",
"257 157 LINE SMOOTH",
"254 114 OFFCURVE",
"235 92 OFFCURVE",
"199 92 CURVE SMOOTH"
);
}
);
width = 428;
}
);
unicode = 2202;
},
{
color = 0;
glyphname = percent;
lastChange = "2018-02-06 00:00:23 +0000";
layers = (
{
background = {
paths = (
{
closed = 1;
nodes = (
"194 0 LINE",
"465 700 LINE",
"395 700 LINE",
"124 0 LINE"
);
},
{
closed = 1;
nodes = (
"517 -10 OFFCURVE",
"554 30 OFFCURVE",
"554 102 CURVE SMOOTH",
"554 277 LINE SMOOTH",
"554 349 OFFCURVE",
"517 389 OFFCURVE",
"448 389 CURVE SMOOTH",
"379 389 OFFCURVE",
"342 349 OFFCURVE",
"342 277 CURVE SMOOTH",
"342 102 LINE SMOOTH",
"342 30 OFFCURVE",
"379 -10 OFFCURVE",
"448 -10 CURVE SMOOTH"
);
},
{
closed = 1;
nodes = (
"425 53 OFFCURVE",
"412 66 OFFCURVE",
"412 97 CURVE SMOOTH",
"412 282 LINE SMOOTH",
"412 313 OFFCURVE",
"425 326 OFFCURVE",
"448 326 CURVE SMOOTH",
"470 326 OFFCURVE",
"484 313 OFFCURVE",
"484 282 CURVE SMOOTH",
"484 97 LINE SMOOTH",
"484 66 OFFCURVE",
"470 53 OFFCURVE",
"448 53 CURVE SMOOTH"
);
},
{
closed = 1;
nodes = (
"210 311 OFFCURVE",
"247 351 OFFCURVE",
"247 423 CURVE SMOOTH",
"247 598 LINE SMOOTH",
"247 670 OFFCURVE",
"210 710 OFFCURVE",
"141 710 CURVE SMOOTH",
"72 710 OFFCURVE",
"35 670 OFFCURVE",
"35 598 CURVE SMOOTH",
"35 423 LINE SMOOTH",
"35 351 OFFCURVE",
"72 311 OFFCURVE",
"141 311 CURVE SMOOTH"
);
},
{
closed = 1;
nodes = (
"118 374 OFFCURVE",
"105 387 OFFCURVE",
"105 418 CURVE SMOOTH",
"105 603 LINE SMOOTH",
"105 634 OFFCURVE",
"118 647 OFFCURVE",
"141 647 CURVE SMOOTH",
"163 647 OFFCURVE",
"177 634 OFFCURVE",
"177 603 CURVE SMOOTH",
"177 418 LINE SMOOTH",
"177 387 OFFCURVE",
"163 374 OFFCURVE",
"141 374 CURVE SMOOTH"
);
}
);
};
layerId = "26058A5B-27B8-4A86-A50F-6474302A7C9F";
paths = (
{
closed = 1;
nodes = (
"194 0 LINE",
"465 700 LINE",
"395 700 LINE",
"124 0 LINE"
);
},
{
closed = 1;
nodes = (
"517 -10 OFFCURVE",
"554 30 OFFCURVE",
"554 102 CURVE SMOOTH",
"554 277 LINE SMOOTH",
"554 349 OFFCURVE",
"517 389 OFFCURVE",
"448 389 CURVE SMOOTH",
"379 389 OFFCURVE",
"342 349 OFFCURVE",
"342 277 CURVE SMOOTH",
"342 102 LINE SMOOTH",
"342 30 OFFCURVE",
"379 -10 OFFCURVE",
"448 -10 CURVE SMOOTH"
);
},
{
closed = 1;
nodes = (
"425 53 OFFCURVE",
"412 66 OFFCURVE",
"412 97 CURVE SMOOTH",
"412 282 LINE SMOOTH",
"412 313 OFFCURVE",
"425 326 OFFCURVE",
"448 326 CURVE SMOOTH",
"470 326 OFFCURVE",
"484 313 OFFCURVE",
"484 282 CURVE SMOOTH",
"484 97 LINE SMOOTH",
"484 66 OFFCURVE",
"470 53 OFFCURVE",
"448 53 CURVE SMOOTH"
);
},
{
closed = 1;
nodes = (
"210 311 OFFCURVE",
"247 351 OFFCURVE",
"247 423 CURVE SMOOTH",
"247 598 LINE SMOOTH",
"247 670 OFFCURVE",
"210 710 OFFCURVE",
"141 710 CURVE SMOOTH",
"72 710 OFFCURVE",
"35 670 OFFCURVE",
"35 598 CURVE SMOOTH",
"35 423 LINE SMOOTH",
"35 351 OFFCURVE",
"72 311 OFFCURVE",
"141 311 CURVE SMOOTH"
);
},
{
closed = 1;
nodes = (
"118 374 OFFCURVE",
"105 387 OFFCURVE",
"105 418 CURVE SMOOTH",
"105 603 LINE SMOOTH",
"105 634 OFFCURVE",
"118 647 OFFCURVE",
"141 647 CURVE SMOOTH",
"163 647 OFFCURVE",
"177 634 OFFCURVE",
"177 603 CURVE SMOOTH",
"177 418 LINE SMOOTH",
"177 387 OFFCURVE",
"163 374 OFFCURVE",
"141 374 CURVE SMOOTH"
);
}
);
width = 589;
}
);
note = percent;
unicode = 0025;
},
{
color = 0;
glyphname = perthousand;
lastChange = "2018-02-06 00:00:26 +0000";
layers = (
{
background = {
paths = (
{
closed = 1;
nodes = (
"194 0 LINE",
"465 700 LINE",
"395 700 LINE",
"124 0 LINE"
);
},
{
closed = 1;
nodes = (
"517 -10 OFFCURVE",
"554 30 OFFCURVE",
"554 102 CURVE SMOOTH",
"554 277 LINE SMOOTH",
"554 349 OFFCURVE",
"517 389 OFFCURVE",
"448 389 CURVE SMOOTH",
"379 389 OFFCURVE",
"342 349 OFFCURVE",
"342 277 CURVE SMOOTH",
"342 102 LINE SMOOTH",
"342 30 OFFCURVE",
"379 -10 OFFCURVE",
"448 -10 CURVE SMOOTH"
);
},
{
closed = 1;
nodes = (
"425 53 OFFCURVE",
"412 66 OFFCURVE",
"412 97 CURVE SMOOTH",
"412 282 LINE SMOOTH",
"412 313 OFFCURVE",
"425 326 OFFCURVE",
"448 326 CURVE SMOOTH",
"470 326 OFFCURVE",
"484 313 OFFCURVE",
"484 282 CURVE SMOOTH",
"484 97 LINE SMOOTH",
"484 66 OFFCURVE",
"470 53 OFFCURVE",
"448 53 CURVE SMOOTH"
);
},
{
closed = 1;
nodes = (
"210 311 OFFCURVE",
"247 351 OFFCURVE",
"247 423 CURVE SMOOTH",
"247 598 LINE SMOOTH",
"247 670 OFFCURVE",
"210 710 OFFCURVE",
"141 710 CURVE SMOOTH",
"72 710 OFFCURVE",
"35 670 OFFCURVE",
"35 598 CURVE SMOOTH",
"35 423 LINE SMOOTH",
"35 351 OFFCURVE",
"72 311 OFFCURVE",
"141 311 CURVE SMOOTH"
);
},
{
closed = 1;
nodes = (
"118 374 OFFCURVE",
"105 387 OFFCURVE",
"105 418 CURVE SMOOTH",
"105 603 LINE SMOOTH",
"105 634 OFFCURVE",
"118 647 OFFCURVE",
"141 647 CURVE SMOOTH",
"163 647 OFFCURVE",
"177 634 OFFCURVE",
"177 603 CURVE SMOOTH",
"177 418 LINE SMOOTH",
"177 387 OFFCURVE",
"163 374 OFFCURVE",
"141 374 CURVE SMOOTH"
);
},
{
closed = 1;
nodes = (
"773 -10 OFFCURVE",
"810 30 OFFCURVE",
"810 102 CURVE SMOOTH",
"810 277 LINE SMOOTH",
"810 349 OFFCURVE",
"773 389 OFFCURVE",
"704 389 CURVE SMOOTH",
"635 389 OFFCURVE",
"598 349 OFFCURVE",
"598 277 CURVE SMOOTH",
"598 102 LINE SMOOTH",
"598 30 OFFCURVE",
"635 -10 OFFCURVE",
"704 -10 CURVE SMOOTH"
);
},
{
closed = 1;
nodes = (
"681 53 OFFCURVE",
"668 66 OFFCURVE",
"668 97 CURVE SMOOTH",
"668 282 LINE SMOOTH",
"668 313 OFFCURVE",
"681 326 OFFCURVE",
"704 326 CURVE SMOOTH",
"726 326 OFFCURVE",
"740 313 OFFCURVE",
"740 282 CURVE SMOOTH",
"740 97 LINE SMOOTH",
"740 66 OFFCURVE",
"726 53 OFFCURVE",
"704 53 CURVE SMOOTH"
);
}
);
};
layerId = "26058A5B-27B8-4A86-A50F-6474302A7C9F";
paths = (
{
closed = 1;
nodes = (
"194 0 LINE",
"465 700 LINE",
"395 700 LINE",
"124 0 LINE"
);
},
{
closed = 1;
nodes = (
"517 -10 OFFCURVE",
"554 30 OFFCURVE",
"554 102 CURVE SMOOTH",
"554 277 LINE SMOOTH",
"554 349 OFFCURVE",
"517 389 OFFCURVE",
"448 389 CURVE SMOOTH",
"379 389 OFFCURVE",
"342 349 OFFCURVE",
"342 277 CURVE SMOOTH",
"342 102 LINE SMOOTH",
"342 30 OFFCURVE",
"379 -10 OFFCURVE",
"448 -10 CURVE SMOOTH"
);
},
{
closed = 1;
nodes = (
"425 53 OFFCURVE",
"412 66 OFFCURVE",
"412 97 CURVE SMOOTH",
"412 282 LINE SMOOTH",
"412 313 OFFCURVE",
"425 326 OFFCURVE",
"448 326 CURVE SMOOTH",
"470 326 OFFCURVE",
"484 313 OFFCURVE",
"484 282 CURVE SMOOTH",
"484 97 LINE SMOOTH",
"484 66 OFFCURVE",
"470 53 OFFCURVE",
"448 53 CURVE SMOOTH"
);
},
{
closed = 1;
nodes = (
"210 311 OFFCURVE",
"247 351 OFFCURVE",
"247 423 CURVE SMOOTH",
"247 598 LINE SMOOTH",
"247 670 OFFCURVE",
"210 710 OFFCURVE",
"141 710 CURVE SMOOTH",
"72 710 OFFCURVE",
"35 670 OFFCURVE",
"35 598 CURVE SMOOTH",
"35 423 LINE SMOOTH",
"35 351 OFFCURVE",
"72 311 OFFCURVE",
"141 311 CURVE SMOOTH"
);
},
{
closed = 1;
nodes = (
"118 374 OFFCURVE",
"105 387 OFFCURVE",
"105 418 CURVE SMOOTH",
"105 603 LINE SMOOTH",
"105 634 OFFCURVE",
"118 647 OFFCURVE",
"141 647 CURVE SMOOTH",
"163 647 OFFCURVE",
"177 634 OFFCURVE",
"177 603 CURVE SMOOTH",
"177 418 LINE SMOOTH",
"177 387 OFFCURVE",
"163 374 OFFCURVE",
"141 374 CURVE SMOOTH"
);
},
{
closed = 1;
nodes = (
"773 -10 OFFCURVE",
"810 30 OFFCURVE",
"810 102 CURVE SMOOTH",
"810 277 LINE SMOOTH",
"810 349 OFFCURVE",
"773 389 OFFCURVE",
"704 389 CURVE SMOOTH",
"635 389 OFFCURVE",
"598 349 OFFCURVE",
"598 277 CURVE SMOOTH",
"598 102 LINE SMOOTH",
"598 30 OFFCURVE",
"635 -10 OFFCURVE",
"704 -10 CURVE SMOOTH"
);
},
{
closed = 1;
nodes = (
"681 53 OFFCURVE",
"668 66 OFFCURVE",
"668 97 CURVE SMOOTH",
"668 282 LINE SMOOTH",
"668 313 OFFCURVE",
"681 326 OFFCURVE",
"704 326 CURVE SMOOTH",
"726 326 OFFCURVE",
"740 313 OFFCURVE",
"740 282 CURVE SMOOTH",
"740 97 LINE SMOOTH",
"740 66 OFFCURVE",
"726 53 OFFCURVE",
"704 53 CURVE SMOOTH"
);
}
);
width = 845;
}
);
note = perthousand;
unicode = 2030;
},
{
glyphname = whiteCircle;
lastChange = "2019-08-23 14:01:59 +0000";
layers = (
{
layerId = "26058A5B-27B8-4A86-A50F-6474302A7C9F";
paths = (
{
closed = 1;
nodes = (
"569 -10 OFFCURVE",
"717 143 OFFCURVE",
"717 350 CURVE SMOOTH",
"717 557 OFFCURVE",
"569 710 OFFCURVE",
"369 710 CURVE SMOOTH",
"169 710 OFFCURVE",
"21 557 OFFCURVE",
"21 350 CURVE SMOOTH",
"21 143 OFFCURVE",
"169 -10 OFFCURVE",
"369 -10 CURVE SMOOTH"
);
},
{
closed = 1;
nodes = (
"208 60 OFFCURVE",
"93 181 OFFCURVE",
"93 350 CURVE SMOOTH",
"93 519 OFFCURVE",
"208 640 OFFCURVE",
"369 640 CURVE SMOOTH",
"530 640 OFFCURVE",
"645 519 OFFCURVE",
"645 350 CURVE SMOOTH",
"645 181 OFFCURVE",
"530 60 OFFCURVE",
"369 60 CURVE SMOOTH"
);
}
);
width = 738;
}
);
unicode = 25CB;
},
{
color = 0;
glyphname = lozenge;
lastChange = "2018-02-06 00:00:29 +0000";
layers = (
{
background = {
paths = (
{
closed = 1;
nodes = (
"217 -10 LINE",
"380 350 LINE",
"217 710 LINE",
"183 710 LINE",
"20 350 LINE",
"183 -10 LINE"
);
},
{
closed = 1;
nodes = (
"110 350 LINE",
"200 566 LINE",
"290 350 LINE",
"200 134 LINE"
);
}
);
};
layerId = "26058A5B-27B8-4A86-A50F-6474302A7C9F";
paths = (
{
closed = 1;
nodes = (
"217 -10 LINE",
"380 350 LINE",
"217 710 LINE",
"183 710 LINE",
"20 350 LINE",
"183 -10 LINE"
);
},
{
closed = 1;
nodes = (
"110 350 LINE",
"200 566 LINE",
"290 350 LINE",
"200 134 LINE"
);
}
);
width = 400;
}
);
unicode = 25CA;
},
{
color = 0;
glyphname = apple;
lastChange = "2018-02-06 00:00:34 +0000";
layers = (
{
background = {
paths = (
{
closed = 1;
nodes = (
"384 44 OFFCURVE",
"479 133 OFFCURVE",
"479 282 CURVE SMOOTH",
"479 342 LINE",
"611 342 LINE",
"611 494 LINE",
"479 494 LINE",
"479 610 LINE",
"323 610 LINE",
"323 494 LINE",
"264 494 LINE SMOOTH",
"113 494 OFFCURVE",
"23 400 OFFCURVE",
"23 269 CURVE SMOOTH",
"23 136 OFFCURVE",
"115 44 OFFCURVE",
"251 44 CURVE SMOOTH"
);
},
{
closed = 1;
nodes = (
"211 198 OFFCURVE",
"181 227 OFFCURVE",
"181 270 CURVE SMOOTH",
"181 310 OFFCURVE",
"208 342 OFFCURVE",
"263 342 CURVE SMOOTH",
"323 342 LINE",
"323 281 LINE SMOOTH",
"323 225 OFFCURVE",
"291 198 OFFCURVE",
"252 198 CURVE SMOOTH"
);
}
);
};
layerId = "26058A5B-27B8-4A86-A50F-6474302A7C9F";
paths = (
{
closed = 1;
nodes = (
"384 44 OFFCURVE",
"479 133 OFFCURVE",
"479 282 CURVE SMOOTH",
"479 342 LINE",
"611 342 LINE",
"611 494 LINE",
"479 494 LINE",
"479 610 LINE",
"323 610 LINE",
"323 494 LINE",
"264 494 LINE SMOOTH",
"113 494 OFFCURVE",
"23 400 OFFCURVE",
"23 269 CURVE SMOOTH",
"23 136 OFFCURVE",
"115 44 OFFCURVE",
"251 44 CURVE SMOOTH"
);
},
{
closed = 1;
nodes = (
"211 198 OFFCURVE",
"181 227 OFFCURVE",
"181 270 CURVE SMOOTH",
"181 310 OFFCURVE",
"208 342 OFFCURVE",
"263 342 CURVE SMOOTH",
"323 342 LINE",
"323 281 LINE SMOOTH",
"323 225 OFFCURVE",
"291 198 OFFCURVE",
"252 198 CURVE SMOOTH"
);
}
);
width = 634;
}
);
unicode = F8FF;
},
{
color = 0;
glyphname = at;
lastChange = "2018-02-06 00:00:36 +0000";
layers = (
{
background = {
paths = (
{
closed = 1;
nodes = (
"420 -60 OFFCURVE",
"485 -48 OFFCURVE",
"551 -4 CURVE",
"559 92 LINE",
"489 38 OFFCURVE",
"426 24 OFFCURVE",
"352 24 CURVE SMOOTH",
"193 24 OFFCURVE",
"119 124 OFFCURVE",
"119 285 CURVE SMOOTH",
"119 513 OFFCURVE",
"212 655 OFFCURVE",
"390 655 CURVE SMOOTH",
"529 655 OFFCURVE",
"589 569 OFFCURVE",
"589 444 CURVE SMOOTH",
"589 348 OFFCURVE",
"565 224 OFFCURVE",
"509 224 CURVE SMOOTH",
"495 224 OFFCURVE",
"489 230 OFFCURVE",
"489 243 CURVE SMOOTH",
"489 247 OFFCURVE",
"489 249 OFFCURVE",
"490 259 CURVE SMOOTH",
"519 538 LINE",
"426 538 LINE",
"417 481 LINE",
"415 481 LINE",
"402 520 OFFCURVE",
"375 542 OFFCURVE",
"333 542 CURVE SMOOTH",
"263 542 OFFCURVE",
"224 492 OFFCURVE",
"213 394 CURVE SMOOTH",
"202 293 LINE SMOOTH",
"201 282 OFFCURVE",
"200 270 OFFCURVE",
"200 259 CURVE SMOOTH",
"200 183 OFFCURVE",
"233 139 OFFCURVE",
"294 139 CURVE SMOOTH",
"338 139 OFFCURVE",
"368 158 OFFCURVE",
"388 199 CURVE",
"390 199 LINE",
"394 152 OFFCURVE",
"426 133 OFFCURVE",
"477 133 CURVE SMOOTH",
"554 133 OFFCURVE",
"672 206 OFFCURVE",
"672 446 CURVE SMOOTH",
"672 608 OFFCURVE",
"605 740 OFFCURVE",
"394 740 CURVE SMOOTH",
"147 740 OFFCURVE",
"25 537 OFFCURVE",
"25 290 CURVE SMOOTH",
"25 83 OFFCURVE",
"121 -60 OFFCURVE",
"346 -60 CURVE SMOOTH"
);
},
{
closed = 1;
nodes = (
"315 232 OFFCURVE",
"298 248 OFFCURVE",
"298 283 CURVE SMOOTH",
"298 288 OFFCURVE",
"298 290 OFFCURVE",
"299 298 CURVE SMOOTH",
"308 383 LINE SMOOTH",
"313 430 OFFCURVE",
"334 446 OFFCURVE",
"365 446 CURVE SMOOTH",
"390 446 OFFCURVE",
"409 432 OFFCURVE",
"409 402 CURVE SMOOTH",
"409 399 OFFCURVE",
"409 396 OFFCURVE",
"408 390 CURVE",
"398 295 LINE SMOOTH",
"393 249 OFFCURVE",
"372 232 OFFCURVE",
"342 232 CURVE SMOOTH"
);
}
);
};
layerId = "26058A5B-27B8-4A86-A50F-6474302A7C9F";
paths = (
{
closed = 1;
nodes = (
"420 -60 OFFCURVE",
"485 -48 OFFCURVE",
"551 -4 CURVE",
"559 92 LINE",
"489 38 OFFCURVE",
"426 24 OFFCURVE",
"352 24 CURVE SMOOTH",
"193 24 OFFCURVE",
"119 124 OFFCURVE",
"119 285 CURVE SMOOTH",
"119 513 OFFCURVE",
"212 655 OFFCURVE",
"390 655 CURVE SMOOTH",
"529 655 OFFCURVE",
"589 569 OFFCURVE",
"589 444 CURVE SMOOTH",
"589 348 OFFCURVE",
"565 224 OFFCURVE",
"509 224 CURVE SMOOTH",
"495 224 OFFCURVE",
"489 230 OFFCURVE",
"489 243 CURVE SMOOTH",
"489 247 OFFCURVE",
"489 249 OFFCURVE",
"490 259 CURVE SMOOTH",
"519 538 LINE",
"426 538 LINE",
"417 481 LINE",
"415 481 LINE",
"402 520 OFFCURVE",
"375 542 OFFCURVE",
"333 542 CURVE SMOOTH",
"263 542 OFFCURVE",
"224 492 OFFCURVE",
"213 394 CURVE SMOOTH",
"202 293 LINE SMOOTH",
"201 282 OFFCURVE",
"200 270 OFFCURVE",
"200 259 CURVE SMOOTH",
"200 183 OFFCURVE",
"233 139 OFFCURVE",
"294 139 CURVE SMOOTH",
"338 139 OFFCURVE",
"368 158 OFFCURVE",
"388 199 CURVE",
"390 199 LINE",
"394 152 OFFCURVE",
"426 133 OFFCURVE",
"477 133 CURVE SMOOTH",
"554 133 OFFCURVE",
"672 206 OFFCURVE",
"672 446 CURVE SMOOTH",
"672 608 OFFCURVE",
"605 740 OFFCURVE",
"394 740 CURVE SMOOTH",
"147 740 OFFCURVE",
"25 537 OFFCURVE",
"25 290 CURVE SMOOTH",
"25 83 OFFCURVE",
"121 -60 OFFCURVE",
"346 -60 CURVE SMOOTH"
);
},
{
closed = 1;
nodes = (
"315 232 OFFCURVE",
"298 248 OFFCURVE",
"298 283 CURVE SMOOTH",
"298 288 OFFCURVE",
"298 290 OFFCURVE",
"299 298 CURVE SMOOTH",
"308 383 LINE SMOOTH",
"313 430 OFFCURVE",
"334 446 OFFCURVE",
"365 446 CURVE SMOOTH",
"390 446 OFFCURVE",
"409 432 OFFCURVE",
"409 402 CURVE SMOOTH",
"409 399 OFFCURVE",
"409 396 OFFCURVE",
"408 390 CURVE",
"398 295 LINE SMOOTH",
"393 249 OFFCURVE",
"372 232 OFFCURVE",
"342 232 CURVE SMOOTH"
);
}
);
width = 696;
}
);
note = at;
unicode = 0040;
},
{
color = 0;
glyphname = ampersand;
lastChange = "2018-02-06 00:00:37 +0000";
layers = (
{
background = {
paths = (
{
closed = 1;
nodes = (
"205 -10 OFFCURVE",
"233 14 OFFCURVE",
"256 55 CURVE",
"258 55 LINE",
"260 24 OFFCURVE",
"263 14 OFFCURVE",
"268 0 CURVE",
"378 0 LINE",
"367 26 OFFCURVE",
"366 51 OFFCURVE",
"366 85 CURVE SMOOTH",
"366 315 LINE",
"397 315 LINE",
"397 415 LINE",
"366 415 LINE",
"366 493 LINE",
"258 493 LINE",
"258 415 LINE",
"215 415 LINE SMOOTH",
"174 415 OFFCURVE",
"149 433 OFFCURVE",
"149 489 CURVE SMOOTH",
"149 532 LINE SMOOTH",
"149 582 OFFCURVE",
"170 600 OFFCURVE",
"205 600 CURVE SMOOTH",
"329 600 LINE",
"329 700 LINE",
"203 700 LINE SMOOTH",
"93 700 OFFCURVE",
"39 639 OFFCURVE",
"39 527 CURVE SMOOTH",
"39 514 LINE SMOOTH",
"39 439 OFFCURVE",
"63 393 OFFCURVE",
"115 371 CURVE",
"115 369 LINE",
"56 345 OFFCURVE",
"34 294 OFFCURVE",
"34 223 CURVE SMOOTH",
"34 150 LINE SMOOTH",
"34 47 OFFCURVE",
"75 -10 OFFCURVE",
"156 -10 CURVE SMOOTH"
);
},
{
closed = 1;
nodes = (
"166 90 OFFCURVE",
"144 105 OFFCURVE",
"144 155 CURVE SMOOTH",
"144 226 LINE SMOOTH",
"144 291 OFFCURVE",
"166 315 OFFCURVE",
"216 315 CURVE SMOOTH",
"258 315 LINE",
"258 153 LINE",
"252 109 OFFCURVE",
"230 90 OFFCURVE",
"197 90 CURVE SMOOTH"
);
}
);
};
hints = (
{
horizontal = 1;
origin = "{0, 43}";
target = "{1, 11}";
type = Stem;
},
{
horizontal = 1;
origin = "{1, 6}";
target = "{0, 18}";
type = Stem;
},
{
horizontal = 1;
origin = "{0, 28}";
target = "{0, 25}";
type = Stem;
},
{
origin = "{0, 40}";
target = "{1, 2}";
type = Stem;
},
{
origin = "{0, 3}";
target = "{0, 10}";
type = Stem;
},
{
horizontal = 1;
origin = "{0, 7}";
target = up;
type = BottomGhost;
}
);
layerId = "26058A5B-27B8-4A86-A50F-6474302A7C9F";
paths = (
{
closed = 1;
nodes = (
"205 -10 OFFCURVE",
"233 14 OFFCURVE",
"256 55 CURVE",
"258 55 LINE",
"260 24 OFFCURVE",
"263 14 OFFCURVE",
"268 0 CURVE",
"378 0 LINE",
"367 26 OFFCURVE",
"366 51 OFFCURVE",
"366 85 CURVE SMOOTH",
"366 315 LINE",
"397 315 LINE",
"397 415 LINE",
"366 415 LINE",
"366 493 LINE",
"258 493 LINE",
"258 415 LINE",
"215 415 LINE SMOOTH",
"174 415 OFFCURVE",
"149 433 OFFCURVE",
"149 489 CURVE SMOOTH",
"149 532 LINE SMOOTH",
"149 582 OFFCURVE",
"170 600 OFFCURVE",
"205 600 CURVE SMOOTH",
"329 600 LINE",
"329 700 LINE",
"203 700 LINE SMOOTH",
"93 700 OFFCURVE",
"39 639 OFFCURVE",
"39 527 CURVE SMOOTH",
"39 514 LINE SMOOTH",
"39 439 OFFCURVE",
"63 393 OFFCURVE",
"115 371 CURVE",
"115 369 LINE",
"56 345 OFFCURVE",
"34 294 OFFCURVE",
"34 223 CURVE SMOOTH",
"34 150 LINE SMOOTH",
"34 47 OFFCURVE",
"75 -10 OFFCURVE",
"156 -10 CURVE SMOOTH"
);
},
{
closed = 1;
nodes = (
"166 90 OFFCURVE",
"144 105 OFFCURVE",
"144 155 CURVE SMOOTH",
"144 226 LINE SMOOTH",
"144 291 OFFCURVE",
"166 315 OFFCURVE",
"216 315 CURVE SMOOTH",
"258 315 LINE",
"258 153 LINE",
"252 109 OFFCURVE",
"230 90 OFFCURVE",
"197 90 CURVE SMOOTH"
);
}
);
width = 417;
}
);
note = ampersand;
unicode = 0026;
},
{
color = 0;
glyphname = paragraph;
lastChange = "2018-02-06 00:00:39 +0000";
layers = (
{
background = {
paths = (
{
closed = 1;
nodes = (
"256 -97 LINE",
"256 620 LINE",
"316 620 LINE",
"316 -97 LINE",
"398 -97 LINE",
"398 700 LINE",
"210 700 LINE SMOOTH",
"100 700 OFFCURVE",
"26 639 OFFCURVE",
"26 527 CURVE SMOOTH",
"26 476 LINE SMOOTH",
"26 376 OFFCURVE",
"90 305 OFFCURVE",
"174 305 CURVE",
"174 -97 LINE"
);
}
);
};
layerId = "26058A5B-27B8-4A86-A50F-6474302A7C9F";
paths = (
{
closed = 1;
nodes = (
"256 -97 LINE",
"256 620 LINE",
"316 620 LINE",
"316 -97 LINE",
"398 -97 LINE",
"398 700 LINE",
"210 700 LINE SMOOTH",
"100 700 OFFCURVE",
"26 639 OFFCURVE",
"26 527 CURVE SMOOTH",
"26 476 LINE SMOOTH",
"26 376 OFFCURVE",
"90 305 OFFCURVE",
"174 305 CURVE",
"174 -97 LINE"
);
}
);
width = 449;
}
);
note = paragraph;
unicode = 00B6;
},
{
color = 0;
glyphname = section;
lastChange = "2018-02-06 00:44:36 +0000";
layers = (
{
background = {
paths = (
{
closed = 1;
nodes = (
"312 -107 OFFCURVE",
"368 -40 OFFCURVE",
"368 42 CURVE SMOOTH",
"368 95 OFFCURVE",
"355 137 OFFCURVE",
"302 175 CURVE",
"302 177 LINE",
"357 208 OFFCURVE",
"377 259 OFFCURVE",
"377 312 CURVE SMOOTH",
"377 385 OFFCURVE",
"345 436 OFFCURVE",
"228 477 CURVE SMOOTH",
"162 500 OFFCURVE",
"142 521 OFFCURVE",
"142 556 CURVE SMOOTH",
"142 594 OFFCURVE",
"162 619 OFFCURVE",
"202 619 CURVE SMOOTH",
"242 619 OFFCURVE",
"262 590 OFFCURVE",
"262 552 CURVE SMOOTH",
"262 537 LINE",
"366 537 LINE",
"366 567 LINE SMOOTH",
"366 649 OFFCURVE",
"312 710 OFFCURVE",
"200 710 CURVE SMOOTH",
"88 710 OFFCURVE",
"32 643 OFFCURVE",
"32 561 CURVE SMOOTH",
"32 508 OFFCURVE",
"45 465 OFFCURVE",
"98 427 CURVE",
"98 425 LINE",
"43 395 OFFCURVE",
"23 344 OFFCURVE",
"23 291 CURVE SMOOTH",
"23 218 OFFCURVE",
"55 167 OFFCURVE",
"172 126 CURVE SMOOTH",
"238 103 OFFCURVE",
"258 82 OFFCURVE",
"258 47 CURVE SMOOTH",
"258 9 OFFCURVE",
"238 -16 OFFCURVE",
"198 -16 CURVE SMOOTH",
"158 -16 OFFCURVE",
"138 13 OFFCURVE",
"138 51 CURVE SMOOTH",
"138 76 LINE",
"34 76 LINE",
"34 36 LINE SMOOTH",
"34 -46 OFFCURVE",
"88 -107 OFFCURVE",
"200 -107 CURVE SMOOTH"
);
},
{
closed = 1;
nodes = (
"163 236 OFFCURVE",
"128 257 OFFCURVE",
"128 306 CURVE SMOOTH",
"128 341 OFFCURVE",
"145 372 OFFCURVE",
"190 383 CURVE",
"237 367 OFFCURVE",
"272 346 OFFCURVE",
"272 297 CURVE SMOOTH",
"272 262 OFFCURVE",
"255 231 OFFCURVE",
"210 220 CURVE"
);
}
);
};
hints = (
{
origin = "{0, 37}";
target = "{1, 2}";
type = Stem;
},
{
origin = "{1, 8}";
target = "{0, 9}";
type = Stem;
},
{
horizontal = 1;
origin = "{0, 55}";
target = "{0, 46}";
type = Stem;
},
{
horizontal = 1;
origin = "{0, 27}";
target = "{0, 18}";
type = Stem;
}
);
layerId = "26058A5B-27B8-4A86-A50F-6474302A7C9F";
paths = (
{
closed = 1;
nodes = (
"312 -107 OFFCURVE",
"368 -40 OFFCURVE",
"368 42 CURVE SMOOTH",
"368 95 OFFCURVE",
"355 137 OFFCURVE",
"302 175 CURVE",
"302 177 LINE",
"357 208 OFFCURVE",
"377 259 OFFCURVE",
"377 312 CURVE SMOOTH",
"377 385 OFFCURVE",
"345 436 OFFCURVE",
"228 477 CURVE SMOOTH",
"162 500 OFFCURVE",
"142 521 OFFCURVE",
"142 556 CURVE SMOOTH",
"142 594 OFFCURVE",
"162 619 OFFCURVE",
"202 619 CURVE SMOOTH",
"242 619 OFFCURVE",
"262 590 OFFCURVE",
"262 552 CURVE SMOOTH",
"262 537 LINE",
"366 537 LINE",
"366 567 LINE SMOOTH",
"366 649 OFFCURVE",
"312 710 OFFCURVE",
"200 710 CURVE SMOOTH",
"88 710 OFFCURVE",
"32 643 OFFCURVE",
"32 561 CURVE SMOOTH",
"32 508 OFFCURVE",
"45 465 OFFCURVE",
"98 427 CURVE",
"98 425 LINE",
"43 395 OFFCURVE",
"23 344 OFFCURVE",
"23 291 CURVE SMOOTH",
"23 218 OFFCURVE",
"55 167 OFFCURVE",
"172 126 CURVE SMOOTH",
"238 103 OFFCURVE",
"258 82 OFFCURVE",
"258 47 CURVE SMOOTH",
"258 9 OFFCURVE",
"238 -16 OFFCURVE",
"198 -16 CURVE SMOOTH",
"158 -16 OFFCURVE",
"138 13 OFFCURVE",
"138 51 CURVE SMOOTH",
"138 76 LINE",
"34 76 LINE",
"34 36 LINE SMOOTH",
"34 -46 OFFCURVE",
"88 -107 OFFCURVE",
"200 -107 CURVE SMOOTH"
);
},
{
closed = 1;
nodes = (
"163 236 OFFCURVE",
"128 257 OFFCURVE",
"128 306 CURVE SMOOTH",
"128 341 OFFCURVE",
"145 372 OFFCURVE",
"190 383 CURVE",
"237 367 OFFCURVE",
"272 346 OFFCURVE",
"272 297 CURVE SMOOTH",
"272 262 OFFCURVE",
"255 231 OFFCURVE",
"210 220 CURVE"
);
}
);
width = 400;
}
);
note = section;
unicode = 00A7;
},
{
color = 0;
glyphname = copyright;
lastChange = "2018-02-06 00:00:48 +0000";
layers = (
{
background = {
paths = (
{
closed = 1;
nodes = (
"569 -10 OFFCURVE",
"717 143 OFFCURVE",
"717 350 CURVE SMOOTH",
"717 557 OFFCURVE",
"569 710 OFFCURVE",
"369 710 CURVE SMOOTH",
"169 710 OFFCURVE",
"21 557 OFFCURVE",
"21 350 CURVE SMOOTH",
"21 143 OFFCURVE",
"169 -10 OFFCURVE",
"369 -10 CURVE SMOOTH"
);
},
{
closed = 1;
nodes = (
"440 130 OFFCURVE",
"478 174 OFFCURVE",
"478 252 CURVE SMOOTH",
"478 308 LINE",
"406 308 LINE",
"406 248 LINE SMOOTH",
"406 213 OFFCURVE",
"391 201 OFFCURVE",
"367 201 CURVE SMOOTH",
"343 201 OFFCURVE",
"328 213 OFFCURVE",
"328 248 CURVE SMOOTH",
"328 452 LINE SMOOTH",
"328 487 OFFCURVE",
"343 500 OFFCURVE",
"367 500 CURVE SMOOTH",
"391 500 OFFCURVE",
"406 487 OFFCURVE",
"406 452 CURVE SMOOTH",
"406 410 LINE",
"478 410 LINE",
"478 446 LINE SMOOTH",
"478 526 OFFCURVE",
"440 570 OFFCURVE",
"365 570 CURVE SMOOTH",
"290 570 OFFCURVE",
"252 526 OFFCURVE",
"252 446 CURVE SMOOTH",
"252 252 LINE SMOOTH",
"252 174 OFFCURVE",
"290 130 OFFCURVE",
"365 130 CURVE SMOOTH"
);
},
{
closed = 1;
nodes = (
"208 60 OFFCURVE",
"93 181 OFFCURVE",
"93 350 CURVE SMOOTH",
"93 519 OFFCURVE",
"208 640 OFFCURVE",
"369 640 CURVE SMOOTH",
"530 640 OFFCURVE",
"645 519 OFFCURVE",
"645 350 CURVE SMOOTH",
"645 181 OFFCURVE",
"530 60 OFFCURVE",
"369 60 CURVE SMOOTH"
);
}
);
};
layerId = "26058A5B-27B8-4A86-A50F-6474302A7C9F";
paths = (
{
closed = 1;
nodes = (
"569 -10 OFFCURVE",
"717 143 OFFCURVE",
"717 350 CURVE SMOOTH",
"717 557 OFFCURVE",
"569 710 OFFCURVE",
"369 710 CURVE SMOOTH",
"169 710 OFFCURVE",
"21 557 OFFCURVE",
"21 350 CURVE SMOOTH",
"21 143 OFFCURVE",
"169 -10 OFFCURVE",
"369 -10 CURVE SMOOTH"
);
},
{
closed = 1;
nodes = (
"440 130 OFFCURVE",
"478 174 OFFCURVE",
"478 252 CURVE SMOOTH",
"478 308 LINE",
"406 308 LINE",
"406 248 LINE SMOOTH",
"406 213 OFFCURVE",
"391 201 OFFCURVE",
"367 201 CURVE SMOOTH",
"343 201 OFFCURVE",
"328 213 OFFCURVE",
"328 248 CURVE SMOOTH",
"328 452 LINE SMOOTH",
"328 487 OFFCURVE",
"343 500 OFFCURVE",
"367 500 CURVE SMOOTH",
"391 500 OFFCURVE",
"406 487 OFFCURVE",
"406 452 CURVE SMOOTH",
"406 410 LINE",
"478 410 LINE",
"478 446 LINE SMOOTH",
"478 526 OFFCURVE",
"440 570 OFFCURVE",
"365 570 CURVE SMOOTH",
"290 570 OFFCURVE",
"252 526 OFFCURVE",
"252 446 CURVE SMOOTH",
"252 252 LINE SMOOTH",
"252 174 OFFCURVE",
"290 130 OFFCURVE",
"365 130 CURVE SMOOTH"
);
},
{
closed = 1;
nodes = (
"208 60 OFFCURVE",
"93 181 OFFCURVE",
"93 350 CURVE SMOOTH",
"93 519 OFFCURVE",
"208 640 OFFCURVE",
"369 640 CURVE SMOOTH",
"530 640 OFFCURVE",
"645 519 OFFCURVE",
"645 350 CURVE SMOOTH",
"645 181 OFFCURVE",
"530 60 OFFCURVE",
"369 60 CURVE SMOOTH"
);
}
);
width = 738;
}
);
leftKerningGroup = copyright;
note = copyright;
rightKerningGroup = copyright;
unicode = 00A9;
},
{
color = 0;
glyphname = registered;
lastChange = "2018-02-06 00:00:50 +0000";
layers = (
{
background = {
paths = (
{
closed = 1;
nodes = (
"569 -10 OFFCURVE",
"717 143 OFFCURVE",
"717 350 CURVE SMOOTH",
"717 557 OFFCURVE",
"569 710 OFFCURVE",
"369 710 CURVE SMOOTH",
"169 710 OFFCURVE",
"21 557 OFFCURVE",
"21 350 CURVE SMOOTH",
"21 143 OFFCURVE",
"169 -10 OFFCURVE",
"369 -10 CURVE SMOOTH"
);
},
{
closed = 1;
nodes = (
"208 60 OFFCURVE",
"93 181 OFFCURVE",
"93 350 CURVE SMOOTH",
"93 519 OFFCURVE",
"208 640 OFFCURVE",
"369 640 CURVE SMOOTH",
"530 640 OFFCURVE",
"645 519 OFFCURVE",
"645 350 CURVE SMOOTH",
"645 181 OFFCURVE",
"530 60 OFFCURVE",
"369 60 CURVE SMOOTH"
);
},
{
closed = 1;
nodes = (
"335 136 LINE",
"335 309 LINE",
"361 309 LINE SMOOTH",
"396 309 OFFCURVE",
"412 293 OFFCURVE",
"412 247 CURVE SMOOTH",
"412 196 LINE SMOOTH",
"412 156 OFFCURVE",
"414 149 OFFCURVE",
"419 136 CURVE",
"497 136 LINE",
"489 154 OFFCURVE",
"488 172 OFFCURVE",
"488 195 CURVE SMOOTH",
"488 246 LINE SMOOTH",
"488 297 OFFCURVE",
"475 332 OFFCURVE",
"436 348 CURVE",
"436 350 LINE",
"472 366 OFFCURVE",
"488 397 OFFCURVE",
"488 443 CURVE SMOOTH",
"488 452 LINE SMOOTH",
"488 527 OFFCURVE",
"453 564 OFFCURVE",
"375 564 CURVE SMOOTH",
"259 564 LINE",
"259 136 LINE"
);
},
{
closed = 1;
nodes = (
"335 494 LINE",
"371 494 LINE SMOOTH",
"400 494 OFFCURVE",
"412 478 OFFCURVE",
"412 443 CURVE SMOOTH",
"412 430 LINE SMOOTH",
"412 391 OFFCURVE",
"394 379 OFFCURVE",
"366 379 CURVE SMOOTH",
"335 379 LINE"
);
}
);
};
layerId = "26058A5B-27B8-4A86-A50F-6474302A7C9F";
paths = (
{
closed = 1;
nodes = (
"569 -10 OFFCURVE",
"717 143 OFFCURVE",
"717 350 CURVE SMOOTH",
"717 557 OFFCURVE",
"569 710 OFFCURVE",
"369 710 CURVE SMOOTH",
"169 710 OFFCURVE",
"21 557 OFFCURVE",
"21 350 CURVE SMOOTH",
"21 143 OFFCURVE",
"169 -10 OFFCURVE",
"369 -10 CURVE SMOOTH"
);
},
{
closed = 1;
nodes = (
"208 60 OFFCURVE",
"93 181 OFFCURVE",
"93 350 CURVE SMOOTH",
"93 519 OFFCURVE",
"208 640 OFFCURVE",
"369 640 CURVE SMOOTH",
"530 640 OFFCURVE",
"645 519 OFFCURVE",
"645 350 CURVE SMOOTH",
"645 181 OFFCURVE",
"530 60 OFFCURVE",
"369 60 CURVE SMOOTH"
);
},
{
closed = 1;
nodes = (
"335 136 LINE",
"335 309 LINE",
"361 309 LINE SMOOTH",
"396 309 OFFCURVE",
"412 293 OFFCURVE",
"412 247 CURVE SMOOTH",
"412 196 LINE SMOOTH",
"412 156 OFFCURVE",
"414 149 OFFCURVE",
"419 136 CURVE",
"497 136 LINE",
"489 154 OFFCURVE",
"488 172 OFFCURVE",
"488 195 CURVE SMOOTH",
"488 246 LINE SMOOTH",
"488 297 OFFCURVE",
"475 332 OFFCURVE",
"436 348 CURVE",
"436 350 LINE",
"472 366 OFFCURVE",
"488 397 OFFCURVE",
"488 443 CURVE SMOOTH",
"488 452 LINE SMOOTH",
"488 527 OFFCURVE",
"453 564 OFFCURVE",
"375 564 CURVE SMOOTH",
"259 564 LINE",
"259 136 LINE"
);
},
{
closed = 1;
nodes = (
"335 494 LINE",
"371 494 LINE SMOOTH",
"400 494 OFFCURVE",
"412 478 OFFCURVE",
"412 443 CURVE SMOOTH",
"412 430 LINE SMOOTH",
"412 391 OFFCURVE",
"394 379 OFFCURVE",
"366 379 CURVE SMOOTH",
"335 379 LINE"
);
}
);
width = 738;
}
);
leftKerningGroup = copyright;
note = registered;
rightKerningGroup = copyright;
unicode = 00AE;
},
{
color = 0;
glyphname = published;
lastChange = "2018-02-06 00:00:51 +0000";
layers = (
{
background = {
paths = (
{
closed = 1;
nodes = (
"569 -10 OFFCURVE",
"717 143 OFFCURVE",
"717 350 CURVE SMOOTH",
"717 557 OFFCURVE",
"569 710 OFFCURVE",
"369 710 CURVE SMOOTH",
"169 710 OFFCURVE",
"21 557 OFFCURVE",
"21 350 CURVE SMOOTH",
"21 143 OFFCURVE",
"169 -10 OFFCURVE",
"369 -10 CURVE SMOOTH"
);
},
{
closed = 1;
nodes = (
"208 60 OFFCURVE",
"93 181 OFFCURVE",
"93 350 CURVE SMOOTH",
"93 519 OFFCURVE",
"208 640 OFFCURVE",
"369 640 CURVE SMOOTH",
"530 640 OFFCURVE",
"645 519 OFFCURVE",
"645 350 CURVE SMOOTH",
"645 181 OFFCURVE",
"530 60 OFFCURVE",
"369 60 CURVE SMOOTH"
);
},
{
closed = 1;
nodes = (
"352 127 LINE",
"352 290 LINE",
"392 290 LINE SMOOTH",
"468 290 OFFCURVE",
"505 329 OFFCURVE",
"505 402 CURVE SMOOTH",
"505 443 LINE SMOOTH",
"505 516 OFFCURVE",
"468 555 OFFCURVE",
"392 555 CURVE SMOOTH",
"276 555 LINE",
"276 127 LINE"
);
},
{
closed = 1;
nodes = (
"352 485 LINE",
"388 485 LINE SMOOTH",
"417 485 OFFCURVE",
"429 469 OFFCURVE",
"429 434 CURVE SMOOTH",
"429 411 LINE SMOOTH",
"429 376 OFFCURVE",
"417 360 OFFCURVE",
"388 360 CURVE SMOOTH",
"352 360 LINE"
);
}
);
};
layerId = "26058A5B-27B8-4A86-A50F-6474302A7C9F";
paths = (
{
closed = 1;
nodes = (
"569 -10 OFFCURVE",
"717 143 OFFCURVE",
"717 350 CURVE SMOOTH",
"717 557 OFFCURVE",
"569 710 OFFCURVE",
"369 710 CURVE SMOOTH",
"169 710 OFFCURVE",
"21 557 OFFCURVE",
"21 350 CURVE SMOOTH",
"21 143 OFFCURVE",
"169 -10 OFFCURVE",
"369 -10 CURVE SMOOTH"
);
},
{
closed = 1;
nodes = (
"208 60 OFFCURVE",
"93 181 OFFCURVE",
"93 350 CURVE SMOOTH",
"93 519 OFFCURVE",
"208 640 OFFCURVE",
"369 640 CURVE SMOOTH",
"530 640 OFFCURVE",
"645 519 OFFCURVE",
"645 350 CURVE SMOOTH",
"645 181 OFFCURVE",
"530 60 OFFCURVE",
"369 60 CURVE SMOOTH"
);
},
{
closed = 1;
nodes = (
"352 127 LINE",
"352 290 LINE",
"392 290 LINE SMOOTH",
"468 290 OFFCURVE",
"505 329 OFFCURVE",
"505 402 CURVE SMOOTH",
"505 443 LINE SMOOTH",
"505 516 OFFCURVE",
"468 555 OFFCURVE",
"392 555 CURVE SMOOTH",
"276 555 LINE",
"276 127 LINE"
);
},
{
closed = 1;
nodes = (
"352 485 LINE",
"388 485 LINE SMOOTH",
"417 485 OFFCURVE",
"429 469 OFFCURVE",
"429 434 CURVE SMOOTH",
"429 411 LINE SMOOTH",
"429 376 OFFCURVE",
"417 360 OFFCURVE",
"388 360 CURVE SMOOTH",
"352 360 LINE"
);
}
);
width = 738;
}
);
leftKerningGroup = copyright;
note = uni2117;
rightKerningGroup = copyright;
unicode = 2117;
},
{
color = 0;
glyphname = trademark;
lastChange = "2018-02-06 00:00:53 +0000";
layers = (
{
background = {
paths = (
{
closed = 1;
nodes = (
"329 344 LINE",
"329 615 LINE",
"331 615 LINE",
"385 344 LINE",
"439 344 LINE",
"493 615 LINE",
"495 615 LINE",
"495 344 LINE",
"561 344 LINE",
"561 700 LINE",
"456 700 LINE",
"416 474 LINE",
"414 474 LINE",
"373 700 LINE",
"268 700 LINE",
"268 344 LINE"
);
},
{
closed = 1;
nodes = (
"153 344 LINE",
"153 636 LINE",
"226 636 LINE",
"226 700 LINE",
"10 700 LINE",
"10 636 LINE",
"83 636 LINE",
"83 344 LINE"
);
}
);
};
layerId = "26058A5B-27B8-4A86-A50F-6474302A7C9F";
paths = (
{
closed = 1;
nodes = (
"329 344 LINE",
"329 615 LINE",
"331 615 LINE",
"385 344 LINE",
"439 344 LINE",
"493 615 LINE",
"495 615 LINE",
"495 344 LINE",
"561 344 LINE",
"561 700 LINE",
"456 700 LINE",
"416 474 LINE",
"414 474 LINE",
"373 700 LINE",
"268 700 LINE",
"268 344 LINE"
);
},
{
closed = 1;
nodes = (
"153 344 LINE",
"153 636 LINE",
"226 636 LINE",
"226 700 LINE",
"10 700 LINE",
"10 636 LINE",
"83 636 LINE",
"83 344 LINE"
);
}
);
width = 598;
}
);
leftKerningGroup = servicemark;
note = trademark;
rightKerningGroup = servicemark;
unicode = 2122;
},
{
color = 0;
glyphname = degree;
lastChange = "2018-02-06 00:00:55 +0000";
layers = (
{
background = {
paths = (
{
closed = 1;
nodes = (
"271 456 OFFCURVE",
"327 512 OFFCURVE",
"327 583 CURVE SMOOTH",
"327 654 OFFCURVE",
"271 710 OFFCURVE",
"200 710 CURVE SMOOTH",
"129 710 OFFCURVE",
"73 654 OFFCURVE",
"73 583 CURVE SMOOTH",
"73 512 OFFCURVE",
"129 456 OFFCURVE",
"200 456 CURVE SMOOTH"
);
},
{
closed = 1;
nodes = (
"171 531 OFFCURVE",
"148 554 OFFCURVE",
"148 583 CURVE SMOOTH",
"148 612 OFFCURVE",
"171 636 OFFCURVE",
"200 636 CURVE SMOOTH",
"229 636 OFFCURVE",
"253 612 OFFCURVE",
"253 583 CURVE SMOOTH",
"253 554 OFFCURVE",
"229 531 OFFCURVE",
"200 531 CURVE SMOOTH"
);
}
);
};
layerId = "26058A5B-27B8-4A86-A50F-6474302A7C9F";
paths = (
{
closed = 1;
nodes = (
"271 456 OFFCURVE",
"327 512 OFFCURVE",
"327 583 CURVE SMOOTH",
"327 654 OFFCURVE",
"271 710 OFFCURVE",
"200 710 CURVE SMOOTH",
"129 710 OFFCURVE",
"73 654 OFFCURVE",
"73 583 CURVE SMOOTH",
"73 512 OFFCURVE",
"129 456 OFFCURVE",
"200 456 CURVE SMOOTH"
);
},
{
closed = 1;
nodes = (
"171 531 OFFCURVE",
"148 554 OFFCURVE",
"148 583 CURVE SMOOTH",
"148 612 OFFCURVE",
"171 636 OFFCURVE",
"200 636 CURVE SMOOTH",
"229 636 OFFCURVE",
"253 612 OFFCURVE",
"253 583 CURVE SMOOTH",
"253 554 OFFCURVE",
"229 531 OFFCURVE",
"200 531 CURVE SMOOTH"
);
}
);
width = 400;
}
);
note = degree;
unicode = 00B0;
},
{
color = 0;
glyphname = bar;
lastChange = "2018-02-06 00:01:05 +0000";
layers = (
{
background = {
paths = (
{
closed = 1;
nodes = (
"295 -200 LINE",
"295 800 LINE",
"205 800 LINE",
"205 -200 LINE"
);
}
);
};
layerId = "26058A5B-27B8-4A86-A50F-6474302A7C9F";
paths = (
{
closed = 1;
nodes = (
"295 -200 LINE",
"295 800 LINE",
"205 800 LINE",
"205 -200 LINE"
);
}
);
width = 500;
}
);
note = bar;
unicode = 007C;
},
{
color = 0;
glyphname = brokenbar;
lastChange = "2018-02-06 00:01:02 +0000";
layers = (
{
background = {
paths = (
{
closed = 1;
nodes = (
"295 400 LINE",
"295 800 LINE",
"205 800 LINE",
"205 400 LINE"
);
},
{
closed = 1;
nodes = (
"295 -200 LINE",
"295 200 LINE",
"205 200 LINE",
"205 -200 LINE"
);
}
);
};
layerId = "26058A5B-27B8-4A86-A50F-6474302A7C9F";
paths = (
{
closed = 1;
nodes = (
"295 400 LINE",
"295 800 LINE",
"205 800 LINE",
"205 400 LINE"
);
},
{
closed = 1;
nodes = (
"295 -200 LINE",
"295 200 LINE",
"205 200 LINE",
"205 -200 LINE"
);
}
);
width = 500;
}
);
note = brokenbar;
unicode = 00A6;
},
{
color = 0;
glyphname = dagger;
lastChange = "2018-02-06 00:01:10 +0000";
layers = (
{
background = {
paths = (
{
closed = 1;
nodes = (
"250 -97 LINE",
"250 419 LINE",
"378 419 LINE",
"378 514 LINE",
"250 514 LINE",
"250 700 LINE",
"150 700 LINE",
"150 514 LINE",
"22 514 LINE",
"22 419 LINE",
"150 419 LINE",
"150 -97 LINE"
);
}
);
};
layerId = "26058A5B-27B8-4A86-A50F-6474302A7C9F";
paths = (
{
closed = 1;
nodes = (
"250 -97 LINE",
"250 419 LINE",
"378 419 LINE",
"378 514 LINE",
"250 514 LINE",
"250 700 LINE",
"150 700 LINE",
"150 514 LINE",
"22 514 LINE",
"22 419 LINE",
"150 419 LINE",
"150 -97 LINE"
);
}
);
width = 400;
}
);
note = dagger;
unicode = 2020;
},
